G04 #@! TF.GenerationSoftware,KiCad,Pcbnew,(5.1.4)-1*
G04 #@! TF.CreationDate,2020-10-30T07:47:56-05:00*
G04 #@! TF.ProjectId,TAS5806M_Breakout_Hardware,54415335-3830-4364-9d5f-427265616b6f,rev?*
G04 #@! TF.SameCoordinates,Original*
G04 #@! TF.FileFunction,Copper,L2,Bot*
G04 #@! TF.FilePolarity,Positive*
%FSLAX46Y46*%
G04 Gerber Fmt 4.6, Leading zero omitted, Abs format (unit mm)*
G04 Created by KiCad (PCBNEW (5.1.4)-1) date 2020-10-30 07:47:56*
%MOMM*%
%LPD*%
G04 APERTURE LIST*
%ADD10R,1.800000X4.400000*%
%ADD11O,1.800000X4.000000*%
%ADD12O,4.000000X1.800000*%
%ADD13C,1.524000*%
%ADD14O,2.000000X1.700000*%
%ADD15C,0.100000*%
%ADD16C,1.700000*%
%ADD17O,1.700000X1.700000*%
%ADD18R,1.700000X1.700000*%
%ADD19C,0.800000*%
%ADD20C,0.635000*%
%ADD21C,0.254000*%
G04 APERTURE END LIST*
D10*
X144272000Y-80010000D03*
D11*
X138472000Y-80010000D03*
D12*
X141272000Y-84810000D03*
D13*
X161988500Y-81597500D03*
X161988500Y-79057500D03*
X161988500Y-76517500D03*
D14*
X185547000Y-106720000D03*
D15*
G36*
X186321504Y-108371204D02*
G01*
X186345773Y-108374804D01*
X186369571Y-108380765D01*
X186392671Y-108389030D01*
X186414849Y-108399520D01*
X186435893Y-108412133D01*
X186455598Y-108426747D01*
X186473777Y-108443223D01*
X186490253Y-108461402D01*
X186504867Y-108481107D01*
X186517480Y-108502151D01*
X186527970Y-108524329D01*
X186536235Y-108547429D01*
X186542196Y-108571227D01*
X186545796Y-108595496D01*
X186547000Y-108620000D01*
X186547000Y-109820000D01*
X186545796Y-109844504D01*
X186542196Y-109868773D01*
X186536235Y-109892571D01*
X186527970Y-109915671D01*
X186517480Y-109937849D01*
X186504867Y-109958893D01*
X186490253Y-109978598D01*
X186473777Y-109996777D01*
X186455598Y-110013253D01*
X186435893Y-110027867D01*
X186414849Y-110040480D01*
X186392671Y-110050970D01*
X186369571Y-110059235D01*
X186345773Y-110065196D01*
X186321504Y-110068796D01*
X186297000Y-110070000D01*
X184797000Y-110070000D01*
X184772496Y-110068796D01*
X184748227Y-110065196D01*
X184724429Y-110059235D01*
X184701329Y-110050970D01*
X184679151Y-110040480D01*
X184658107Y-110027867D01*
X184638402Y-110013253D01*
X184620223Y-109996777D01*
X184603747Y-109978598D01*
X184589133Y-109958893D01*
X184576520Y-109937849D01*
X184566030Y-109915671D01*
X184557765Y-109892571D01*
X184551804Y-109868773D01*
X184548204Y-109844504D01*
X184547000Y-109820000D01*
X184547000Y-108620000D01*
X184548204Y-108595496D01*
X184551804Y-108571227D01*
X184557765Y-108547429D01*
X184566030Y-108524329D01*
X184576520Y-108502151D01*
X184589133Y-108481107D01*
X184603747Y-108461402D01*
X184620223Y-108443223D01*
X184638402Y-108426747D01*
X184658107Y-108412133D01*
X184679151Y-108399520D01*
X184701329Y-108389030D01*
X184724429Y-108380765D01*
X184748227Y-108374804D01*
X184772496Y-108371204D01*
X184797000Y-108370000D01*
X186297000Y-108370000D01*
X186321504Y-108371204D01*
X186321504Y-108371204D01*
G37*
D16*
X185547000Y-109220000D03*
D14*
X185547000Y-87670000D03*
D15*
G36*
X186321504Y-89321204D02*
G01*
X186345773Y-89324804D01*
X186369571Y-89330765D01*
X186392671Y-89339030D01*
X186414849Y-89349520D01*
X186435893Y-89362133D01*
X186455598Y-89376747D01*
X186473777Y-89393223D01*
X186490253Y-89411402D01*
X186504867Y-89431107D01*
X186517480Y-89452151D01*
X186527970Y-89474329D01*
X186536235Y-89497429D01*
X186542196Y-89521227D01*
X186545796Y-89545496D01*
X186547000Y-89570000D01*
X186547000Y-90770000D01*
X186545796Y-90794504D01*
X186542196Y-90818773D01*
X186536235Y-90842571D01*
X186527970Y-90865671D01*
X186517480Y-90887849D01*
X186504867Y-90908893D01*
X186490253Y-90928598D01*
X186473777Y-90946777D01*
X186455598Y-90963253D01*
X186435893Y-90977867D01*
X186414849Y-90990480D01*
X186392671Y-91000970D01*
X186369571Y-91009235D01*
X186345773Y-91015196D01*
X186321504Y-91018796D01*
X186297000Y-91020000D01*
X184797000Y-91020000D01*
X184772496Y-91018796D01*
X184748227Y-91015196D01*
X184724429Y-91009235D01*
X184701329Y-91000970D01*
X184679151Y-90990480D01*
X184658107Y-90977867D01*
X184638402Y-90963253D01*
X184620223Y-90946777D01*
X184603747Y-90928598D01*
X184589133Y-90908893D01*
X184576520Y-90887849D01*
X184566030Y-90865671D01*
X184557765Y-90842571D01*
X184551804Y-90818773D01*
X184548204Y-90794504D01*
X184547000Y-90770000D01*
X184547000Y-89570000D01*
X184548204Y-89545496D01*
X184551804Y-89521227D01*
X184557765Y-89497429D01*
X184566030Y-89474329D01*
X184576520Y-89452151D01*
X184589133Y-89431107D01*
X184603747Y-89411402D01*
X184620223Y-89393223D01*
X184638402Y-89376747D01*
X184658107Y-89362133D01*
X184679151Y-89349520D01*
X184701329Y-89339030D01*
X184724429Y-89330765D01*
X184748227Y-89324804D01*
X184772496Y-89321204D01*
X184797000Y-89320000D01*
X186297000Y-89320000D01*
X186321504Y-89321204D01*
X186321504Y-89321204D01*
G37*
D16*
X185547000Y-90170000D03*
D17*
X137160000Y-92710000D03*
X137160000Y-95250000D03*
X137160000Y-97790000D03*
X137160000Y-100330000D03*
X137160000Y-102870000D03*
X137160000Y-105410000D03*
X137160000Y-107950000D03*
X137160000Y-110490000D03*
X137160000Y-113030000D03*
D18*
X137160000Y-115570000D03*
D19*
X164465000Y-86360000D03*
X162814000Y-88011000D03*
X164465000Y-90170000D03*
X185420000Y-114300000D03*
X189230000Y-114300000D03*
X158432500Y-99822000D03*
X157099000Y-99822000D03*
X157099000Y-97028000D03*
X155702000Y-98425000D03*
X155702000Y-99822000D03*
X158432500Y-98425000D03*
X155702000Y-97028000D03*
X157099000Y-98425000D03*
X158432500Y-97028000D03*
X154114500Y-98425000D03*
X154114500Y-99822000D03*
X152654000Y-98425000D03*
X154114500Y-97028000D03*
X152654000Y-97028000D03*
X152654000Y-99822000D03*
X138938000Y-98869500D03*
X138938000Y-101536500D03*
X138938000Y-96266000D03*
X147637500Y-91122500D03*
X145923000Y-91122500D03*
X139954000Y-91821000D03*
X134620000Y-99060000D03*
X134620000Y-101600000D03*
X134620000Y-96520000D03*
X138938000Y-104140000D03*
X138938000Y-106680000D03*
X138938000Y-109029500D03*
X138938000Y-111760000D03*
X149923500Y-97028000D03*
X149923500Y-98425000D03*
X149923500Y-99822000D03*
X151257000Y-97028000D03*
X151257000Y-98425000D03*
X151257000Y-99822000D03*
X165100000Y-96520000D03*
X165100000Y-97790000D03*
X165100000Y-99060000D03*
X165100000Y-100330000D03*
X163830000Y-97155000D03*
X163830000Y-99695000D03*
X162560000Y-97155000D03*
X162560000Y-99695000D03*
X161290000Y-99758500D03*
X161290000Y-97155000D03*
X160020000Y-99377500D03*
X160020000Y-97790000D03*
X143510000Y-95885000D03*
X145415000Y-95885000D03*
X147320000Y-95885000D03*
X143510000Y-98425000D03*
X145415000Y-98425000D03*
X147320000Y-98425000D03*
X143510000Y-100965000D03*
X145415000Y-100965000D03*
X147320000Y-100965000D03*
X143510000Y-103505000D03*
X145415000Y-103505000D03*
X147320000Y-103505000D03*
X180340000Y-106680000D03*
X180340000Y-109029500D03*
X162560000Y-108585000D03*
X164465000Y-109855000D03*
X164465000Y-106680000D03*
X166370000Y-98488500D03*
X167640000Y-98425000D03*
X171450000Y-98425000D03*
X158242000Y-85280500D03*
X175260000Y-98425000D03*
X179070000Y-98425000D03*
X182880000Y-98425000D03*
X186690000Y-98425000D03*
X190500000Y-98425000D03*
X167640000Y-107950000D03*
X170180000Y-107950000D03*
X172720000Y-107950000D03*
X167640000Y-88900000D03*
X170180000Y-88900000D03*
X172720000Y-88900000D03*
X164846000Y-81280000D03*
X182880000Y-101600000D03*
X186690000Y-101600000D03*
X190500000Y-101600000D03*
X182880000Y-95250000D03*
X186690000Y-95250000D03*
X190373000Y-95250000D03*
X185420000Y-82550000D03*
X189230000Y-82550000D03*
X158877000Y-113030000D03*
X162687000Y-116713000D03*
X143383000Y-108585000D03*
X134620000Y-87884000D03*
X152400000Y-78740000D03*
X171450000Y-78105000D03*
X155917900Y-113957100D03*
D20*
X160910870Y-81597500D02*
X159577370Y-82931000D01*
X161988500Y-81597500D02*
X160910870Y-81597500D01*
X159577370Y-82931000D02*
X148844000Y-82931000D01*
X148844000Y-82931000D02*
X144335500Y-87439500D01*
X144335500Y-87439500D02*
X138557000Y-87439500D01*
X137160000Y-88836500D02*
X137160000Y-92710000D01*
X138557000Y-87439500D02*
X137160000Y-88836500D01*
X132524500Y-84645500D02*
X132524500Y-119062500D01*
X132524500Y-119062500D02*
X133667500Y-120205500D01*
X155917900Y-118783100D02*
X154495500Y-120205500D01*
X155917900Y-113957100D02*
X155917900Y-118783100D01*
X133667500Y-120205500D02*
X154495500Y-120205500D01*
X144272000Y-77175000D02*
X143424000Y-76327000D01*
X144272000Y-80010000D02*
X144272000Y-77175000D01*
X143424000Y-76327000D02*
X133350000Y-76327000D01*
X132524500Y-77152500D02*
X132524500Y-84645500D01*
X133350000Y-76327000D02*
X132524500Y-77152500D01*
D21*
G36*
X192011204Y-73711815D02*
G01*
X192243226Y-73781867D01*
X192457222Y-73895650D01*
X192645041Y-74048832D01*
X192799530Y-74235577D01*
X192914801Y-74448769D01*
X192986472Y-74680300D01*
X193015001Y-74951734D01*
X193015000Y-121887723D01*
X192988185Y-122161205D01*
X192918133Y-122393226D01*
X192804350Y-122607222D01*
X192651169Y-122795039D01*
X192464424Y-122949529D01*
X192251231Y-123064802D01*
X192019701Y-123136472D01*
X191748276Y-123165000D01*
X132112277Y-123165000D01*
X131838795Y-123138185D01*
X131606774Y-123068133D01*
X131392778Y-122954350D01*
X131204961Y-122801169D01*
X131050471Y-122614424D01*
X130935198Y-122401231D01*
X130863528Y-122169701D01*
X130835000Y-121898276D01*
X130835000Y-77152500D01*
X131567392Y-77152500D01*
X131572000Y-77199285D01*
X131572001Y-84598706D01*
X131572000Y-84598716D01*
X131572001Y-119015705D01*
X131567392Y-119062500D01*
X131585783Y-119249222D01*
X131640249Y-119428769D01*
X131713099Y-119565062D01*
X131728695Y-119594241D01*
X131847723Y-119739278D01*
X131884064Y-119769102D01*
X132960897Y-120845936D01*
X132990722Y-120882278D01*
X133135759Y-121001306D01*
X133301231Y-121089752D01*
X133480777Y-121144217D01*
X133667499Y-121162608D01*
X133714284Y-121158000D01*
X154448715Y-121158000D01*
X154495500Y-121162608D01*
X154542285Y-121158000D01*
X154682223Y-121144217D01*
X154861769Y-121089752D01*
X155027241Y-121001306D01*
X155172278Y-120882278D01*
X155202107Y-120845931D01*
X156558331Y-119489707D01*
X156594678Y-119459878D01*
X156713706Y-119314841D01*
X156802152Y-119149369D01*
X156856617Y-118969823D01*
X156870400Y-118829885D01*
X156875008Y-118783101D01*
X156870400Y-118736316D01*
X156870400Y-114362147D01*
X156913126Y-114258998D01*
X156925247Y-114198061D01*
X184385000Y-114198061D01*
X184385000Y-114401939D01*
X184424774Y-114601898D01*
X184502795Y-114790256D01*
X184616063Y-114959774D01*
X184760226Y-115103937D01*
X184929744Y-115217205D01*
X185118102Y-115295226D01*
X185318061Y-115335000D01*
X185521939Y-115335000D01*
X185721898Y-115295226D01*
X185910256Y-115217205D01*
X186079774Y-115103937D01*
X186223937Y-114959774D01*
X186337205Y-114790256D01*
X186415226Y-114601898D01*
X186455000Y-114401939D01*
X186455000Y-114198061D01*
X188195000Y-114198061D01*
X188195000Y-114401939D01*
X188234774Y-114601898D01*
X188312795Y-114790256D01*
X188426063Y-114959774D01*
X188570226Y-115103937D01*
X188739744Y-115217205D01*
X188928102Y-115295226D01*
X189128061Y-115335000D01*
X189331939Y-115335000D01*
X189531898Y-115295226D01*
X189720256Y-115217205D01*
X189889774Y-115103937D01*
X190033937Y-114959774D01*
X190147205Y-114790256D01*
X190225226Y-114601898D01*
X190265000Y-114401939D01*
X190265000Y-114198061D01*
X190225226Y-113998102D01*
X190147205Y-113809744D01*
X190033937Y-113640226D01*
X189889774Y-113496063D01*
X189720256Y-113382795D01*
X189531898Y-113304774D01*
X189331939Y-113265000D01*
X189128061Y-113265000D01*
X188928102Y-113304774D01*
X188739744Y-113382795D01*
X188570226Y-113496063D01*
X188426063Y-113640226D01*
X188312795Y-113809744D01*
X188234774Y-113998102D01*
X188195000Y-114198061D01*
X186455000Y-114198061D01*
X186415226Y-113998102D01*
X186337205Y-113809744D01*
X186223937Y-113640226D01*
X186079774Y-113496063D01*
X185910256Y-113382795D01*
X185721898Y-113304774D01*
X185521939Y-113265000D01*
X185318061Y-113265000D01*
X185118102Y-113304774D01*
X184929744Y-113382795D01*
X184760226Y-113496063D01*
X184616063Y-113640226D01*
X184502795Y-113809744D01*
X184424774Y-113998102D01*
X184385000Y-114198061D01*
X156925247Y-114198061D01*
X156952900Y-114059039D01*
X156952900Y-113855161D01*
X156913126Y-113655202D01*
X156835105Y-113466844D01*
X156721837Y-113297326D01*
X156577674Y-113153163D01*
X156408156Y-113039895D01*
X156219798Y-112961874D01*
X156019839Y-112922100D01*
X155815961Y-112922100D01*
X155616002Y-112961874D01*
X155427644Y-113039895D01*
X155258126Y-113153163D01*
X155113963Y-113297326D01*
X155000695Y-113466844D01*
X154922674Y-113655202D01*
X154882900Y-113855161D01*
X154882900Y-114059039D01*
X154922674Y-114258998D01*
X154965400Y-114362147D01*
X154965401Y-118388561D01*
X154100962Y-119253000D01*
X134062039Y-119253000D01*
X133477000Y-118667962D01*
X133477000Y-92710000D01*
X135667815Y-92710000D01*
X135696487Y-93001111D01*
X135781401Y-93281034D01*
X135919294Y-93539014D01*
X136104866Y-93765134D01*
X136330986Y-93950706D01*
X136385791Y-93980000D01*
X136330986Y-94009294D01*
X136104866Y-94194866D01*
X135919294Y-94420986D01*
X135781401Y-94678966D01*
X135696487Y-94958889D01*
X135667815Y-95250000D01*
X135696487Y-95541111D01*
X135781401Y-95821034D01*
X135919294Y-96079014D01*
X136104866Y-96305134D01*
X136330986Y-96490706D01*
X136385791Y-96520000D01*
X136330986Y-96549294D01*
X136104866Y-96734866D01*
X135919294Y-96960986D01*
X135781401Y-97218966D01*
X135696487Y-97498889D01*
X135667815Y-97790000D01*
X135696487Y-98081111D01*
X135781401Y-98361034D01*
X135919294Y-98619014D01*
X136104866Y-98845134D01*
X136330986Y-99030706D01*
X136385791Y-99060000D01*
X136330986Y-99089294D01*
X136104866Y-99274866D01*
X135919294Y-99500986D01*
X135781401Y-99758966D01*
X135696487Y-100038889D01*
X135667815Y-100330000D01*
X135696487Y-100621111D01*
X135781401Y-100901034D01*
X135919294Y-101159014D01*
X136104866Y-101385134D01*
X136330986Y-101570706D01*
X136385791Y-101600000D01*
X136330986Y-101629294D01*
X136104866Y-101814866D01*
X135919294Y-102040986D01*
X135781401Y-102298966D01*
X135696487Y-102578889D01*
X135667815Y-102870000D01*
X135696487Y-103161111D01*
X135781401Y-103441034D01*
X135919294Y-103699014D01*
X136104866Y-103925134D01*
X136330986Y-104110706D01*
X136385791Y-104140000D01*
X136330986Y-104169294D01*
X136104866Y-104354866D01*
X135919294Y-104580986D01*
X135781401Y-104838966D01*
X135696487Y-105118889D01*
X135667815Y-105410000D01*
X135696487Y-105701111D01*
X135781401Y-105981034D01*
X135919294Y-106239014D01*
X136104866Y-106465134D01*
X136330986Y-106650706D01*
X136385791Y-106680000D01*
X136330986Y-106709294D01*
X136104866Y-106894866D01*
X135919294Y-107120986D01*
X135781401Y-107378966D01*
X135696487Y-107658889D01*
X135667815Y-107950000D01*
X135696487Y-108241111D01*
X135781401Y-108521034D01*
X135919294Y-108779014D01*
X136104866Y-109005134D01*
X136330986Y-109190706D01*
X136385791Y-109220000D01*
X136330986Y-109249294D01*
X136104866Y-109434866D01*
X135919294Y-109660986D01*
X135781401Y-109918966D01*
X135696487Y-110198889D01*
X135667815Y-110490000D01*
X135696487Y-110781111D01*
X135781401Y-111061034D01*
X135919294Y-111319014D01*
X136104866Y-111545134D01*
X136330986Y-111730706D01*
X136385791Y-111760000D01*
X136330986Y-111789294D01*
X136104866Y-111974866D01*
X135919294Y-112200986D01*
X135781401Y-112458966D01*
X135696487Y-112738889D01*
X135667815Y-113030000D01*
X135696487Y-113321111D01*
X135781401Y-113601034D01*
X135919294Y-113859014D01*
X136104866Y-114085134D01*
X136330986Y-114270706D01*
X136588966Y-114408599D01*
X136868889Y-114493513D01*
X137087050Y-114515000D01*
X137232950Y-114515000D01*
X137451111Y-114493513D01*
X137731034Y-114408599D01*
X137989014Y-114270706D01*
X138215134Y-114085134D01*
X138400706Y-113859014D01*
X138538599Y-113601034D01*
X138623513Y-113321111D01*
X138652185Y-113030000D01*
X138623513Y-112738889D01*
X138538599Y-112458966D01*
X138400706Y-112200986D01*
X138215134Y-111974866D01*
X137989014Y-111789294D01*
X137934209Y-111760000D01*
X137989014Y-111730706D01*
X138215134Y-111545134D01*
X138400706Y-111319014D01*
X138538599Y-111061034D01*
X138623513Y-110781111D01*
X138652185Y-110490000D01*
X138623513Y-110198889D01*
X138538599Y-109918966D01*
X138400706Y-109660986D01*
X138215134Y-109434866D01*
X137989014Y-109249294D01*
X137934209Y-109220000D01*
X137989014Y-109190706D01*
X138215134Y-109005134D01*
X138400706Y-108779014D01*
X138538599Y-108521034D01*
X138623513Y-108241111D01*
X138652185Y-107950000D01*
X138623513Y-107658889D01*
X138538599Y-107378966D01*
X138400706Y-107120986D01*
X138215134Y-106894866D01*
X138002060Y-106720000D01*
X183904815Y-106720000D01*
X183933487Y-107011111D01*
X184018401Y-107291034D01*
X184156294Y-107549014D01*
X184341866Y-107775134D01*
X184405337Y-107827223D01*
X184303614Y-107881595D01*
X184169038Y-107992038D01*
X184058595Y-108126614D01*
X183976528Y-108280150D01*
X183925992Y-108446746D01*
X183908928Y-108620000D01*
X183908928Y-109820000D01*
X183925992Y-109993254D01*
X183976528Y-110159850D01*
X184058595Y-110313386D01*
X184169038Y-110447962D01*
X184303614Y-110558405D01*
X184457150Y-110640472D01*
X184623746Y-110691008D01*
X184797000Y-110708072D01*
X186297000Y-110708072D01*
X186470254Y-110691008D01*
X186636850Y-110640472D01*
X186790386Y-110558405D01*
X186924962Y-110447962D01*
X187035405Y-110313386D01*
X187117472Y-110159850D01*
X187168008Y-109993254D01*
X187185072Y-109820000D01*
X187185072Y-108620000D01*
X187168008Y-108446746D01*
X187117472Y-108280150D01*
X187035405Y-108126614D01*
X186924962Y-107992038D01*
X186790386Y-107881595D01*
X186688663Y-107827223D01*
X186752134Y-107775134D01*
X186937706Y-107549014D01*
X187075599Y-107291034D01*
X187160513Y-107011111D01*
X187189185Y-106720000D01*
X187160513Y-106428889D01*
X187075599Y-106148966D01*
X186937706Y-105890986D01*
X186752134Y-105664866D01*
X186526014Y-105479294D01*
X186268034Y-105341401D01*
X185988111Y-105256487D01*
X185769950Y-105235000D01*
X185324050Y-105235000D01*
X185105889Y-105256487D01*
X184825966Y-105341401D01*
X184567986Y-105479294D01*
X184341866Y-105664866D01*
X184156294Y-105890986D01*
X184018401Y-106148966D01*
X183933487Y-106428889D01*
X183904815Y-106720000D01*
X138002060Y-106720000D01*
X137989014Y-106709294D01*
X137934209Y-106680000D01*
X137989014Y-106650706D01*
X138215134Y-106465134D01*
X138400706Y-106239014D01*
X138538599Y-105981034D01*
X138623513Y-105701111D01*
X138652185Y-105410000D01*
X138623513Y-105118889D01*
X138538599Y-104838966D01*
X138400706Y-104580986D01*
X138215134Y-104354866D01*
X137989014Y-104169294D01*
X137934209Y-104140000D01*
X137989014Y-104110706D01*
X138215134Y-103925134D01*
X138400706Y-103699014D01*
X138538599Y-103441034D01*
X138623513Y-103161111D01*
X138652185Y-102870000D01*
X138623513Y-102578889D01*
X138538599Y-102298966D01*
X138400706Y-102040986D01*
X138215134Y-101814866D01*
X137989014Y-101629294D01*
X137934209Y-101600000D01*
X137989014Y-101570706D01*
X138215134Y-101385134D01*
X138400706Y-101159014D01*
X138538599Y-100901034D01*
X138623513Y-100621111D01*
X138652185Y-100330000D01*
X138623513Y-100038889D01*
X138538599Y-99758966D01*
X138400706Y-99500986D01*
X138215134Y-99274866D01*
X137989014Y-99089294D01*
X137934209Y-99060000D01*
X137989014Y-99030706D01*
X138215134Y-98845134D01*
X138400706Y-98619014D01*
X138538599Y-98361034D01*
X138623513Y-98081111D01*
X138652185Y-97790000D01*
X138623513Y-97498889D01*
X138538599Y-97218966D01*
X138400706Y-96960986D01*
X138215134Y-96734866D01*
X137989014Y-96549294D01*
X137934209Y-96520000D01*
X137989014Y-96490706D01*
X138215134Y-96305134D01*
X138400706Y-96079014D01*
X138538599Y-95821034D01*
X138623513Y-95541111D01*
X138652185Y-95250000D01*
X138623513Y-94958889D01*
X138538599Y-94678966D01*
X138400706Y-94420986D01*
X138215134Y-94194866D01*
X137989014Y-94009294D01*
X137934209Y-93980000D01*
X137989014Y-93950706D01*
X138215134Y-93765134D01*
X138400706Y-93539014D01*
X138538599Y-93281034D01*
X138623513Y-93001111D01*
X138652185Y-92710000D01*
X138623513Y-92418889D01*
X138538599Y-92138966D01*
X138400706Y-91880986D01*
X138215134Y-91654866D01*
X138112500Y-91570636D01*
X138112500Y-90068061D01*
X163430000Y-90068061D01*
X163430000Y-90271939D01*
X163469774Y-90471898D01*
X163547795Y-90660256D01*
X163661063Y-90829774D01*
X163805226Y-90973937D01*
X163974744Y-91087205D01*
X164163102Y-91165226D01*
X164363061Y-91205000D01*
X164566939Y-91205000D01*
X164766898Y-91165226D01*
X164955256Y-91087205D01*
X165124774Y-90973937D01*
X165268937Y-90829774D01*
X165382205Y-90660256D01*
X165460226Y-90471898D01*
X165500000Y-90271939D01*
X165500000Y-90068061D01*
X165460226Y-89868102D01*
X165382205Y-89679744D01*
X165268937Y-89510226D01*
X165124774Y-89366063D01*
X164955256Y-89252795D01*
X164766898Y-89174774D01*
X164566939Y-89135000D01*
X164363061Y-89135000D01*
X164163102Y-89174774D01*
X163974744Y-89252795D01*
X163805226Y-89366063D01*
X163661063Y-89510226D01*
X163547795Y-89679744D01*
X163469774Y-89868102D01*
X163430000Y-90068061D01*
X138112500Y-90068061D01*
X138112500Y-89231038D01*
X138951538Y-88392000D01*
X144288715Y-88392000D01*
X144335500Y-88396608D01*
X144382285Y-88392000D01*
X144522223Y-88378217D01*
X144701769Y-88323752D01*
X144867241Y-88235306D01*
X145012278Y-88116278D01*
X145042107Y-88079931D01*
X145212977Y-87909061D01*
X161779000Y-87909061D01*
X161779000Y-88112939D01*
X161818774Y-88312898D01*
X161896795Y-88501256D01*
X162010063Y-88670774D01*
X162154226Y-88814937D01*
X162323744Y-88928205D01*
X162512102Y-89006226D01*
X162712061Y-89046000D01*
X162915939Y-89046000D01*
X163115898Y-89006226D01*
X163304256Y-88928205D01*
X163473774Y-88814937D01*
X163617937Y-88670774D01*
X163731205Y-88501256D01*
X163809226Y-88312898D01*
X163849000Y-88112939D01*
X163849000Y-87909061D01*
X163809226Y-87709102D01*
X163793030Y-87670000D01*
X183904815Y-87670000D01*
X183933487Y-87961111D01*
X184018401Y-88241034D01*
X184156294Y-88499014D01*
X184341866Y-88725134D01*
X184405337Y-88777223D01*
X184303614Y-88831595D01*
X184169038Y-88942038D01*
X184058595Y-89076614D01*
X183976528Y-89230150D01*
X183925992Y-89396746D01*
X183908928Y-89570000D01*
X183908928Y-90770000D01*
X183925992Y-90943254D01*
X183976528Y-91109850D01*
X184058595Y-91263386D01*
X184169038Y-91397962D01*
X184303614Y-91508405D01*
X184457150Y-91590472D01*
X184623746Y-91641008D01*
X184797000Y-91658072D01*
X186297000Y-91658072D01*
X186470254Y-91641008D01*
X186636850Y-91590472D01*
X186790386Y-91508405D01*
X186924962Y-91397962D01*
X187035405Y-91263386D01*
X187117472Y-91109850D01*
X187168008Y-90943254D01*
X187185072Y-90770000D01*
X187185072Y-89570000D01*
X187168008Y-89396746D01*
X187117472Y-89230150D01*
X187035405Y-89076614D01*
X186924962Y-88942038D01*
X186790386Y-88831595D01*
X186688663Y-88777223D01*
X186752134Y-88725134D01*
X186937706Y-88499014D01*
X187075599Y-88241034D01*
X187160513Y-87961111D01*
X187189185Y-87670000D01*
X187160513Y-87378889D01*
X187075599Y-87098966D01*
X186937706Y-86840986D01*
X186752134Y-86614866D01*
X186526014Y-86429294D01*
X186268034Y-86291401D01*
X185988111Y-86206487D01*
X185769950Y-86185000D01*
X185324050Y-86185000D01*
X185105889Y-86206487D01*
X184825966Y-86291401D01*
X184567986Y-86429294D01*
X184341866Y-86614866D01*
X184156294Y-86840986D01*
X184018401Y-87098966D01*
X183933487Y-87378889D01*
X183904815Y-87670000D01*
X163793030Y-87670000D01*
X163731205Y-87520744D01*
X163617937Y-87351226D01*
X163473774Y-87207063D01*
X163304256Y-87093795D01*
X163115898Y-87015774D01*
X162915939Y-86976000D01*
X162712061Y-86976000D01*
X162512102Y-87015774D01*
X162323744Y-87093795D01*
X162154226Y-87207063D01*
X162010063Y-87351226D01*
X161896795Y-87520744D01*
X161818774Y-87709102D01*
X161779000Y-87909061D01*
X145212977Y-87909061D01*
X146863977Y-86258061D01*
X163430000Y-86258061D01*
X163430000Y-86461939D01*
X163469774Y-86661898D01*
X163547795Y-86850256D01*
X163661063Y-87019774D01*
X163805226Y-87163937D01*
X163974744Y-87277205D01*
X164163102Y-87355226D01*
X164363061Y-87395000D01*
X164566939Y-87395000D01*
X164766898Y-87355226D01*
X164955256Y-87277205D01*
X165124774Y-87163937D01*
X165268937Y-87019774D01*
X165382205Y-86850256D01*
X165460226Y-86661898D01*
X165500000Y-86461939D01*
X165500000Y-86258061D01*
X165460226Y-86058102D01*
X165382205Y-85869744D01*
X165268937Y-85700226D01*
X165124774Y-85556063D01*
X164955256Y-85442795D01*
X164766898Y-85364774D01*
X164566939Y-85325000D01*
X164363061Y-85325000D01*
X164163102Y-85364774D01*
X163974744Y-85442795D01*
X163805226Y-85556063D01*
X163661063Y-85700226D01*
X163547795Y-85869744D01*
X163469774Y-86058102D01*
X163430000Y-86258061D01*
X146863977Y-86258061D01*
X149238539Y-83883500D01*
X159530585Y-83883500D01*
X159577370Y-83888108D01*
X159624155Y-83883500D01*
X159764093Y-83869717D01*
X159943639Y-83815252D01*
X160109111Y-83726806D01*
X160254148Y-83607778D01*
X160283977Y-83571431D01*
X161142818Y-82712590D01*
X161326773Y-82835505D01*
X161581010Y-82940814D01*
X161850908Y-82994500D01*
X162126092Y-82994500D01*
X162395990Y-82940814D01*
X162650227Y-82835505D01*
X162879035Y-82682620D01*
X163073620Y-82488035D01*
X163226505Y-82259227D01*
X163331814Y-82004990D01*
X163385500Y-81735092D01*
X163385500Y-81459908D01*
X163331814Y-81190010D01*
X163226505Y-80935773D01*
X163073620Y-80706965D01*
X162879035Y-80512380D01*
X162650227Y-80359495D01*
X162395990Y-80254186D01*
X162126092Y-80200500D01*
X161850908Y-80200500D01*
X161581010Y-80254186D01*
X161326773Y-80359495D01*
X161097965Y-80512380D01*
X160965345Y-80645000D01*
X160957655Y-80645000D01*
X160910870Y-80640392D01*
X160724147Y-80658783D01*
X160544600Y-80713248D01*
X160461865Y-80757471D01*
X160379129Y-80801694D01*
X160234092Y-80920722D01*
X160204267Y-80957064D01*
X159182832Y-81978500D01*
X148890785Y-81978500D01*
X148844000Y-81973892D01*
X148797215Y-81978500D01*
X148657277Y-81992283D01*
X148477731Y-82046748D01*
X148312259Y-82135194D01*
X148167222Y-82254222D01*
X148137398Y-82290563D01*
X143940962Y-86487000D01*
X138603784Y-86487000D01*
X138556999Y-86482392D01*
X138370277Y-86500783D01*
X138190731Y-86555248D01*
X138025259Y-86643694D01*
X137880222Y-86762722D01*
X137850393Y-86799069D01*
X136519569Y-88129893D01*
X136483222Y-88159722D01*
X136364194Y-88304759D01*
X136275748Y-88470232D01*
X136266337Y-88501256D01*
X136221283Y-88649778D01*
X136202892Y-88836500D01*
X136207500Y-88883285D01*
X136207501Y-91570636D01*
X136104866Y-91654866D01*
X135919294Y-91880986D01*
X135781401Y-92138966D01*
X135696487Y-92418889D01*
X135667815Y-92710000D01*
X133477000Y-92710000D01*
X133477000Y-84810000D01*
X138629573Y-84810000D01*
X138659210Y-85110913D01*
X138746983Y-85400261D01*
X138889519Y-85666927D01*
X139081339Y-85900661D01*
X139315073Y-86092481D01*
X139581739Y-86235017D01*
X139871087Y-86322790D01*
X140096592Y-86345000D01*
X142447408Y-86345000D01*
X142672913Y-86322790D01*
X142962261Y-86235017D01*
X143228927Y-86092481D01*
X143462661Y-85900661D01*
X143654481Y-85666927D01*
X143797017Y-85400261D01*
X143884790Y-85110913D01*
X143914427Y-84810000D01*
X143884790Y-84509087D01*
X143797017Y-84219739D01*
X143654481Y-83953073D01*
X143462661Y-83719339D01*
X143228927Y-83527519D01*
X142962261Y-83384983D01*
X142672913Y-83297210D01*
X142447408Y-83275000D01*
X140096592Y-83275000D01*
X139871087Y-83297210D01*
X139581739Y-83384983D01*
X139315073Y-83527519D01*
X139081339Y-83719339D01*
X138889519Y-83953073D01*
X138746983Y-84219739D01*
X138659210Y-84509087D01*
X138629573Y-84810000D01*
X133477000Y-84810000D01*
X133477000Y-77547038D01*
X133744538Y-77279500D01*
X143017461Y-77279500D01*
X142920815Y-77358815D01*
X142841463Y-77455506D01*
X142782498Y-77565820D01*
X142746188Y-77685518D01*
X142733928Y-77810000D01*
X142733928Y-82210000D01*
X142746188Y-82334482D01*
X142782498Y-82454180D01*
X142841463Y-82564494D01*
X142920815Y-82661185D01*
X143017506Y-82740537D01*
X143127820Y-82799502D01*
X143247518Y-82835812D01*
X143372000Y-82848072D01*
X145172000Y-82848072D01*
X145296482Y-82835812D01*
X145416180Y-82799502D01*
X145526494Y-82740537D01*
X145623185Y-82661185D01*
X145702537Y-82564494D01*
X145761502Y-82454180D01*
X145797812Y-82334482D01*
X145810072Y-82210000D01*
X145810072Y-77810000D01*
X145797812Y-77685518D01*
X145761502Y-77565820D01*
X145702537Y-77455506D01*
X145623185Y-77358815D01*
X145526494Y-77279463D01*
X145416180Y-77220498D01*
X145296482Y-77184188D01*
X145228859Y-77177528D01*
X145229108Y-77174999D01*
X145210717Y-76988277D01*
X145156252Y-76808731D01*
X145067806Y-76643259D01*
X144948778Y-76498222D01*
X144912436Y-76468397D01*
X144823947Y-76379908D01*
X160591500Y-76379908D01*
X160591500Y-76655092D01*
X160645186Y-76924990D01*
X160750495Y-77179227D01*
X160903380Y-77408035D01*
X161097965Y-77602620D01*
X161326773Y-77755505D01*
X161581010Y-77860814D01*
X161850908Y-77914500D01*
X162126092Y-77914500D01*
X162395990Y-77860814D01*
X162650227Y-77755505D01*
X162879035Y-77602620D01*
X163073620Y-77408035D01*
X163226505Y-77179227D01*
X163331814Y-76924990D01*
X163385500Y-76655092D01*
X163385500Y-76379908D01*
X163331814Y-76110010D01*
X163226505Y-75855773D01*
X163073620Y-75626965D01*
X162879035Y-75432380D01*
X162650227Y-75279495D01*
X162395990Y-75174186D01*
X162126092Y-75120500D01*
X161850908Y-75120500D01*
X161581010Y-75174186D01*
X161326773Y-75279495D01*
X161097965Y-75432380D01*
X160903380Y-75626965D01*
X160750495Y-75855773D01*
X160645186Y-76110010D01*
X160591500Y-76379908D01*
X144823947Y-76379908D01*
X144130607Y-75686569D01*
X144100778Y-75650222D01*
X143955741Y-75531194D01*
X143790269Y-75442748D01*
X143610723Y-75388283D01*
X143470785Y-75374500D01*
X143424000Y-75369892D01*
X143377215Y-75374500D01*
X133396784Y-75374500D01*
X133349999Y-75369892D01*
X133163277Y-75388283D01*
X132983731Y-75442748D01*
X132818259Y-75531194D01*
X132673222Y-75650222D01*
X132643393Y-75686569D01*
X131884069Y-76445893D01*
X131847722Y-76475722D01*
X131728694Y-76620759D01*
X131640248Y-76786232D01*
X131618253Y-76858740D01*
X131585783Y-76965778D01*
X131567392Y-77152500D01*
X130835000Y-77152500D01*
X130835000Y-74962277D01*
X130861815Y-74688796D01*
X130931867Y-74456774D01*
X131045650Y-74242778D01*
X131198832Y-74054959D01*
X131385577Y-73900470D01*
X131598769Y-73785199D01*
X131830300Y-73713528D01*
X132101725Y-73685000D01*
X191737723Y-73685000D01*
X192011204Y-73711815D01*
X192011204Y-73711815D01*
G37*
X192011204Y-73711815D02*
X192243226Y-73781867D01*
X192457222Y-73895650D01*
X192645041Y-74048832D01*
X192799530Y-74235577D01*
X192914801Y-74448769D01*
X192986472Y-74680300D01*
X193015001Y-74951734D01*
X193015000Y-121887723D01*
X192988185Y-122161205D01*
X192918133Y-122393226D01*
X192804350Y-122607222D01*
X192651169Y-122795039D01*
X192464424Y-122949529D01*
X192251231Y-123064802D01*
X192019701Y-123136472D01*
X191748276Y-123165000D01*
X132112277Y-123165000D01*
X131838795Y-123138185D01*
X131606774Y-123068133D01*
X131392778Y-122954350D01*
X131204961Y-122801169D01*
X131050471Y-122614424D01*
X130935198Y-122401231D01*
X130863528Y-122169701D01*
X130835000Y-121898276D01*
X130835000Y-77152500D01*
X131567392Y-77152500D01*
X131572000Y-77199285D01*
X131572001Y-84598706D01*
X131572000Y-84598716D01*
X131572001Y-119015705D01*
X131567392Y-119062500D01*
X131585783Y-119249222D01*
X131640249Y-119428769D01*
X131713099Y-119565062D01*
X131728695Y-119594241D01*
X131847723Y-119739278D01*
X131884064Y-119769102D01*
X132960897Y-120845936D01*
X132990722Y-120882278D01*
X133135759Y-121001306D01*
X133301231Y-121089752D01*
X133480777Y-121144217D01*
X133667499Y-121162608D01*
X133714284Y-121158000D01*
X154448715Y-121158000D01*
X154495500Y-121162608D01*
X154542285Y-121158000D01*
X154682223Y-121144217D01*
X154861769Y-121089752D01*
X155027241Y-121001306D01*
X155172278Y-120882278D01*
X155202107Y-120845931D01*
X156558331Y-119489707D01*
X156594678Y-119459878D01*
X156713706Y-119314841D01*
X156802152Y-119149369D01*
X156856617Y-118969823D01*
X156870400Y-118829885D01*
X156875008Y-118783101D01*
X156870400Y-118736316D01*
X156870400Y-114362147D01*
X156913126Y-114258998D01*
X156925247Y-114198061D01*
X184385000Y-114198061D01*
X184385000Y-114401939D01*
X184424774Y-114601898D01*
X184502795Y-114790256D01*
X184616063Y-114959774D01*
X184760226Y-115103937D01*
X184929744Y-115217205D01*
X185118102Y-115295226D01*
X185318061Y-115335000D01*
X185521939Y-115335000D01*
X185721898Y-115295226D01*
X185910256Y-115217205D01*
X186079774Y-115103937D01*
X186223937Y-114959774D01*
X186337205Y-114790256D01*
X186415226Y-114601898D01*
X186455000Y-114401939D01*
X186455000Y-114198061D01*
X188195000Y-114198061D01*
X188195000Y-114401939D01*
X188234774Y-114601898D01*
X188312795Y-114790256D01*
X188426063Y-114959774D01*
X188570226Y-115103937D01*
X188739744Y-115217205D01*
X188928102Y-115295226D01*
X189128061Y-115335000D01*
X189331939Y-115335000D01*
X189531898Y-115295226D01*
X189720256Y-115217205D01*
X189889774Y-115103937D01*
X190033937Y-114959774D01*
X190147205Y-114790256D01*
X190225226Y-114601898D01*
X190265000Y-114401939D01*
X190265000Y-114198061D01*
X190225226Y-113998102D01*
X190147205Y-113809744D01*
X190033937Y-113640226D01*
X189889774Y-113496063D01*
X189720256Y-113382795D01*
X189531898Y-113304774D01*
X189331939Y-113265000D01*
X189128061Y-113265000D01*
X188928102Y-113304774D01*
X188739744Y-113382795D01*
X188570226Y-113496063D01*
X188426063Y-113640226D01*
X188312795Y-113809744D01*
X188234774Y-113998102D01*
X188195000Y-114198061D01*
X186455000Y-114198061D01*
X186415226Y-113998102D01*
X186337205Y-113809744D01*
X186223937Y-113640226D01*
X186079774Y-113496063D01*
X185910256Y-113382795D01*
X185721898Y-113304774D01*
X185521939Y-113265000D01*
X185318061Y-113265000D01*
X185118102Y-113304774D01*
X184929744Y-113382795D01*
X184760226Y-113496063D01*
X184616063Y-113640226D01*
X184502795Y-113809744D01*
X184424774Y-113998102D01*
X184385000Y-114198061D01*
X156925247Y-114198061D01*
X156952900Y-114059039D01*
X156952900Y-113855161D01*
X156913126Y-113655202D01*
X156835105Y-113466844D01*
X156721837Y-113297326D01*
X156577674Y-113153163D01*
X156408156Y-113039895D01*
X156219798Y-112961874D01*
X156019839Y-112922100D01*
X155815961Y-112922100D01*
X155616002Y-112961874D01*
X155427644Y-113039895D01*
X155258126Y-113153163D01*
X155113963Y-113297326D01*
X155000695Y-113466844D01*
X154922674Y-113655202D01*
X154882900Y-113855161D01*
X154882900Y-114059039D01*
X154922674Y-114258998D01*
X154965400Y-114362147D01*
X154965401Y-118388561D01*
X154100962Y-119253000D01*
X134062039Y-119253000D01*
X133477000Y-118667962D01*
X133477000Y-92710000D01*
X135667815Y-92710000D01*
X135696487Y-93001111D01*
X135781401Y-93281034D01*
X135919294Y-93539014D01*
X136104866Y-93765134D01*
X136330986Y-93950706D01*
X136385791Y-93980000D01*
X136330986Y-94009294D01*
X136104866Y-94194866D01*
X135919294Y-94420986D01*
X135781401Y-94678966D01*
X135696487Y-94958889D01*
X135667815Y-95250000D01*
X135696487Y-95541111D01*
X135781401Y-95821034D01*
X135919294Y-96079014D01*
X136104866Y-96305134D01*
X136330986Y-96490706D01*
X136385791Y-96520000D01*
X136330986Y-96549294D01*
X136104866Y-96734866D01*
X135919294Y-96960986D01*
X135781401Y-97218966D01*
X135696487Y-97498889D01*
X135667815Y-97790000D01*
X135696487Y-98081111D01*
X135781401Y-98361034D01*
X135919294Y-98619014D01*
X136104866Y-98845134D01*
X136330986Y-99030706D01*
X136385791Y-99060000D01*
X136330986Y-99089294D01*
X136104866Y-99274866D01*
X135919294Y-99500986D01*
X135781401Y-99758966D01*
X135696487Y-100038889D01*
X135667815Y-100330000D01*
X135696487Y-100621111D01*
X135781401Y-100901034D01*
X135919294Y-101159014D01*
X136104866Y-101385134D01*
X136330986Y-101570706D01*
X136385791Y-101600000D01*
X136330986Y-101629294D01*
X136104866Y-101814866D01*
X135919294Y-102040986D01*
X135781401Y-102298966D01*
X135696487Y-102578889D01*
X135667815Y-102870000D01*
X135696487Y-103161111D01*
X135781401Y-103441034D01*
X135919294Y-103699014D01*
X136104866Y-103925134D01*
X136330986Y-104110706D01*
X136385791Y-104140000D01*
X136330986Y-104169294D01*
X136104866Y-104354866D01*
X135919294Y-104580986D01*
X135781401Y-104838966D01*
X135696487Y-105118889D01*
X135667815Y-105410000D01*
X135696487Y-105701111D01*
X135781401Y-105981034D01*
X135919294Y-106239014D01*
X136104866Y-106465134D01*
X136330986Y-106650706D01*
X136385791Y-106680000D01*
X136330986Y-106709294D01*
X136104866Y-106894866D01*
X135919294Y-107120986D01*
X135781401Y-107378966D01*
X135696487Y-107658889D01*
X135667815Y-107950000D01*
X135696487Y-108241111D01*
X135781401Y-108521034D01*
X135919294Y-108779014D01*
X136104866Y-109005134D01*
X136330986Y-109190706D01*
X136385791Y-109220000D01*
X136330986Y-109249294D01*
X136104866Y-109434866D01*
X135919294Y-109660986D01*
X135781401Y-109918966D01*
X135696487Y-110198889D01*
X135667815Y-110490000D01*
X135696487Y-110781111D01*
X135781401Y-111061034D01*
X135919294Y-111319014D01*
X136104866Y-111545134D01*
X136330986Y-111730706D01*
X136385791Y-111760000D01*
X136330986Y-111789294D01*
X136104866Y-111974866D01*
X135919294Y-112200986D01*
X135781401Y-112458966D01*
X135696487Y-112738889D01*
X135667815Y-113030000D01*
X135696487Y-113321111D01*
X135781401Y-113601034D01*
X135919294Y-113859014D01*
X136104866Y-114085134D01*
X136330986Y-114270706D01*
X136588966Y-114408599D01*
X136868889Y-114493513D01*
X137087050Y-114515000D01*
X137232950Y-114515000D01*
X137451111Y-114493513D01*
X137731034Y-114408599D01*
X137989014Y-114270706D01*
X138215134Y-114085134D01*
X138400706Y-113859014D01*
X138538599Y-113601034D01*
X138623513Y-113321111D01*
X138652185Y-113030000D01*
X138623513Y-112738889D01*
X138538599Y-112458966D01*
X138400706Y-112200986D01*
X138215134Y-111974866D01*
X137989014Y-111789294D01*
X137934209Y-111760000D01*
X137989014Y-111730706D01*
X138215134Y-111545134D01*
X138400706Y-111319014D01*
X138538599Y-111061034D01*
X138623513Y-110781111D01*
X138652185Y-110490000D01*
X138623513Y-110198889D01*
X138538599Y-109918966D01*
X138400706Y-109660986D01*
X138215134Y-109434866D01*
X137989014Y-109249294D01*
X137934209Y-109220000D01*
X137989014Y-109190706D01*
X138215134Y-109005134D01*
X138400706Y-108779014D01*
X138538599Y-108521034D01*
X138623513Y-108241111D01*
X138652185Y-107950000D01*
X138623513Y-107658889D01*
X138538599Y-107378966D01*
X138400706Y-107120986D01*
X138215134Y-106894866D01*
X138002060Y-106720000D01*
X183904815Y-106720000D01*
X183933487Y-107011111D01*
X184018401Y-107291034D01*
X184156294Y-107549014D01*
X184341866Y-107775134D01*
X184405337Y-107827223D01*
X184303614Y-107881595D01*
X184169038Y-107992038D01*
X184058595Y-108126614D01*
X183976528Y-108280150D01*
X183925992Y-108446746D01*
X183908928Y-108620000D01*
X183908928Y-109820000D01*
X183925992Y-109993254D01*
X183976528Y-110159850D01*
X184058595Y-110313386D01*
X184169038Y-110447962D01*
X184303614Y-110558405D01*
X184457150Y-110640472D01*
X184623746Y-110691008D01*
X184797000Y-110708072D01*
X186297000Y-110708072D01*
X186470254Y-110691008D01*
X186636850Y-110640472D01*
X186790386Y-110558405D01*
X186924962Y-110447962D01*
X187035405Y-110313386D01*
X187117472Y-110159850D01*
X187168008Y-109993254D01*
X187185072Y-109820000D01*
X187185072Y-108620000D01*
X187168008Y-108446746D01*
X187117472Y-108280150D01*
X187035405Y-108126614D01*
X186924962Y-107992038D01*
X186790386Y-107881595D01*
X186688663Y-107827223D01*
X186752134Y-107775134D01*
X186937706Y-107549014D01*
X187075599Y-107291034D01*
X187160513Y-107011111D01*
X187189185Y-106720000D01*
X187160513Y-106428889D01*
X187075599Y-106148966D01*
X186937706Y-105890986D01*
X186752134Y-105664866D01*
X186526014Y-105479294D01*
X186268034Y-105341401D01*
X185988111Y-105256487D01*
X185769950Y-105235000D01*
X185324050Y-105235000D01*
X185105889Y-105256487D01*
X184825966Y-105341401D01*
X184567986Y-105479294D01*
X184341866Y-105664866D01*
X184156294Y-105890986D01*
X184018401Y-106148966D01*
X183933487Y-106428889D01*
X183904815Y-106720000D01*
X138002060Y-106720000D01*
X137989014Y-106709294D01*
X137934209Y-106680000D01*
X137989014Y-106650706D01*
X138215134Y-106465134D01*
X138400706Y-106239014D01*
X138538599Y-105981034D01*
X138623513Y-105701111D01*
X138652185Y-105410000D01*
X138623513Y-105118889D01*
X138538599Y-104838966D01*
X138400706Y-104580986D01*
X138215134Y-104354866D01*
X137989014Y-104169294D01*
X137934209Y-104140000D01*
X137989014Y-104110706D01*
X138215134Y-103925134D01*
X138400706Y-103699014D01*
X138538599Y-103441034D01*
X138623513Y-103161111D01*
X138652185Y-102870000D01*
X138623513Y-102578889D01*
X138538599Y-102298966D01*
X138400706Y-102040986D01*
X138215134Y-101814866D01*
X137989014Y-101629294D01*
X137934209Y-101600000D01*
X137989014Y-101570706D01*
X138215134Y-101385134D01*
X138400706Y-101159014D01*
X138538599Y-100901034D01*
X138623513Y-100621111D01*
X138652185Y-100330000D01*
X138623513Y-100038889D01*
X138538599Y-99758966D01*
X138400706Y-99500986D01*
X138215134Y-99274866D01*
X137989014Y-99089294D01*
X137934209Y-99060000D01*
X137989014Y-99030706D01*
X138215134Y-98845134D01*
X138400706Y-98619014D01*
X138538599Y-98361034D01*
X138623513Y-98081111D01*
X138652185Y-97790000D01*
X138623513Y-97498889D01*
X138538599Y-97218966D01*
X138400706Y-96960986D01*
X138215134Y-96734866D01*
X137989014Y-96549294D01*
X137934209Y-96520000D01*
X137989014Y-96490706D01*
X138215134Y-96305134D01*
X138400706Y-96079014D01*
X138538599Y-95821034D01*
X138623513Y-95541111D01*
X138652185Y-95250000D01*
X138623513Y-94958889D01*
X138538599Y-94678966D01*
X138400706Y-94420986D01*
X138215134Y-94194866D01*
X137989014Y-94009294D01*
X137934209Y-93980000D01*
X137989014Y-93950706D01*
X138215134Y-93765134D01*
X138400706Y-93539014D01*
X138538599Y-93281034D01*
X138623513Y-93001111D01*
X138652185Y-92710000D01*
X138623513Y-92418889D01*
X138538599Y-92138966D01*
X138400706Y-91880986D01*
X138215134Y-91654866D01*
X138112500Y-91570636D01*
X138112500Y-90068061D01*
X163430000Y-90068061D01*
X163430000Y-90271939D01*
X163469774Y-90471898D01*
X163547795Y-90660256D01*
X163661063Y-90829774D01*
X163805226Y-90973937D01*
X163974744Y-91087205D01*
X164163102Y-91165226D01*
X164363061Y-91205000D01*
X164566939Y-91205000D01*
X164766898Y-91165226D01*
X164955256Y-91087205D01*
X165124774Y-90973937D01*
X165268937Y-90829774D01*
X165382205Y-90660256D01*
X165460226Y-90471898D01*
X165500000Y-90271939D01*
X165500000Y-90068061D01*
X165460226Y-89868102D01*
X165382205Y-89679744D01*
X165268937Y-89510226D01*
X165124774Y-89366063D01*
X164955256Y-89252795D01*
X164766898Y-89174774D01*
X164566939Y-89135000D01*
X164363061Y-89135000D01*
X164163102Y-89174774D01*
X163974744Y-89252795D01*
X163805226Y-89366063D01*
X163661063Y-89510226D01*
X163547795Y-89679744D01*
X163469774Y-89868102D01*
X163430000Y-90068061D01*
X138112500Y-90068061D01*
X138112500Y-89231038D01*
X138951538Y-88392000D01*
X144288715Y-88392000D01*
X144335500Y-88396608D01*
X144382285Y-88392000D01*
X144522223Y-88378217D01*
X144701769Y-88323752D01*
X144867241Y-88235306D01*
X145012278Y-88116278D01*
X145042107Y-88079931D01*
X145212977Y-87909061D01*
X161779000Y-87909061D01*
X161779000Y-88112939D01*
X161818774Y-88312898D01*
X161896795Y-88501256D01*
X162010063Y-88670774D01*
X162154226Y-88814937D01*
X162323744Y-88928205D01*
X162512102Y-89006226D01*
X162712061Y-89046000D01*
X162915939Y-89046000D01*
X163115898Y-89006226D01*
X163304256Y-88928205D01*
X163473774Y-88814937D01*
X163617937Y-88670774D01*
X163731205Y-88501256D01*
X163809226Y-88312898D01*
X163849000Y-88112939D01*
X163849000Y-87909061D01*
X163809226Y-87709102D01*
X163793030Y-87670000D01*
X183904815Y-87670000D01*
X183933487Y-87961111D01*
X184018401Y-88241034D01*
X184156294Y-88499014D01*
X184341866Y-88725134D01*
X184405337Y-88777223D01*
X184303614Y-88831595D01*
X184169038Y-88942038D01*
X184058595Y-89076614D01*
X183976528Y-89230150D01*
X183925992Y-89396746D01*
X183908928Y-89570000D01*
X183908928Y-90770000D01*
X183925992Y-90943254D01*
X183976528Y-91109850D01*
X184058595Y-91263386D01*
X184169038Y-91397962D01*
X184303614Y-91508405D01*
X184457150Y-91590472D01*
X184623746Y-91641008D01*
X184797000Y-91658072D01*
X186297000Y-91658072D01*
X186470254Y-91641008D01*
X186636850Y-91590472D01*
X186790386Y-91508405D01*
X186924962Y-91397962D01*
X187035405Y-91263386D01*
X187117472Y-91109850D01*
X187168008Y-90943254D01*
X187185072Y-90770000D01*
X187185072Y-89570000D01*
X187168008Y-89396746D01*
X187117472Y-89230150D01*
X187035405Y-89076614D01*
X186924962Y-88942038D01*
X186790386Y-88831595D01*
X186688663Y-88777223D01*
X186752134Y-88725134D01*
X186937706Y-88499014D01*
X187075599Y-88241034D01*
X187160513Y-87961111D01*
X187189185Y-87670000D01*
X187160513Y-87378889D01*
X187075599Y-87098966D01*
X186937706Y-86840986D01*
X186752134Y-86614866D01*
X186526014Y-86429294D01*
X186268034Y-86291401D01*
X185988111Y-86206487D01*
X185769950Y-86185000D01*
X185324050Y-86185000D01*
X185105889Y-86206487D01*
X184825966Y-86291401D01*
X184567986Y-86429294D01*
X184341866Y-86614866D01*
X184156294Y-86840986D01*
X184018401Y-87098966D01*
X183933487Y-87378889D01*
X183904815Y-87670000D01*
X163793030Y-87670000D01*
X163731205Y-87520744D01*
X163617937Y-87351226D01*
X163473774Y-87207063D01*
X163304256Y-87093795D01*
X163115898Y-87015774D01*
X162915939Y-86976000D01*
X162712061Y-86976000D01*
X162512102Y-87015774D01*
X162323744Y-87093795D01*
X162154226Y-87207063D01*
X162010063Y-87351226D01*
X161896795Y-87520744D01*
X161818774Y-87709102D01*
X161779000Y-87909061D01*
X145212977Y-87909061D01*
X146863977Y-86258061D01*
X163430000Y-86258061D01*
X163430000Y-86461939D01*
X163469774Y-86661898D01*
X163547795Y-86850256D01*
X163661063Y-87019774D01*
X163805226Y-87163937D01*
X163974744Y-87277205D01*
X164163102Y-87355226D01*
X164363061Y-87395000D01*
X164566939Y-87395000D01*
X164766898Y-87355226D01*
X164955256Y-87277205D01*
X165124774Y-87163937D01*
X165268937Y-87019774D01*
X165382205Y-86850256D01*
X165460226Y-86661898D01*
X165500000Y-86461939D01*
X165500000Y-86258061D01*
X165460226Y-86058102D01*
X165382205Y-85869744D01*
X165268937Y-85700226D01*
X165124774Y-85556063D01*
X164955256Y-85442795D01*
X164766898Y-85364774D01*
X164566939Y-85325000D01*
X164363061Y-85325000D01*
X164163102Y-85364774D01*
X163974744Y-85442795D01*
X163805226Y-85556063D01*
X163661063Y-85700226D01*
X163547795Y-85869744D01*
X163469774Y-86058102D01*
X163430000Y-86258061D01*
X146863977Y-86258061D01*
X149238539Y-83883500D01*
X159530585Y-83883500D01*
X159577370Y-83888108D01*
X159624155Y-83883500D01*
X159764093Y-83869717D01*
X159943639Y-83815252D01*
X160109111Y-83726806D01*
X160254148Y-83607778D01*
X160283977Y-83571431D01*
X161142818Y-82712590D01*
X161326773Y-82835505D01*
X161581010Y-82940814D01*
X161850908Y-82994500D01*
X162126092Y-82994500D01*
X162395990Y-82940814D01*
X162650227Y-82835505D01*
X162879035Y-82682620D01*
X163073620Y-82488035D01*
X163226505Y-82259227D01*
X163331814Y-82004990D01*
X163385500Y-81735092D01*
X163385500Y-81459908D01*
X163331814Y-81190010D01*
X163226505Y-80935773D01*
X163073620Y-80706965D01*
X162879035Y-80512380D01*
X162650227Y-80359495D01*
X162395990Y-80254186D01*
X162126092Y-80200500D01*
X161850908Y-80200500D01*
X161581010Y-80254186D01*
X161326773Y-80359495D01*
X161097965Y-80512380D01*
X160965345Y-80645000D01*
X160957655Y-80645000D01*
X160910870Y-80640392D01*
X160724147Y-80658783D01*
X160544600Y-80713248D01*
X160461865Y-80757471D01*
X160379129Y-80801694D01*
X160234092Y-80920722D01*
X160204267Y-80957064D01*
X159182832Y-81978500D01*
X148890785Y-81978500D01*
X148844000Y-81973892D01*
X148797215Y-81978500D01*
X148657277Y-81992283D01*
X148477731Y-82046748D01*
X148312259Y-82135194D01*
X148167222Y-82254222D01*
X148137398Y-82290563D01*
X143940962Y-86487000D01*
X138603784Y-86487000D01*
X138556999Y-86482392D01*
X138370277Y-86500783D01*
X138190731Y-86555248D01*
X138025259Y-86643694D01*
X137880222Y-86762722D01*
X137850393Y-86799069D01*
X136519569Y-88129893D01*
X136483222Y-88159722D01*
X136364194Y-88304759D01*
X136275748Y-88470232D01*
X136266337Y-88501256D01*
X136221283Y-88649778D01*
X136202892Y-88836500D01*
X136207500Y-88883285D01*
X136207501Y-91570636D01*
X136104866Y-91654866D01*
X135919294Y-91880986D01*
X135781401Y-92138966D01*
X135696487Y-92418889D01*
X135667815Y-92710000D01*
X133477000Y-92710000D01*
X133477000Y-84810000D01*
X138629573Y-84810000D01*
X138659210Y-85110913D01*
X138746983Y-85400261D01*
X138889519Y-85666927D01*
X139081339Y-85900661D01*
X139315073Y-86092481D01*
X139581739Y-86235017D01*
X139871087Y-86322790D01*
X140096592Y-86345000D01*
X142447408Y-86345000D01*
X142672913Y-86322790D01*
X142962261Y-86235017D01*
X143228927Y-86092481D01*
X143462661Y-85900661D01*
X143654481Y-85666927D01*
X143797017Y-85400261D01*
X143884790Y-85110913D01*
X143914427Y-84810000D01*
X143884790Y-84509087D01*
X143797017Y-84219739D01*
X143654481Y-83953073D01*
X143462661Y-83719339D01*
X143228927Y-83527519D01*
X142962261Y-83384983D01*
X142672913Y-83297210D01*
X142447408Y-83275000D01*
X140096592Y-83275000D01*
X139871087Y-83297210D01*
X139581739Y-83384983D01*
X139315073Y-83527519D01*
X139081339Y-83719339D01*
X138889519Y-83953073D01*
X138746983Y-84219739D01*
X138659210Y-84509087D01*
X138629573Y-84810000D01*
X133477000Y-84810000D01*
X133477000Y-77547038D01*
X133744538Y-77279500D01*
X143017461Y-77279500D01*
X142920815Y-77358815D01*
X142841463Y-77455506D01*
X142782498Y-77565820D01*
X142746188Y-77685518D01*
X142733928Y-77810000D01*
X142733928Y-82210000D01*
X142746188Y-82334482D01*
X142782498Y-82454180D01*
X142841463Y-82564494D01*
X142920815Y-82661185D01*
X143017506Y-82740537D01*
X143127820Y-82799502D01*
X143247518Y-82835812D01*
X143372000Y-82848072D01*
X145172000Y-82848072D01*
X145296482Y-82835812D01*
X145416180Y-82799502D01*
X145526494Y-82740537D01*
X145623185Y-82661185D01*
X145702537Y-82564494D01*
X145761502Y-82454180D01*
X145797812Y-82334482D01*
X145810072Y-82210000D01*
X145810072Y-77810000D01*
X145797812Y-77685518D01*
X145761502Y-77565820D01*
X145702537Y-77455506D01*
X145623185Y-77358815D01*
X145526494Y-77279463D01*
X145416180Y-77220498D01*
X145296482Y-77184188D01*
X145228859Y-77177528D01*
X145229108Y-77174999D01*
X145210717Y-76988277D01*
X145156252Y-76808731D01*
X145067806Y-76643259D01*
X144948778Y-76498222D01*
X144912436Y-76468397D01*
X144823947Y-76379908D01*
X160591500Y-76379908D01*
X160591500Y-76655092D01*
X160645186Y-76924990D01*
X160750495Y-77179227D01*
X160903380Y-77408035D01*
X161097965Y-77602620D01*
X161326773Y-77755505D01*
X161581010Y-77860814D01*
X161850908Y-77914500D01*
X162126092Y-77914500D01*
X162395990Y-77860814D01*
X162650227Y-77755505D01*
X162879035Y-77602620D01*
X163073620Y-77408035D01*
X163226505Y-77179227D01*
X163331814Y-76924990D01*
X163385500Y-76655092D01*
X163385500Y-76379908D01*
X163331814Y-76110010D01*
X163226505Y-75855773D01*
X163073620Y-75626965D01*
X162879035Y-75432380D01*
X162650227Y-75279495D01*
X162395990Y-75174186D01*
X162126092Y-75120500D01*
X161850908Y-75120500D01*
X161581010Y-75174186D01*
X161326773Y-75279495D01*
X161097965Y-75432380D01*
X160903380Y-75626965D01*
X160750495Y-75855773D01*
X160645186Y-76110010D01*
X160591500Y-76379908D01*
X144823947Y-76379908D01*
X144130607Y-75686569D01*
X144100778Y-75650222D01*
X143955741Y-75531194D01*
X143790269Y-75442748D01*
X143610723Y-75388283D01*
X143470785Y-75374500D01*
X143424000Y-75369892D01*
X143377215Y-75374500D01*
X133396784Y-75374500D01*
X133349999Y-75369892D01*
X133163277Y-75388283D01*
X132983731Y-75442748D01*
X132818259Y-75531194D01*
X132673222Y-75650222D01*
X132643393Y-75686569D01*
X131884069Y-76445893D01*
X131847722Y-76475722D01*
X131728694Y-76620759D01*
X131640248Y-76786232D01*
X131618253Y-76858740D01*
X131585783Y-76965778D01*
X131567392Y-77152500D01*
X130835000Y-77152500D01*
X130835000Y-74962277D01*
X130861815Y-74688796D01*
X130931867Y-74456774D01*
X131045650Y-74242778D01*
X131198832Y-74054959D01*
X131385577Y-73900470D01*
X131598769Y-73785199D01*
X131830300Y-73713528D01*
X132101725Y-73685000D01*
X191737723Y-73685000D01*
X192011204Y-73711815D01*
M02*
