G04 #@! TF.GenerationSoftware,KiCad,Pcbnew,(5.1.4)-1*
G04 #@! TF.CreationDate,2020-10-30T07:47:57-05:00*
G04 #@! TF.ProjectId,TAS5806M_Breakout_Hardware,54415335-3830-4364-9d5f-427265616b6f,rev?*
G04 #@! TF.SameCoordinates,Original*
G04 #@! TF.FileFunction,Soldermask,Top*
G04 #@! TF.FilePolarity,Negative*
%FSLAX46Y46*%
G04 Gerber Fmt 4.6, Leading zero omitted, Abs format (unit mm)*
G04 Created by KiCad (PCBNEW (5.1.4)-1) date 2020-10-30 07:47:57*
%MOMM*%
%LPD*%
G04 APERTURE LIST*
%ADD10C,0.100000*%
G04 APERTURE END LIST*
D10*
G36*
X138061000Y-116471000D02*
G01*
X136259000Y-116471000D01*
X136259000Y-114669000D01*
X138061000Y-114669000D01*
X138061000Y-116471000D01*
X138061000Y-116471000D01*
G37*
G36*
X173096000Y-114281000D02*
G01*
X171494000Y-114281000D01*
X171494000Y-111779000D01*
X173096000Y-111779000D01*
X173096000Y-114281000D01*
X173096000Y-114281000D01*
G37*
G36*
X167596000Y-114281000D02*
G01*
X165994000Y-114281000D01*
X165994000Y-111779000D01*
X167596000Y-111779000D01*
X167596000Y-114281000D01*
X167596000Y-114281000D01*
G37*
G36*
X137270443Y-112135519D02*
G01*
X137336627Y-112142037D01*
X137506466Y-112193557D01*
X137662991Y-112277222D01*
X137698729Y-112306552D01*
X137800186Y-112389814D01*
X137883448Y-112491271D01*
X137912778Y-112527009D01*
X137996443Y-112683534D01*
X138047963Y-112853373D01*
X138065359Y-113030000D01*
X138047963Y-113206627D01*
X137996443Y-113376466D01*
X137912778Y-113532991D01*
X137883448Y-113568729D01*
X137800186Y-113670186D01*
X137698729Y-113753448D01*
X137662991Y-113782778D01*
X137506466Y-113866443D01*
X137336627Y-113917963D01*
X137270443Y-113924481D01*
X137204260Y-113931000D01*
X137115740Y-113931000D01*
X137049557Y-113924481D01*
X136983373Y-113917963D01*
X136813534Y-113866443D01*
X136657009Y-113782778D01*
X136621271Y-113753448D01*
X136519814Y-113670186D01*
X136436552Y-113568729D01*
X136407222Y-113532991D01*
X136323557Y-113376466D01*
X136272037Y-113206627D01*
X136254641Y-113030000D01*
X136272037Y-112853373D01*
X136323557Y-112683534D01*
X136407222Y-112527009D01*
X136436552Y-112491271D01*
X136519814Y-112389814D01*
X136621271Y-112306552D01*
X136657009Y-112277222D01*
X136813534Y-112193557D01*
X136983373Y-112142037D01*
X137049557Y-112135519D01*
X137115740Y-112129000D01*
X137204260Y-112129000D01*
X137270443Y-112135519D01*
X137270443Y-112135519D01*
G37*
G36*
X154582399Y-110641545D02*
G01*
X154619895Y-110652920D01*
X154654454Y-110671392D01*
X154684747Y-110696253D01*
X154709608Y-110726546D01*
X154728080Y-110761105D01*
X154739455Y-110798601D01*
X154743900Y-110843738D01*
X154743900Y-111482462D01*
X154739455Y-111527599D01*
X154728080Y-111565095D01*
X154709608Y-111599654D01*
X154684747Y-111629947D01*
X154654454Y-111654808D01*
X154619895Y-111673280D01*
X154582399Y-111684655D01*
X154537262Y-111689100D01*
X153798538Y-111689100D01*
X153753401Y-111684655D01*
X153715905Y-111673280D01*
X153681346Y-111654808D01*
X153651053Y-111629947D01*
X153626192Y-111599654D01*
X153607720Y-111565095D01*
X153596345Y-111527599D01*
X153591900Y-111482462D01*
X153591900Y-110843738D01*
X153596345Y-110798601D01*
X153607720Y-110761105D01*
X153626192Y-110726546D01*
X153651053Y-110696253D01*
X153681346Y-110671392D01*
X153715905Y-110652920D01*
X153753401Y-110641545D01*
X153798538Y-110637100D01*
X154537262Y-110637100D01*
X154582399Y-110641545D01*
X154582399Y-110641545D01*
G37*
G36*
X156332399Y-110641545D02*
G01*
X156369895Y-110652920D01*
X156404454Y-110671392D01*
X156434747Y-110696253D01*
X156459608Y-110726546D01*
X156478080Y-110761105D01*
X156489455Y-110798601D01*
X156493900Y-110843738D01*
X156493900Y-111482462D01*
X156489455Y-111527599D01*
X156478080Y-111565095D01*
X156459608Y-111599654D01*
X156434747Y-111629947D01*
X156404454Y-111654808D01*
X156369895Y-111673280D01*
X156332399Y-111684655D01*
X156287262Y-111689100D01*
X155548538Y-111689100D01*
X155503401Y-111684655D01*
X155465905Y-111673280D01*
X155431346Y-111654808D01*
X155401053Y-111629947D01*
X155376192Y-111599654D01*
X155357720Y-111565095D01*
X155346345Y-111527599D01*
X155341900Y-111482462D01*
X155341900Y-110843738D01*
X155346345Y-110798601D01*
X155357720Y-110761105D01*
X155376192Y-110726546D01*
X155401053Y-110696253D01*
X155431346Y-110671392D01*
X155465905Y-110652920D01*
X155503401Y-110641545D01*
X155548538Y-110637100D01*
X156287262Y-110637100D01*
X156332399Y-110641545D01*
X156332399Y-110641545D01*
G37*
G36*
X175687999Y-110299445D02*
G01*
X175725495Y-110310820D01*
X175760054Y-110329292D01*
X175790347Y-110354153D01*
X175815208Y-110384446D01*
X175833680Y-110419005D01*
X175845055Y-110456501D01*
X175849500Y-110501638D01*
X175849500Y-111240362D01*
X175845055Y-111285499D01*
X175833680Y-111322995D01*
X175815208Y-111357554D01*
X175790347Y-111387847D01*
X175760054Y-111412708D01*
X175725495Y-111431180D01*
X175687999Y-111442555D01*
X175642862Y-111447000D01*
X175004138Y-111447000D01*
X174959001Y-111442555D01*
X174921505Y-111431180D01*
X174886946Y-111412708D01*
X174856653Y-111387847D01*
X174831792Y-111357554D01*
X174813320Y-111322995D01*
X174801945Y-111285499D01*
X174797500Y-111240362D01*
X174797500Y-110501638D01*
X174801945Y-110456501D01*
X174813320Y-110419005D01*
X174831792Y-110384446D01*
X174856653Y-110354153D01*
X174886946Y-110329292D01*
X174921505Y-110310820D01*
X174959001Y-110299445D01*
X175004138Y-110295000D01*
X175642862Y-110295000D01*
X175687999Y-110299445D01*
X175687999Y-110299445D01*
G37*
G36*
X178608999Y-110299445D02*
G01*
X178646495Y-110310820D01*
X178681054Y-110329292D01*
X178711347Y-110354153D01*
X178736208Y-110384446D01*
X178754680Y-110419005D01*
X178766055Y-110456501D01*
X178770500Y-110501638D01*
X178770500Y-111240362D01*
X178766055Y-111285499D01*
X178754680Y-111322995D01*
X178736208Y-111357554D01*
X178711347Y-111387847D01*
X178681054Y-111412708D01*
X178646495Y-111431180D01*
X178608999Y-111442555D01*
X178563862Y-111447000D01*
X177925138Y-111447000D01*
X177880001Y-111442555D01*
X177842505Y-111431180D01*
X177807946Y-111412708D01*
X177777653Y-111387847D01*
X177752792Y-111357554D01*
X177734320Y-111322995D01*
X177722945Y-111285499D01*
X177718500Y-111240362D01*
X177718500Y-110501638D01*
X177722945Y-110456501D01*
X177734320Y-110419005D01*
X177752792Y-110384446D01*
X177777653Y-110354153D01*
X177807946Y-110329292D01*
X177842505Y-110310820D01*
X177880001Y-110299445D01*
X177925138Y-110295000D01*
X178563862Y-110295000D01*
X178608999Y-110299445D01*
X178608999Y-110299445D01*
G37*
G36*
X137270442Y-109595518D02*
G01*
X137336627Y-109602037D01*
X137506466Y-109653557D01*
X137662991Y-109737222D01*
X137691037Y-109760239D01*
X137800186Y-109849814D01*
X137847690Y-109907699D01*
X137912778Y-109987009D01*
X137912779Y-109987011D01*
X137981677Y-110115908D01*
X137996443Y-110143534D01*
X138047963Y-110313373D01*
X138065359Y-110490000D01*
X138047963Y-110666627D01*
X137996443Y-110836466D01*
X137912778Y-110992991D01*
X137883448Y-111028729D01*
X137800186Y-111130186D01*
X137734612Y-111184000D01*
X137662991Y-111242778D01*
X137506466Y-111326443D01*
X137336627Y-111377963D01*
X137270443Y-111384481D01*
X137204260Y-111391000D01*
X137115740Y-111391000D01*
X137049557Y-111384481D01*
X136983373Y-111377963D01*
X136813534Y-111326443D01*
X136657009Y-111242778D01*
X136585388Y-111184000D01*
X136519814Y-111130186D01*
X136436552Y-111028729D01*
X136407222Y-110992991D01*
X136323557Y-110836466D01*
X136272037Y-110666627D01*
X136254641Y-110490000D01*
X136272037Y-110313373D01*
X136323557Y-110143534D01*
X136338324Y-110115908D01*
X136407221Y-109987011D01*
X136407222Y-109987009D01*
X136472310Y-109907699D01*
X136519814Y-109849814D01*
X136628963Y-109760239D01*
X136657009Y-109737222D01*
X136813534Y-109653557D01*
X136983373Y-109602037D01*
X137049558Y-109595518D01*
X137115740Y-109589000D01*
X137204260Y-109589000D01*
X137270442Y-109595518D01*
X137270442Y-109595518D01*
G37*
G36*
X186455600Y-108322989D02*
G01*
X186488652Y-108333015D01*
X186519103Y-108349292D01*
X186545799Y-108371201D01*
X186567708Y-108397897D01*
X186583985Y-108428348D01*
X186594011Y-108461400D01*
X186598000Y-108501903D01*
X186598000Y-109938097D01*
X186594011Y-109978600D01*
X186583985Y-110011652D01*
X186567708Y-110042103D01*
X186545799Y-110068799D01*
X186519103Y-110090708D01*
X186488652Y-110106985D01*
X186455600Y-110117011D01*
X186415097Y-110121000D01*
X184678903Y-110121000D01*
X184638400Y-110117011D01*
X184605348Y-110106985D01*
X184574897Y-110090708D01*
X184548201Y-110068799D01*
X184526292Y-110042103D01*
X184510015Y-110011652D01*
X184499989Y-109978600D01*
X184496000Y-109938097D01*
X184496000Y-108501903D01*
X184499989Y-108461400D01*
X184510015Y-108428348D01*
X184526292Y-108397897D01*
X184548201Y-108371201D01*
X184574897Y-108349292D01*
X184605348Y-108333015D01*
X184638400Y-108322989D01*
X184678903Y-108319000D01*
X186415097Y-108319000D01*
X186455600Y-108322989D01*
X186455600Y-108322989D01*
G37*
G36*
X153568662Y-108031481D02*
G01*
X153603581Y-108042074D01*
X153635763Y-108059276D01*
X153663973Y-108082427D01*
X153687124Y-108110637D01*
X153704326Y-108142819D01*
X153714919Y-108177738D01*
X153719100Y-108220195D01*
X153719100Y-109686405D01*
X153714919Y-109728862D01*
X153704326Y-109763781D01*
X153687124Y-109795963D01*
X153663973Y-109824173D01*
X153635763Y-109847324D01*
X153603581Y-109864526D01*
X153568662Y-109875119D01*
X153526205Y-109879300D01*
X152384995Y-109879300D01*
X152342538Y-109875119D01*
X152307619Y-109864526D01*
X152275437Y-109847324D01*
X152247227Y-109824173D01*
X152224076Y-109795963D01*
X152206874Y-109763781D01*
X152196281Y-109728862D01*
X152192100Y-109686405D01*
X152192100Y-108220195D01*
X152196281Y-108177738D01*
X152206874Y-108142819D01*
X152224076Y-108110637D01*
X152247227Y-108082427D01*
X152275437Y-108059276D01*
X152307619Y-108042074D01*
X152342538Y-108031481D01*
X152384995Y-108027300D01*
X153526205Y-108027300D01*
X153568662Y-108031481D01*
X153568662Y-108031481D01*
G37*
G36*
X156543662Y-108031481D02*
G01*
X156578581Y-108042074D01*
X156610763Y-108059276D01*
X156638973Y-108082427D01*
X156662124Y-108110637D01*
X156679326Y-108142819D01*
X156689919Y-108177738D01*
X156694100Y-108220195D01*
X156694100Y-109686405D01*
X156689919Y-109728862D01*
X156679326Y-109763781D01*
X156662124Y-109795963D01*
X156638973Y-109824173D01*
X156610763Y-109847324D01*
X156578581Y-109864526D01*
X156543662Y-109875119D01*
X156501205Y-109879300D01*
X155359995Y-109879300D01*
X155317538Y-109875119D01*
X155282619Y-109864526D01*
X155250437Y-109847324D01*
X155222227Y-109824173D01*
X155199076Y-109795963D01*
X155181874Y-109763781D01*
X155171281Y-109728862D01*
X155167100Y-109686405D01*
X155167100Y-108220195D01*
X155171281Y-108177738D01*
X155181874Y-108142819D01*
X155199076Y-108110637D01*
X155222227Y-108082427D01*
X155250437Y-108059276D01*
X155282619Y-108042074D01*
X155317538Y-108031481D01*
X155359995Y-108027300D01*
X156501205Y-108027300D01*
X156543662Y-108031481D01*
X156543662Y-108031481D01*
G37*
G36*
X175687999Y-108549445D02*
G01*
X175725495Y-108560820D01*
X175760054Y-108579292D01*
X175790347Y-108604153D01*
X175815208Y-108634446D01*
X175833680Y-108669005D01*
X175845055Y-108706501D01*
X175849500Y-108751638D01*
X175849500Y-109490362D01*
X175845055Y-109535499D01*
X175833680Y-109572995D01*
X175815208Y-109607554D01*
X175790347Y-109637847D01*
X175760054Y-109662708D01*
X175725495Y-109681180D01*
X175687999Y-109692555D01*
X175642862Y-109697000D01*
X175004138Y-109697000D01*
X174959001Y-109692555D01*
X174921505Y-109681180D01*
X174886946Y-109662708D01*
X174856653Y-109637847D01*
X174831792Y-109607554D01*
X174813320Y-109572995D01*
X174801945Y-109535499D01*
X174797500Y-109490362D01*
X174797500Y-108751638D01*
X174801945Y-108706501D01*
X174813320Y-108669005D01*
X174831792Y-108634446D01*
X174856653Y-108604153D01*
X174886946Y-108579292D01*
X174921505Y-108560820D01*
X174959001Y-108549445D01*
X175004138Y-108545000D01*
X175642862Y-108545000D01*
X175687999Y-108549445D01*
X175687999Y-108549445D01*
G37*
G36*
X178608999Y-108549445D02*
G01*
X178646495Y-108560820D01*
X178681054Y-108579292D01*
X178711347Y-108604153D01*
X178736208Y-108634446D01*
X178754680Y-108669005D01*
X178766055Y-108706501D01*
X178770500Y-108751638D01*
X178770500Y-109490362D01*
X178766055Y-109535499D01*
X178754680Y-109572995D01*
X178736208Y-109607554D01*
X178711347Y-109637847D01*
X178681054Y-109662708D01*
X178646495Y-109681180D01*
X178608999Y-109692555D01*
X178563862Y-109697000D01*
X177925138Y-109697000D01*
X177880001Y-109692555D01*
X177842505Y-109681180D01*
X177807946Y-109662708D01*
X177777653Y-109637847D01*
X177752792Y-109607554D01*
X177734320Y-109572995D01*
X177722945Y-109535499D01*
X177718500Y-109490362D01*
X177718500Y-108751638D01*
X177722945Y-108706501D01*
X177734320Y-108669005D01*
X177752792Y-108634446D01*
X177777653Y-108604153D01*
X177807946Y-108579292D01*
X177842505Y-108560820D01*
X177880001Y-108549445D01*
X177925138Y-108545000D01*
X178563862Y-108545000D01*
X178608999Y-108549445D01*
X178608999Y-108549445D01*
G37*
G36*
X137270442Y-107055518D02*
G01*
X137336627Y-107062037D01*
X137506466Y-107113557D01*
X137662991Y-107197222D01*
X137674920Y-107207012D01*
X137800186Y-107309814D01*
X137883448Y-107411271D01*
X137912778Y-107447009D01*
X137996443Y-107603534D01*
X138047963Y-107773373D01*
X138065359Y-107950000D01*
X138047963Y-108126627D01*
X137996443Y-108296466D01*
X137996442Y-108296468D01*
X137976907Y-108333015D01*
X137912778Y-108452991D01*
X137888487Y-108482589D01*
X137800186Y-108590186D01*
X137712819Y-108661885D01*
X137662991Y-108702778D01*
X137506466Y-108786443D01*
X137336627Y-108837963D01*
X137270442Y-108844482D01*
X137204260Y-108851000D01*
X137115740Y-108851000D01*
X137049558Y-108844482D01*
X136983373Y-108837963D01*
X136813534Y-108786443D01*
X136657009Y-108702778D01*
X136607181Y-108661885D01*
X136519814Y-108590186D01*
X136431513Y-108482589D01*
X136407222Y-108452991D01*
X136343093Y-108333015D01*
X136323558Y-108296468D01*
X136323557Y-108296466D01*
X136272037Y-108126627D01*
X136254641Y-107950000D01*
X136272037Y-107773373D01*
X136323557Y-107603534D01*
X136407222Y-107447009D01*
X136436552Y-107411271D01*
X136519814Y-107309814D01*
X136645080Y-107207012D01*
X136657009Y-107197222D01*
X136813534Y-107113557D01*
X136983373Y-107062037D01*
X137049558Y-107055518D01*
X137115740Y-107049000D01*
X137204260Y-107049000D01*
X137270442Y-107055518D01*
X137270442Y-107055518D01*
G37*
G36*
X185807443Y-105825519D02*
G01*
X185873627Y-105832037D01*
X186043466Y-105883557D01*
X186199991Y-105967222D01*
X186233905Y-105995055D01*
X186337186Y-106079814D01*
X186408762Y-106167031D01*
X186449778Y-106217009D01*
X186468670Y-106252354D01*
X186529951Y-106367000D01*
X186533443Y-106373534D01*
X186584963Y-106543373D01*
X186602359Y-106720000D01*
X186584963Y-106896627D01*
X186533443Y-107066466D01*
X186449778Y-107222991D01*
X186426835Y-107250947D01*
X186337186Y-107360186D01*
X186235729Y-107443448D01*
X186199991Y-107472778D01*
X186043466Y-107556443D01*
X185873627Y-107607963D01*
X185807443Y-107614481D01*
X185741260Y-107621000D01*
X185352740Y-107621000D01*
X185286557Y-107614481D01*
X185220373Y-107607963D01*
X185050534Y-107556443D01*
X184894009Y-107472778D01*
X184858271Y-107443448D01*
X184756814Y-107360186D01*
X184667165Y-107250947D01*
X184644222Y-107222991D01*
X184560557Y-107066466D01*
X184509037Y-106896627D01*
X184491641Y-106720000D01*
X184509037Y-106543373D01*
X184560557Y-106373534D01*
X184564050Y-106367000D01*
X184625330Y-106252354D01*
X184644222Y-106217009D01*
X184685238Y-106167031D01*
X184756814Y-106079814D01*
X184860095Y-105995055D01*
X184894009Y-105967222D01*
X185050534Y-105883557D01*
X185220373Y-105832037D01*
X185286557Y-105825519D01*
X185352740Y-105819000D01*
X185741260Y-105819000D01*
X185807443Y-105825519D01*
X185807443Y-105825519D01*
G37*
G36*
X178608999Y-106108445D02*
G01*
X178646495Y-106119820D01*
X178681054Y-106138292D01*
X178711347Y-106163153D01*
X178736208Y-106193446D01*
X178754680Y-106228005D01*
X178766055Y-106265501D01*
X178770500Y-106310638D01*
X178770500Y-107049362D01*
X178766055Y-107094499D01*
X178754680Y-107131995D01*
X178736208Y-107166554D01*
X178711347Y-107196847D01*
X178681054Y-107221708D01*
X178646495Y-107240180D01*
X178608999Y-107251555D01*
X178563862Y-107256000D01*
X177925138Y-107256000D01*
X177880001Y-107251555D01*
X177842505Y-107240180D01*
X177807946Y-107221708D01*
X177777653Y-107196847D01*
X177752792Y-107166554D01*
X177734320Y-107131995D01*
X177722945Y-107094499D01*
X177718500Y-107049362D01*
X177718500Y-106310638D01*
X177722945Y-106265501D01*
X177734320Y-106228005D01*
X177752792Y-106193446D01*
X177777653Y-106163153D01*
X177807946Y-106138292D01*
X177842505Y-106119820D01*
X177880001Y-106108445D01*
X177925138Y-106104000D01*
X178563862Y-106104000D01*
X178608999Y-106108445D01*
X178608999Y-106108445D01*
G37*
G36*
X175687999Y-106094445D02*
G01*
X175725495Y-106105820D01*
X175760054Y-106124292D01*
X175790347Y-106149153D01*
X175815208Y-106179446D01*
X175833680Y-106214005D01*
X175845055Y-106251501D01*
X175849500Y-106296638D01*
X175849500Y-107035362D01*
X175845055Y-107080499D01*
X175833680Y-107117995D01*
X175815208Y-107152554D01*
X175790347Y-107182847D01*
X175760054Y-107207708D01*
X175725495Y-107226180D01*
X175687999Y-107237555D01*
X175642862Y-107242000D01*
X175004138Y-107242000D01*
X174959001Y-107237555D01*
X174921505Y-107226180D01*
X174886946Y-107207708D01*
X174856653Y-107182847D01*
X174831792Y-107152554D01*
X174813320Y-107117995D01*
X174801945Y-107080499D01*
X174797500Y-107035362D01*
X174797500Y-106296638D01*
X174801945Y-106251501D01*
X174813320Y-106214005D01*
X174831792Y-106179446D01*
X174856653Y-106149153D01*
X174886946Y-106124292D01*
X174921505Y-106105820D01*
X174959001Y-106094445D01*
X175004138Y-106090000D01*
X175642862Y-106090000D01*
X175687999Y-106094445D01*
X175687999Y-106094445D01*
G37*
G36*
X152871636Y-105844981D02*
G01*
X152909132Y-105856356D01*
X152943691Y-105874828D01*
X152978755Y-105903604D01*
X153430396Y-106355245D01*
X153459172Y-106390309D01*
X153477644Y-106424868D01*
X153489019Y-106462364D01*
X153492859Y-106501363D01*
X153489019Y-106540362D01*
X153477644Y-106577858D01*
X153459172Y-106612417D01*
X153430396Y-106647481D01*
X152908045Y-107169832D01*
X152872981Y-107198608D01*
X152838422Y-107217080D01*
X152800926Y-107228455D01*
X152761927Y-107232295D01*
X152722928Y-107228455D01*
X152685432Y-107217080D01*
X152650873Y-107198608D01*
X152615809Y-107169832D01*
X152164168Y-106718191D01*
X152135392Y-106683127D01*
X152116920Y-106648568D01*
X152105545Y-106611072D01*
X152101705Y-106572073D01*
X152105545Y-106533074D01*
X152116920Y-106495578D01*
X152135392Y-106461019D01*
X152164168Y-106425955D01*
X152686519Y-105903604D01*
X152721583Y-105874828D01*
X152756142Y-105856356D01*
X152793638Y-105844981D01*
X152832637Y-105841141D01*
X152871636Y-105844981D01*
X152871636Y-105844981D01*
G37*
G36*
X134412999Y-105713445D02*
G01*
X134450495Y-105724820D01*
X134485054Y-105743292D01*
X134515347Y-105768153D01*
X134540208Y-105798446D01*
X134558680Y-105833005D01*
X134570055Y-105870501D01*
X134574500Y-105915638D01*
X134574500Y-106654362D01*
X134570055Y-106699499D01*
X134558680Y-106736995D01*
X134540208Y-106771554D01*
X134515347Y-106801847D01*
X134485054Y-106826708D01*
X134450495Y-106845180D01*
X134412999Y-106856555D01*
X134367862Y-106861000D01*
X133729138Y-106861000D01*
X133684001Y-106856555D01*
X133646505Y-106845180D01*
X133611946Y-106826708D01*
X133581653Y-106801847D01*
X133556792Y-106771554D01*
X133538320Y-106736995D01*
X133526945Y-106699499D01*
X133522500Y-106654362D01*
X133522500Y-105915638D01*
X133526945Y-105870501D01*
X133538320Y-105833005D01*
X133556792Y-105798446D01*
X133581653Y-105768153D01*
X133611946Y-105743292D01*
X133646505Y-105724820D01*
X133684001Y-105713445D01*
X133729138Y-105709000D01*
X134367862Y-105709000D01*
X134412999Y-105713445D01*
X134412999Y-105713445D01*
G37*
G36*
X132507999Y-105699445D02*
G01*
X132545495Y-105710820D01*
X132580054Y-105729292D01*
X132610347Y-105754153D01*
X132635208Y-105784446D01*
X132653680Y-105819005D01*
X132665055Y-105856501D01*
X132669500Y-105901638D01*
X132669500Y-106640362D01*
X132665055Y-106685499D01*
X132653680Y-106722995D01*
X132635208Y-106757554D01*
X132610347Y-106787847D01*
X132580054Y-106812708D01*
X132545495Y-106831180D01*
X132507999Y-106842555D01*
X132462862Y-106847000D01*
X131824138Y-106847000D01*
X131779001Y-106842555D01*
X131741505Y-106831180D01*
X131706946Y-106812708D01*
X131676653Y-106787847D01*
X131651792Y-106757554D01*
X131633320Y-106722995D01*
X131621945Y-106685499D01*
X131617500Y-106640362D01*
X131617500Y-105901638D01*
X131621945Y-105856501D01*
X131633320Y-105819005D01*
X131651792Y-105784446D01*
X131676653Y-105754153D01*
X131706946Y-105729292D01*
X131741505Y-105710820D01*
X131779001Y-105699445D01*
X131824138Y-105695000D01*
X132462862Y-105695000D01*
X132507999Y-105699445D01*
X132507999Y-105699445D01*
G37*
G36*
X137270265Y-104515501D02*
G01*
X137336627Y-104522037D01*
X137506466Y-104573557D01*
X137662991Y-104657222D01*
X137682595Y-104673311D01*
X137800186Y-104769814D01*
X137883448Y-104871271D01*
X137912778Y-104907009D01*
X137912779Y-104907011D01*
X137996002Y-105062708D01*
X137996443Y-105063534D01*
X138047963Y-105233373D01*
X138065359Y-105410000D01*
X138047963Y-105586627D01*
X137996443Y-105756466D01*
X137912778Y-105912991D01*
X137890327Y-105940347D01*
X137800186Y-106050186D01*
X137709886Y-106124292D01*
X137662991Y-106162778D01*
X137506466Y-106246443D01*
X137336627Y-106297963D01*
X137298775Y-106301691D01*
X137204260Y-106311000D01*
X137115740Y-106311000D01*
X137021225Y-106301691D01*
X136983373Y-106297963D01*
X136813534Y-106246443D01*
X136657009Y-106162778D01*
X136610114Y-106124292D01*
X136519814Y-106050186D01*
X136429673Y-105940347D01*
X136407222Y-105912991D01*
X136323557Y-105756466D01*
X136272037Y-105586627D01*
X136254641Y-105410000D01*
X136272037Y-105233373D01*
X136323557Y-105063534D01*
X136323999Y-105062708D01*
X136407221Y-104907011D01*
X136407222Y-104907009D01*
X136436552Y-104871271D01*
X136519814Y-104769814D01*
X136637405Y-104673311D01*
X136657009Y-104657222D01*
X136813534Y-104573557D01*
X136983373Y-104522037D01*
X137049735Y-104515501D01*
X137115740Y-104509000D01*
X137204260Y-104509000D01*
X137270265Y-104515501D01*
X137270265Y-104515501D01*
G37*
G36*
X159051499Y-104951945D02*
G01*
X159088995Y-104963320D01*
X159123554Y-104981792D01*
X159153847Y-105006653D01*
X159178708Y-105036946D01*
X159197180Y-105071505D01*
X159208555Y-105109001D01*
X159213000Y-105154138D01*
X159213000Y-105792862D01*
X159208555Y-105837999D01*
X159197180Y-105875495D01*
X159178708Y-105910054D01*
X159153847Y-105940347D01*
X159123554Y-105965208D01*
X159088995Y-105983680D01*
X159051499Y-105995055D01*
X159006362Y-105999500D01*
X158267638Y-105999500D01*
X158222501Y-105995055D01*
X158185005Y-105983680D01*
X158150446Y-105965208D01*
X158120153Y-105940347D01*
X158095292Y-105910054D01*
X158076820Y-105875495D01*
X158065445Y-105837999D01*
X158061000Y-105792862D01*
X158061000Y-105154138D01*
X158065445Y-105109001D01*
X158076820Y-105071505D01*
X158095292Y-105036946D01*
X158120153Y-105006653D01*
X158150446Y-104981792D01*
X158185005Y-104963320D01*
X158222501Y-104951945D01*
X158267638Y-104947500D01*
X159006362Y-104947500D01*
X159051499Y-104951945D01*
X159051499Y-104951945D01*
G37*
G36*
X160801499Y-104951945D02*
G01*
X160838995Y-104963320D01*
X160873554Y-104981792D01*
X160903847Y-105006653D01*
X160928708Y-105036946D01*
X160947180Y-105071505D01*
X160958555Y-105109001D01*
X160963000Y-105154138D01*
X160963000Y-105792862D01*
X160958555Y-105837999D01*
X160947180Y-105875495D01*
X160928708Y-105910054D01*
X160903847Y-105940347D01*
X160873554Y-105965208D01*
X160838995Y-105983680D01*
X160801499Y-105995055D01*
X160756362Y-105999500D01*
X160017638Y-105999500D01*
X159972501Y-105995055D01*
X159935005Y-105983680D01*
X159900446Y-105965208D01*
X159870153Y-105940347D01*
X159845292Y-105910054D01*
X159826820Y-105875495D01*
X159815445Y-105837999D01*
X159811000Y-105792862D01*
X159811000Y-105154138D01*
X159815445Y-105109001D01*
X159826820Y-105071505D01*
X159845292Y-105036946D01*
X159870153Y-105006653D01*
X159900446Y-104981792D01*
X159935005Y-104963320D01*
X159972501Y-104951945D01*
X160017638Y-104947500D01*
X160756362Y-104947500D01*
X160801499Y-104951945D01*
X160801499Y-104951945D01*
G37*
G36*
X154109072Y-104607545D02*
G01*
X154146568Y-104618920D01*
X154181127Y-104637392D01*
X154216191Y-104666168D01*
X154667832Y-105117809D01*
X154696608Y-105152873D01*
X154715080Y-105187432D01*
X154726455Y-105224928D01*
X154730295Y-105263927D01*
X154726455Y-105302926D01*
X154715080Y-105340422D01*
X154696608Y-105374981D01*
X154667832Y-105410045D01*
X154145481Y-105932396D01*
X154110417Y-105961172D01*
X154075858Y-105979644D01*
X154038362Y-105991019D01*
X153999363Y-105994859D01*
X153960364Y-105991019D01*
X153922868Y-105979644D01*
X153888309Y-105961172D01*
X153853245Y-105932396D01*
X153401604Y-105480755D01*
X153372828Y-105445691D01*
X153354356Y-105411132D01*
X153342981Y-105373636D01*
X153339141Y-105334637D01*
X153342981Y-105295638D01*
X153354356Y-105258142D01*
X153372828Y-105223583D01*
X153401604Y-105188519D01*
X153923955Y-104666168D01*
X153959019Y-104637392D01*
X153993578Y-104618920D01*
X154031074Y-104607545D01*
X154070073Y-104603705D01*
X154109072Y-104607545D01*
X154109072Y-104607545D01*
G37*
G36*
X178608999Y-104358445D02*
G01*
X178646495Y-104369820D01*
X178681054Y-104388292D01*
X178711347Y-104413153D01*
X178736208Y-104443446D01*
X178754680Y-104478005D01*
X178766055Y-104515501D01*
X178770500Y-104560638D01*
X178770500Y-105299362D01*
X178766055Y-105344499D01*
X178754680Y-105381995D01*
X178736208Y-105416554D01*
X178711347Y-105446847D01*
X178681054Y-105471708D01*
X178646495Y-105490180D01*
X178608999Y-105501555D01*
X178563862Y-105506000D01*
X177925138Y-105506000D01*
X177880001Y-105501555D01*
X177842505Y-105490180D01*
X177807946Y-105471708D01*
X177777653Y-105446847D01*
X177752792Y-105416554D01*
X177734320Y-105381995D01*
X177722945Y-105344499D01*
X177718500Y-105299362D01*
X177718500Y-104560638D01*
X177722945Y-104515501D01*
X177734320Y-104478005D01*
X177752792Y-104443446D01*
X177777653Y-104413153D01*
X177807946Y-104388292D01*
X177842505Y-104369820D01*
X177880001Y-104358445D01*
X177925138Y-104354000D01*
X178563862Y-104354000D01*
X178608999Y-104358445D01*
X178608999Y-104358445D01*
G37*
G36*
X175687999Y-104344445D02*
G01*
X175725495Y-104355820D01*
X175760054Y-104374292D01*
X175790347Y-104399153D01*
X175815208Y-104429446D01*
X175833680Y-104464005D01*
X175845055Y-104501501D01*
X175849500Y-104546638D01*
X175849500Y-105285362D01*
X175845055Y-105330499D01*
X175833680Y-105367995D01*
X175815208Y-105402554D01*
X175790347Y-105432847D01*
X175760054Y-105457708D01*
X175725495Y-105476180D01*
X175687999Y-105487555D01*
X175642862Y-105492000D01*
X175004138Y-105492000D01*
X174959001Y-105487555D01*
X174921505Y-105476180D01*
X174886946Y-105457708D01*
X174856653Y-105432847D01*
X174831792Y-105402554D01*
X174813320Y-105367995D01*
X174801945Y-105330499D01*
X174797500Y-105285362D01*
X174797500Y-104546638D01*
X174801945Y-104501501D01*
X174813320Y-104464005D01*
X174831792Y-104429446D01*
X174856653Y-104399153D01*
X174886946Y-104374292D01*
X174921505Y-104355820D01*
X174959001Y-104344445D01*
X175004138Y-104340000D01*
X175642862Y-104340000D01*
X175687999Y-104344445D01*
X175687999Y-104344445D01*
G37*
G36*
X134412999Y-103963445D02*
G01*
X134450495Y-103974820D01*
X134485054Y-103993292D01*
X134515347Y-104018153D01*
X134540208Y-104048446D01*
X134558680Y-104083005D01*
X134570055Y-104120501D01*
X134574500Y-104165638D01*
X134574500Y-104904362D01*
X134570055Y-104949499D01*
X134558680Y-104986995D01*
X134540208Y-105021554D01*
X134515347Y-105051847D01*
X134485054Y-105076708D01*
X134450495Y-105095180D01*
X134412999Y-105106555D01*
X134367862Y-105111000D01*
X133729138Y-105111000D01*
X133684001Y-105106555D01*
X133646505Y-105095180D01*
X133611946Y-105076708D01*
X133581653Y-105051847D01*
X133556792Y-105021554D01*
X133538320Y-104986995D01*
X133526945Y-104949499D01*
X133522500Y-104904362D01*
X133522500Y-104165638D01*
X133526945Y-104120501D01*
X133538320Y-104083005D01*
X133556792Y-104048446D01*
X133581653Y-104018153D01*
X133611946Y-103993292D01*
X133646505Y-103974820D01*
X133684001Y-103963445D01*
X133729138Y-103959000D01*
X134367862Y-103959000D01*
X134412999Y-103963445D01*
X134412999Y-103963445D01*
G37*
G36*
X132507999Y-103949445D02*
G01*
X132545495Y-103960820D01*
X132580054Y-103979292D01*
X132610347Y-104004153D01*
X132635208Y-104034446D01*
X132653680Y-104069005D01*
X132665055Y-104106501D01*
X132669500Y-104151638D01*
X132669500Y-104890362D01*
X132665055Y-104935499D01*
X132653680Y-104972995D01*
X132635208Y-105007554D01*
X132610347Y-105037847D01*
X132580054Y-105062708D01*
X132545495Y-105081180D01*
X132507999Y-105092555D01*
X132462862Y-105097000D01*
X131824138Y-105097000D01*
X131779001Y-105092555D01*
X131741505Y-105081180D01*
X131706946Y-105062708D01*
X131676653Y-105037847D01*
X131651792Y-105007554D01*
X131633320Y-104972995D01*
X131621945Y-104935499D01*
X131617500Y-104890362D01*
X131617500Y-104151638D01*
X131621945Y-104106501D01*
X131633320Y-104069005D01*
X131651792Y-104034446D01*
X131676653Y-104004153D01*
X131706946Y-103979292D01*
X131741505Y-103960820D01*
X131779001Y-103949445D01*
X131824138Y-103945000D01*
X132462862Y-103945000D01*
X132507999Y-103949445D01*
X132507999Y-103949445D01*
G37*
G36*
X167596000Y-104121000D02*
G01*
X165994000Y-104121000D01*
X165994000Y-101619000D01*
X167596000Y-101619000D01*
X167596000Y-104121000D01*
X167596000Y-104121000D01*
G37*
G36*
X173096000Y-104121000D02*
G01*
X171494000Y-104121000D01*
X171494000Y-101619000D01*
X173096000Y-101619000D01*
X173096000Y-104121000D01*
X173096000Y-104121000D01*
G37*
G36*
X137270442Y-101975518D02*
G01*
X137336627Y-101982037D01*
X137506466Y-102033557D01*
X137662991Y-102117222D01*
X137698729Y-102146552D01*
X137800186Y-102229814D01*
X137883448Y-102331271D01*
X137912778Y-102367009D01*
X137996443Y-102523534D01*
X138047963Y-102693373D01*
X138065359Y-102870000D01*
X138047963Y-103046627D01*
X137996443Y-103216466D01*
X137912778Y-103372991D01*
X137902516Y-103385495D01*
X137800186Y-103510186D01*
X137698729Y-103593448D01*
X137662991Y-103622778D01*
X137506466Y-103706443D01*
X137336627Y-103757963D01*
X137270443Y-103764481D01*
X137204260Y-103771000D01*
X137115740Y-103771000D01*
X137049557Y-103764481D01*
X136983373Y-103757963D01*
X136813534Y-103706443D01*
X136657009Y-103622778D01*
X136621271Y-103593448D01*
X136519814Y-103510186D01*
X136417484Y-103385495D01*
X136407222Y-103372991D01*
X136323557Y-103216466D01*
X136272037Y-103046627D01*
X136254641Y-102870000D01*
X136272037Y-102693373D01*
X136323557Y-102523534D01*
X136407222Y-102367009D01*
X136436552Y-102331271D01*
X136519814Y-102229814D01*
X136621271Y-102146552D01*
X136657009Y-102117222D01*
X136813534Y-102033557D01*
X136983373Y-101982037D01*
X137049558Y-101975518D01*
X137115740Y-101969000D01*
X137204260Y-101969000D01*
X137270442Y-101975518D01*
X137270442Y-101975518D01*
G37*
G36*
X161463999Y-102361945D02*
G01*
X161501495Y-102373320D01*
X161536054Y-102391792D01*
X161566347Y-102416653D01*
X161591208Y-102446946D01*
X161609680Y-102481505D01*
X161621055Y-102519001D01*
X161625500Y-102564138D01*
X161625500Y-103302862D01*
X161621055Y-103347999D01*
X161609680Y-103385495D01*
X161591208Y-103420054D01*
X161566347Y-103450347D01*
X161536054Y-103475208D01*
X161501495Y-103493680D01*
X161463999Y-103505055D01*
X161418862Y-103509500D01*
X160780138Y-103509500D01*
X160735001Y-103505055D01*
X160697505Y-103493680D01*
X160662946Y-103475208D01*
X160632653Y-103450347D01*
X160607792Y-103420054D01*
X160589320Y-103385495D01*
X160577945Y-103347999D01*
X160573500Y-103302862D01*
X160573500Y-102564138D01*
X160577945Y-102519001D01*
X160589320Y-102481505D01*
X160607792Y-102446946D01*
X160632653Y-102416653D01*
X160662946Y-102391792D01*
X160697505Y-102373320D01*
X160735001Y-102361945D01*
X160780138Y-102357500D01*
X161418862Y-102357500D01*
X161463999Y-102361945D01*
X161463999Y-102361945D01*
G37*
G36*
X158871500Y-101876000D02*
G01*
X149484500Y-101876000D01*
X149484500Y-100674000D01*
X158871500Y-100674000D01*
X158871500Y-101876000D01*
X158871500Y-101876000D01*
G37*
G36*
X161463999Y-100611945D02*
G01*
X161501495Y-100623320D01*
X161536054Y-100641792D01*
X161566347Y-100666653D01*
X161591208Y-100696946D01*
X161609680Y-100731505D01*
X161621055Y-100769001D01*
X161625500Y-100814138D01*
X161625500Y-101552862D01*
X161621055Y-101597999D01*
X161609680Y-101635495D01*
X161591208Y-101670054D01*
X161566347Y-101700347D01*
X161536054Y-101725208D01*
X161501495Y-101743680D01*
X161463999Y-101755055D01*
X161418862Y-101759500D01*
X160780138Y-101759500D01*
X160735001Y-101755055D01*
X160697505Y-101743680D01*
X160662946Y-101725208D01*
X160632653Y-101700347D01*
X160607792Y-101670054D01*
X160589320Y-101635495D01*
X160577945Y-101597999D01*
X160573500Y-101552862D01*
X160573500Y-100814138D01*
X160577945Y-100769001D01*
X160589320Y-100731505D01*
X160607792Y-100696946D01*
X160632653Y-100666653D01*
X160662946Y-100641792D01*
X160697505Y-100623320D01*
X160735001Y-100611945D01*
X160780138Y-100607500D01*
X161418862Y-100607500D01*
X161463999Y-100611945D01*
X161463999Y-100611945D01*
G37*
G36*
X137270443Y-99435519D02*
G01*
X137336627Y-99442037D01*
X137506466Y-99493557D01*
X137662991Y-99577222D01*
X137698729Y-99606552D01*
X137800186Y-99689814D01*
X137883448Y-99791271D01*
X137912778Y-99827009D01*
X137996443Y-99983534D01*
X138047963Y-100153373D01*
X138065359Y-100330000D01*
X138047963Y-100506627D01*
X137996443Y-100676466D01*
X137912778Y-100832991D01*
X137883448Y-100868729D01*
X137800186Y-100970186D01*
X137698729Y-101053448D01*
X137662991Y-101082778D01*
X137506466Y-101166443D01*
X137336627Y-101217963D01*
X137270443Y-101224481D01*
X137204260Y-101231000D01*
X137115740Y-101231000D01*
X137049558Y-101224482D01*
X136983373Y-101217963D01*
X136813534Y-101166443D01*
X136657009Y-101082778D01*
X136621271Y-101053448D01*
X136519814Y-100970186D01*
X136436552Y-100868729D01*
X136407222Y-100832991D01*
X136323557Y-100676466D01*
X136272037Y-100506627D01*
X136254641Y-100330000D01*
X136272037Y-100153373D01*
X136323557Y-99983534D01*
X136407222Y-99827009D01*
X136436552Y-99791271D01*
X136519814Y-99689814D01*
X136621271Y-99606552D01*
X136657009Y-99577222D01*
X136813534Y-99493557D01*
X136983373Y-99442037D01*
X137049558Y-99435518D01*
X137115740Y-99429000D01*
X137204260Y-99429000D01*
X137270443Y-99435519D01*
X137270443Y-99435519D01*
G37*
G36*
X156579000Y-99926000D02*
G01*
X151777000Y-99926000D01*
X151777000Y-96924000D01*
X156579000Y-96924000D01*
X156579000Y-99926000D01*
X156579000Y-99926000D01*
G37*
G36*
X137270442Y-96895518D02*
G01*
X137336627Y-96902037D01*
X137506466Y-96953557D01*
X137662991Y-97037222D01*
X137698729Y-97066552D01*
X137800186Y-97149814D01*
X137883448Y-97251271D01*
X137912778Y-97287009D01*
X137996443Y-97443534D01*
X138047963Y-97613373D01*
X138065359Y-97790000D01*
X138047963Y-97966627D01*
X137996443Y-98136466D01*
X137912778Y-98292991D01*
X137883448Y-98328729D01*
X137800186Y-98430186D01*
X137698729Y-98513448D01*
X137662991Y-98542778D01*
X137506466Y-98626443D01*
X137336627Y-98677963D01*
X137270442Y-98684482D01*
X137204260Y-98691000D01*
X137115740Y-98691000D01*
X137049558Y-98684482D01*
X136983373Y-98677963D01*
X136813534Y-98626443D01*
X136657009Y-98542778D01*
X136621271Y-98513448D01*
X136519814Y-98430186D01*
X136436552Y-98328729D01*
X136407222Y-98292991D01*
X136323557Y-98136466D01*
X136272037Y-97966627D01*
X136254641Y-97790000D01*
X136272037Y-97613373D01*
X136323557Y-97443534D01*
X136407222Y-97287009D01*
X136436552Y-97251271D01*
X136519814Y-97149814D01*
X136621271Y-97066552D01*
X136657009Y-97037222D01*
X136813534Y-96953557D01*
X136983373Y-96902037D01*
X137049558Y-96895518D01*
X137115740Y-96889000D01*
X137204260Y-96889000D01*
X137270442Y-96895518D01*
X137270442Y-96895518D01*
G37*
G36*
X161463999Y-95094945D02*
G01*
X161501495Y-95106320D01*
X161536054Y-95124792D01*
X161566347Y-95149653D01*
X161591208Y-95179946D01*
X161609680Y-95214505D01*
X161621055Y-95252001D01*
X161625500Y-95297138D01*
X161625500Y-96035862D01*
X161621055Y-96080999D01*
X161609680Y-96118495D01*
X161591208Y-96153054D01*
X161566347Y-96183347D01*
X161536054Y-96208208D01*
X161501495Y-96226680D01*
X161463999Y-96238055D01*
X161418862Y-96242500D01*
X160780138Y-96242500D01*
X160735001Y-96238055D01*
X160697505Y-96226680D01*
X160662946Y-96208208D01*
X160632653Y-96183347D01*
X160607792Y-96153054D01*
X160589320Y-96118495D01*
X160577945Y-96080999D01*
X160573500Y-96035862D01*
X160573500Y-95297138D01*
X160577945Y-95252001D01*
X160589320Y-95214505D01*
X160607792Y-95179946D01*
X160632653Y-95149653D01*
X160662946Y-95124792D01*
X160697505Y-95106320D01*
X160735001Y-95094945D01*
X160780138Y-95090500D01*
X161418862Y-95090500D01*
X161463999Y-95094945D01*
X161463999Y-95094945D01*
G37*
G36*
X158871500Y-96176000D02*
G01*
X149484500Y-96176000D01*
X149484500Y-94974000D01*
X158871500Y-94974000D01*
X158871500Y-96176000D01*
X158871500Y-96176000D01*
G37*
G36*
X137270442Y-94355518D02*
G01*
X137336627Y-94362037D01*
X137506466Y-94413557D01*
X137662991Y-94497222D01*
X137698729Y-94526552D01*
X137800186Y-94609814D01*
X137883448Y-94711271D01*
X137912778Y-94747009D01*
X137996443Y-94903534D01*
X138047963Y-95073373D01*
X138065359Y-95250000D01*
X138047963Y-95426627D01*
X137996443Y-95596466D01*
X137912778Y-95752991D01*
X137883448Y-95788729D01*
X137800186Y-95890186D01*
X137698729Y-95973448D01*
X137662991Y-96002778D01*
X137506466Y-96086443D01*
X137336627Y-96137963D01*
X137270443Y-96144481D01*
X137204260Y-96151000D01*
X137115740Y-96151000D01*
X137049558Y-96144482D01*
X136983373Y-96137963D01*
X136813534Y-96086443D01*
X136657009Y-96002778D01*
X136621271Y-95973448D01*
X136519814Y-95890186D01*
X136436552Y-95788729D01*
X136407222Y-95752991D01*
X136323557Y-95596466D01*
X136272037Y-95426627D01*
X136254641Y-95250000D01*
X136272037Y-95073373D01*
X136323557Y-94903534D01*
X136407222Y-94747009D01*
X136436552Y-94711271D01*
X136519814Y-94609814D01*
X136621271Y-94526552D01*
X136657009Y-94497222D01*
X136813534Y-94413557D01*
X136983373Y-94362037D01*
X137049557Y-94355519D01*
X137115740Y-94349000D01*
X137204260Y-94349000D01*
X137270442Y-94355518D01*
X137270442Y-94355518D01*
G37*
G36*
X173096000Y-95231000D02*
G01*
X171494000Y-95231000D01*
X171494000Y-92729000D01*
X173096000Y-92729000D01*
X173096000Y-95231000D01*
X173096000Y-95231000D01*
G37*
G36*
X167596000Y-95231000D02*
G01*
X165994000Y-95231000D01*
X165994000Y-92729000D01*
X167596000Y-92729000D01*
X167596000Y-95231000D01*
X167596000Y-95231000D01*
G37*
G36*
X161463999Y-93344945D02*
G01*
X161501495Y-93356320D01*
X161536054Y-93374792D01*
X161566347Y-93399653D01*
X161591208Y-93429946D01*
X161609680Y-93464505D01*
X161621055Y-93502001D01*
X161625500Y-93547138D01*
X161625500Y-94285862D01*
X161621055Y-94330999D01*
X161609680Y-94368495D01*
X161591208Y-94403054D01*
X161566347Y-94433347D01*
X161536054Y-94458208D01*
X161501495Y-94476680D01*
X161463999Y-94488055D01*
X161418862Y-94492500D01*
X160780138Y-94492500D01*
X160735001Y-94488055D01*
X160697505Y-94476680D01*
X160662946Y-94458208D01*
X160632653Y-94433347D01*
X160607792Y-94403054D01*
X160589320Y-94368495D01*
X160577945Y-94330999D01*
X160573500Y-94285862D01*
X160573500Y-93547138D01*
X160577945Y-93502001D01*
X160589320Y-93464505D01*
X160607792Y-93429946D01*
X160632653Y-93399653D01*
X160662946Y-93374792D01*
X160697505Y-93356320D01*
X160735001Y-93344945D01*
X160780138Y-93340500D01*
X161418862Y-93340500D01*
X161463999Y-93344945D01*
X161463999Y-93344945D01*
G37*
G36*
X137245420Y-91813054D02*
G01*
X137336627Y-91822037D01*
X137506466Y-91873557D01*
X137662991Y-91957222D01*
X137698729Y-91986552D01*
X137800186Y-92069814D01*
X137883370Y-92171176D01*
X137912778Y-92207009D01*
X137912779Y-92207011D01*
X137971464Y-92316801D01*
X137996443Y-92363534D01*
X138047963Y-92533373D01*
X138065359Y-92710000D01*
X138047963Y-92886627D01*
X137996443Y-93056466D01*
X137996442Y-93056468D01*
X137993061Y-93062794D01*
X137912778Y-93212991D01*
X137883448Y-93248729D01*
X137800186Y-93350186D01*
X137702997Y-93429946D01*
X137662991Y-93462778D01*
X137506466Y-93546443D01*
X137336627Y-93597963D01*
X137280408Y-93603500D01*
X137204260Y-93611000D01*
X137115740Y-93611000D01*
X137039592Y-93603500D01*
X136983373Y-93597963D01*
X136813534Y-93546443D01*
X136657009Y-93462778D01*
X136617003Y-93429946D01*
X136519814Y-93350186D01*
X136436552Y-93248729D01*
X136407222Y-93212991D01*
X136326939Y-93062794D01*
X136323558Y-93056468D01*
X136323557Y-93056466D01*
X136272037Y-92886627D01*
X136254641Y-92710000D01*
X136272037Y-92533373D01*
X136323557Y-92363534D01*
X136348537Y-92316801D01*
X136407221Y-92207011D01*
X136407222Y-92207009D01*
X136436630Y-92171176D01*
X136519814Y-92069814D01*
X136621271Y-91986552D01*
X136657009Y-91957222D01*
X136813534Y-91873557D01*
X136983373Y-91822037D01*
X137074580Y-91813054D01*
X137115740Y-91809000D01*
X137204260Y-91809000D01*
X137245420Y-91813054D01*
X137245420Y-91813054D01*
G37*
G36*
X152784644Y-91700763D02*
G01*
X152822140Y-91712138D01*
X152856699Y-91730610D01*
X152891763Y-91759386D01*
X153414114Y-92281737D01*
X153442890Y-92316801D01*
X153461362Y-92351360D01*
X153472737Y-92388856D01*
X153476577Y-92427855D01*
X153472737Y-92466854D01*
X153461362Y-92504350D01*
X153442890Y-92538909D01*
X153414114Y-92573973D01*
X152962473Y-93025614D01*
X152927409Y-93054390D01*
X152892850Y-93072862D01*
X152855354Y-93084237D01*
X152816355Y-93088077D01*
X152777356Y-93084237D01*
X152739860Y-93072862D01*
X152705301Y-93054390D01*
X152670237Y-93025614D01*
X152147886Y-92503263D01*
X152119110Y-92468199D01*
X152100638Y-92433640D01*
X152089263Y-92396144D01*
X152085423Y-92357145D01*
X152089263Y-92318146D01*
X152100638Y-92280650D01*
X152119110Y-92246091D01*
X152147886Y-92211027D01*
X152599527Y-91759386D01*
X152634591Y-91730610D01*
X152669150Y-91712138D01*
X152706646Y-91700763D01*
X152745645Y-91696923D01*
X152784644Y-91700763D01*
X152784644Y-91700763D01*
G37*
G36*
X175687999Y-91348445D02*
G01*
X175725495Y-91359820D01*
X175760054Y-91378292D01*
X175790347Y-91403153D01*
X175815208Y-91433446D01*
X175833680Y-91468005D01*
X175845055Y-91505501D01*
X175849500Y-91550638D01*
X175849500Y-92289362D01*
X175845055Y-92334499D01*
X175833680Y-92371995D01*
X175815208Y-92406554D01*
X175790347Y-92436847D01*
X175760054Y-92461708D01*
X175725495Y-92480180D01*
X175687999Y-92491555D01*
X175642862Y-92496000D01*
X175004138Y-92496000D01*
X174959001Y-92491555D01*
X174921505Y-92480180D01*
X174886946Y-92461708D01*
X174856653Y-92436847D01*
X174831792Y-92406554D01*
X174813320Y-92371995D01*
X174801945Y-92334499D01*
X174797500Y-92289362D01*
X174797500Y-91550638D01*
X174801945Y-91505501D01*
X174813320Y-91468005D01*
X174831792Y-91433446D01*
X174856653Y-91403153D01*
X174886946Y-91378292D01*
X174921505Y-91359820D01*
X174959001Y-91348445D01*
X175004138Y-91344000D01*
X175642862Y-91344000D01*
X175687999Y-91348445D01*
X175687999Y-91348445D01*
G37*
G36*
X178608999Y-91348445D02*
G01*
X178646495Y-91359820D01*
X178681054Y-91378292D01*
X178711347Y-91403153D01*
X178736208Y-91433446D01*
X178754680Y-91468005D01*
X178766055Y-91505501D01*
X178770500Y-91550638D01*
X178770500Y-92289362D01*
X178766055Y-92334499D01*
X178754680Y-92371995D01*
X178736208Y-92406554D01*
X178711347Y-92436847D01*
X178681054Y-92461708D01*
X178646495Y-92480180D01*
X178608999Y-92491555D01*
X178563862Y-92496000D01*
X177925138Y-92496000D01*
X177880001Y-92491555D01*
X177842505Y-92480180D01*
X177807946Y-92461708D01*
X177777653Y-92436847D01*
X177752792Y-92406554D01*
X177734320Y-92371995D01*
X177722945Y-92334499D01*
X177718500Y-92289362D01*
X177718500Y-91550638D01*
X177722945Y-91505501D01*
X177734320Y-91468005D01*
X177752792Y-91433446D01*
X177777653Y-91403153D01*
X177807946Y-91378292D01*
X177842505Y-91359820D01*
X177880001Y-91348445D01*
X177925138Y-91344000D01*
X178563862Y-91344000D01*
X178608999Y-91348445D01*
X178608999Y-91348445D01*
G37*
G36*
X161005999Y-90854945D02*
G01*
X161043495Y-90866320D01*
X161078054Y-90884792D01*
X161108347Y-90909653D01*
X161133208Y-90939946D01*
X161151680Y-90974505D01*
X161163055Y-91012001D01*
X161167500Y-91057138D01*
X161167500Y-91695862D01*
X161163055Y-91740999D01*
X161151680Y-91778495D01*
X161133208Y-91813054D01*
X161108347Y-91843347D01*
X161078054Y-91868208D01*
X161043495Y-91886680D01*
X161005999Y-91898055D01*
X160960862Y-91902500D01*
X160222138Y-91902500D01*
X160177001Y-91898055D01*
X160139505Y-91886680D01*
X160104946Y-91868208D01*
X160074653Y-91843347D01*
X160049792Y-91813054D01*
X160031320Y-91778495D01*
X160019945Y-91740999D01*
X160015500Y-91695862D01*
X160015500Y-91057138D01*
X160019945Y-91012001D01*
X160031320Y-90974505D01*
X160049792Y-90939946D01*
X160074653Y-90909653D01*
X160104946Y-90884792D01*
X160139505Y-90866320D01*
X160177001Y-90854945D01*
X160222138Y-90850500D01*
X160960862Y-90850500D01*
X161005999Y-90854945D01*
X161005999Y-90854945D01*
G37*
G36*
X159255999Y-90854945D02*
G01*
X159293495Y-90866320D01*
X159328054Y-90884792D01*
X159358347Y-90909653D01*
X159383208Y-90939946D01*
X159401680Y-90974505D01*
X159413055Y-91012001D01*
X159417500Y-91057138D01*
X159417500Y-91695862D01*
X159413055Y-91740999D01*
X159401680Y-91778495D01*
X159383208Y-91813054D01*
X159358347Y-91843347D01*
X159328054Y-91868208D01*
X159293495Y-91886680D01*
X159255999Y-91898055D01*
X159210862Y-91902500D01*
X158472138Y-91902500D01*
X158427001Y-91898055D01*
X158389505Y-91886680D01*
X158354946Y-91868208D01*
X158324653Y-91843347D01*
X158299792Y-91813054D01*
X158281320Y-91778495D01*
X158269945Y-91740999D01*
X158265500Y-91695862D01*
X158265500Y-91057138D01*
X158269945Y-91012001D01*
X158281320Y-90974505D01*
X158299792Y-90939946D01*
X158324653Y-90909653D01*
X158354946Y-90884792D01*
X158389505Y-90866320D01*
X158427001Y-90854945D01*
X158472138Y-90850500D01*
X159210862Y-90850500D01*
X159255999Y-90854945D01*
X159255999Y-90854945D01*
G37*
G36*
X151547208Y-90463327D02*
G01*
X151584704Y-90474702D01*
X151619263Y-90493174D01*
X151654327Y-90521950D01*
X152176678Y-91044301D01*
X152205454Y-91079365D01*
X152223926Y-91113924D01*
X152235301Y-91151420D01*
X152239141Y-91190419D01*
X152235301Y-91229418D01*
X152223926Y-91266914D01*
X152205454Y-91301473D01*
X152176678Y-91336537D01*
X151725037Y-91788178D01*
X151689973Y-91816954D01*
X151655414Y-91835426D01*
X151617918Y-91846801D01*
X151578919Y-91850641D01*
X151539920Y-91846801D01*
X151502424Y-91835426D01*
X151467865Y-91816954D01*
X151432801Y-91788178D01*
X150910450Y-91265827D01*
X150881674Y-91230763D01*
X150863202Y-91196204D01*
X150851827Y-91158708D01*
X150847987Y-91119709D01*
X150851827Y-91080710D01*
X150863202Y-91043214D01*
X150881674Y-91008655D01*
X150910450Y-90973591D01*
X151362091Y-90521950D01*
X151397155Y-90493174D01*
X151431714Y-90474702D01*
X151469210Y-90463327D01*
X151508209Y-90459487D01*
X151547208Y-90463327D01*
X151547208Y-90463327D01*
G37*
G36*
X186455600Y-89272989D02*
G01*
X186488652Y-89283015D01*
X186519103Y-89299292D01*
X186545799Y-89321201D01*
X186567708Y-89347897D01*
X186583985Y-89378348D01*
X186594011Y-89411400D01*
X186598000Y-89451903D01*
X186598000Y-90888097D01*
X186594011Y-90928600D01*
X186583985Y-90961652D01*
X186567708Y-90992103D01*
X186545799Y-91018799D01*
X186519103Y-91040708D01*
X186488652Y-91056985D01*
X186455600Y-91067011D01*
X186415097Y-91071000D01*
X184678903Y-91071000D01*
X184638400Y-91067011D01*
X184605348Y-91056985D01*
X184574897Y-91040708D01*
X184548201Y-91018799D01*
X184526292Y-90992103D01*
X184510015Y-90961652D01*
X184499989Y-90928600D01*
X184496000Y-90888097D01*
X184496000Y-89451903D01*
X184499989Y-89411400D01*
X184510015Y-89378348D01*
X184526292Y-89347897D01*
X184548201Y-89321201D01*
X184574897Y-89299292D01*
X184605348Y-89283015D01*
X184638400Y-89272989D01*
X184678903Y-89269000D01*
X186415097Y-89269000D01*
X186455600Y-89272989D01*
X186455600Y-89272989D01*
G37*
G36*
X178608999Y-89598445D02*
G01*
X178646495Y-89609820D01*
X178681054Y-89628292D01*
X178711347Y-89653153D01*
X178736208Y-89683446D01*
X178754680Y-89718005D01*
X178766055Y-89755501D01*
X178770500Y-89800638D01*
X178770500Y-90539362D01*
X178766055Y-90584499D01*
X178754680Y-90621995D01*
X178736208Y-90656554D01*
X178711347Y-90686847D01*
X178681054Y-90711708D01*
X178646495Y-90730180D01*
X178608999Y-90741555D01*
X178563862Y-90746000D01*
X177925138Y-90746000D01*
X177880001Y-90741555D01*
X177842505Y-90730180D01*
X177807946Y-90711708D01*
X177777653Y-90686847D01*
X177752792Y-90656554D01*
X177734320Y-90621995D01*
X177722945Y-90584499D01*
X177718500Y-90539362D01*
X177718500Y-89800638D01*
X177722945Y-89755501D01*
X177734320Y-89718005D01*
X177752792Y-89683446D01*
X177777653Y-89653153D01*
X177807946Y-89628292D01*
X177842505Y-89609820D01*
X177880001Y-89598445D01*
X177925138Y-89594000D01*
X178563862Y-89594000D01*
X178608999Y-89598445D01*
X178608999Y-89598445D01*
G37*
G36*
X175687999Y-89598445D02*
G01*
X175725495Y-89609820D01*
X175760054Y-89628292D01*
X175790347Y-89653153D01*
X175815208Y-89683446D01*
X175833680Y-89718005D01*
X175845055Y-89755501D01*
X175849500Y-89800638D01*
X175849500Y-90539362D01*
X175845055Y-90584499D01*
X175833680Y-90621995D01*
X175815208Y-90656554D01*
X175790347Y-90686847D01*
X175760054Y-90711708D01*
X175725495Y-90730180D01*
X175687999Y-90741555D01*
X175642862Y-90746000D01*
X175004138Y-90746000D01*
X174959001Y-90741555D01*
X174921505Y-90730180D01*
X174886946Y-90711708D01*
X174856653Y-90686847D01*
X174831792Y-90656554D01*
X174813320Y-90621995D01*
X174801945Y-90584499D01*
X174797500Y-90539362D01*
X174797500Y-89800638D01*
X174801945Y-89755501D01*
X174813320Y-89718005D01*
X174831792Y-89683446D01*
X174856653Y-89653153D01*
X174886946Y-89628292D01*
X174921505Y-89609820D01*
X174959001Y-89598445D01*
X175004138Y-89594000D01*
X175642862Y-89594000D01*
X175687999Y-89598445D01*
X175687999Y-89598445D01*
G37*
G36*
X144559499Y-89394445D02*
G01*
X144596995Y-89405820D01*
X144631554Y-89424292D01*
X144661847Y-89449153D01*
X144686708Y-89479446D01*
X144705180Y-89514005D01*
X144716555Y-89551501D01*
X144721000Y-89596638D01*
X144721000Y-90235362D01*
X144716555Y-90280499D01*
X144705180Y-90317995D01*
X144686708Y-90352554D01*
X144661847Y-90382847D01*
X144631554Y-90407708D01*
X144596995Y-90426180D01*
X144559499Y-90437555D01*
X144514362Y-90442000D01*
X143775638Y-90442000D01*
X143730501Y-90437555D01*
X143693005Y-90426180D01*
X143658446Y-90407708D01*
X143628153Y-90382847D01*
X143603292Y-90352554D01*
X143584820Y-90317995D01*
X143573445Y-90280499D01*
X143569000Y-90235362D01*
X143569000Y-89596638D01*
X143573445Y-89551501D01*
X143584820Y-89514005D01*
X143603292Y-89479446D01*
X143628153Y-89449153D01*
X143658446Y-89424292D01*
X143693005Y-89405820D01*
X143730501Y-89394445D01*
X143775638Y-89390000D01*
X144514362Y-89390000D01*
X144559499Y-89394445D01*
X144559499Y-89394445D01*
G37*
G36*
X142809499Y-89394445D02*
G01*
X142846995Y-89405820D01*
X142881554Y-89424292D01*
X142911847Y-89449153D01*
X142936708Y-89479446D01*
X142955180Y-89514005D01*
X142966555Y-89551501D01*
X142971000Y-89596638D01*
X142971000Y-90235362D01*
X142966555Y-90280499D01*
X142955180Y-90317995D01*
X142936708Y-90352554D01*
X142911847Y-90382847D01*
X142881554Y-90407708D01*
X142846995Y-90426180D01*
X142809499Y-90437555D01*
X142764362Y-90442000D01*
X142025638Y-90442000D01*
X141980501Y-90437555D01*
X141943005Y-90426180D01*
X141908446Y-90407708D01*
X141878153Y-90382847D01*
X141853292Y-90352554D01*
X141834820Y-90317995D01*
X141823445Y-90280499D01*
X141819000Y-90235362D01*
X141819000Y-89596638D01*
X141823445Y-89551501D01*
X141834820Y-89514005D01*
X141853292Y-89479446D01*
X141878153Y-89449153D01*
X141908446Y-89424292D01*
X141943005Y-89405820D01*
X141980501Y-89394445D01*
X142025638Y-89390000D01*
X142764362Y-89390000D01*
X142809499Y-89394445D01*
X142809499Y-89394445D01*
G37*
G36*
X147874999Y-88074445D02*
G01*
X147912495Y-88085820D01*
X147947054Y-88104292D01*
X147977347Y-88129153D01*
X148002208Y-88159446D01*
X148020680Y-88194005D01*
X148032055Y-88231501D01*
X148036500Y-88276638D01*
X148036500Y-89015362D01*
X148032055Y-89060499D01*
X148020680Y-89097995D01*
X148002208Y-89132554D01*
X147977347Y-89162847D01*
X147947054Y-89187708D01*
X147912495Y-89206180D01*
X147874999Y-89217555D01*
X147829862Y-89222000D01*
X147191138Y-89222000D01*
X147146001Y-89217555D01*
X147108505Y-89206180D01*
X147073946Y-89187708D01*
X147043653Y-89162847D01*
X147018792Y-89132554D01*
X147000320Y-89097995D01*
X146988945Y-89060499D01*
X146984500Y-89015362D01*
X146984500Y-88276638D01*
X146988945Y-88231501D01*
X147000320Y-88194005D01*
X147018792Y-88159446D01*
X147043653Y-88129153D01*
X147073946Y-88104292D01*
X147108505Y-88085820D01*
X147146001Y-88074445D01*
X147191138Y-88070000D01*
X147829862Y-88070000D01*
X147874999Y-88074445D01*
X147874999Y-88074445D01*
G37*
G36*
X150414999Y-88060445D02*
G01*
X150452495Y-88071820D01*
X150487054Y-88090292D01*
X150517347Y-88115153D01*
X150542208Y-88145446D01*
X150560680Y-88180005D01*
X150572055Y-88217501D01*
X150576500Y-88262638D01*
X150576500Y-89001362D01*
X150572055Y-89046499D01*
X150560680Y-89083995D01*
X150542208Y-89118554D01*
X150517347Y-89148847D01*
X150487054Y-89173708D01*
X150452495Y-89192180D01*
X150414999Y-89203555D01*
X150369862Y-89208000D01*
X149731138Y-89208000D01*
X149686001Y-89203555D01*
X149648505Y-89192180D01*
X149613946Y-89173708D01*
X149583653Y-89148847D01*
X149558792Y-89118554D01*
X149540320Y-89083995D01*
X149528945Y-89046499D01*
X149524500Y-89001362D01*
X149524500Y-88262638D01*
X149528945Y-88217501D01*
X149540320Y-88180005D01*
X149558792Y-88145446D01*
X149583653Y-88115153D01*
X149613946Y-88090292D01*
X149648505Y-88071820D01*
X149686001Y-88060445D01*
X149731138Y-88056000D01*
X150369862Y-88056000D01*
X150414999Y-88060445D01*
X150414999Y-88060445D01*
G37*
G36*
X156530962Y-86847881D02*
G01*
X156565881Y-86858474D01*
X156598063Y-86875676D01*
X156626273Y-86898827D01*
X156649424Y-86927037D01*
X156666626Y-86959219D01*
X156677219Y-86994138D01*
X156681400Y-87036595D01*
X156681400Y-88502805D01*
X156677219Y-88545262D01*
X156666626Y-88580181D01*
X156649424Y-88612363D01*
X156626273Y-88640573D01*
X156598063Y-88663724D01*
X156565881Y-88680926D01*
X156530962Y-88691519D01*
X156488505Y-88695700D01*
X155347295Y-88695700D01*
X155304838Y-88691519D01*
X155269919Y-88680926D01*
X155237737Y-88663724D01*
X155209527Y-88640573D01*
X155186376Y-88612363D01*
X155169174Y-88580181D01*
X155158581Y-88545262D01*
X155154400Y-88502805D01*
X155154400Y-87036595D01*
X155158581Y-86994138D01*
X155169174Y-86959219D01*
X155186376Y-86927037D01*
X155209527Y-86898827D01*
X155237737Y-86875676D01*
X155269919Y-86858474D01*
X155304838Y-86847881D01*
X155347295Y-86843700D01*
X156488505Y-86843700D01*
X156530962Y-86847881D01*
X156530962Y-86847881D01*
G37*
G36*
X153555962Y-86847881D02*
G01*
X153590881Y-86858474D01*
X153623063Y-86875676D01*
X153651273Y-86898827D01*
X153674424Y-86927037D01*
X153691626Y-86959219D01*
X153702219Y-86994138D01*
X153706400Y-87036595D01*
X153706400Y-88502805D01*
X153702219Y-88545262D01*
X153691626Y-88580181D01*
X153674424Y-88612363D01*
X153651273Y-88640573D01*
X153623063Y-88663724D01*
X153590881Y-88680926D01*
X153555962Y-88691519D01*
X153513505Y-88695700D01*
X152372295Y-88695700D01*
X152329838Y-88691519D01*
X152294919Y-88680926D01*
X152262737Y-88663724D01*
X152234527Y-88640573D01*
X152211376Y-88612363D01*
X152194174Y-88580181D01*
X152183581Y-88545262D01*
X152179400Y-88502805D01*
X152179400Y-87036595D01*
X152183581Y-86994138D01*
X152194174Y-86959219D01*
X152211376Y-86927037D01*
X152234527Y-86898827D01*
X152262737Y-86875676D01*
X152294919Y-86858474D01*
X152329838Y-86847881D01*
X152372295Y-86843700D01*
X153513505Y-86843700D01*
X153555962Y-86847881D01*
X153555962Y-86847881D01*
G37*
G36*
X185807442Y-86775518D02*
G01*
X185873627Y-86782037D01*
X186043466Y-86833557D01*
X186199991Y-86917222D01*
X186235729Y-86946552D01*
X186337186Y-87029814D01*
X186404301Y-87111595D01*
X186449778Y-87167009D01*
X186533443Y-87323534D01*
X186584963Y-87493373D01*
X186602359Y-87670000D01*
X186584963Y-87846627D01*
X186536466Y-88006500D01*
X186533442Y-88016468D01*
X186511345Y-88057809D01*
X186449778Y-88172991D01*
X186432532Y-88194005D01*
X186337186Y-88310186D01*
X186235729Y-88393448D01*
X186199991Y-88422778D01*
X186043466Y-88506443D01*
X185873627Y-88557963D01*
X185807442Y-88564482D01*
X185741260Y-88571000D01*
X185352740Y-88571000D01*
X185286557Y-88564481D01*
X185220373Y-88557963D01*
X185050534Y-88506443D01*
X184894009Y-88422778D01*
X184858271Y-88393448D01*
X184756814Y-88310186D01*
X184661468Y-88194005D01*
X184644222Y-88172991D01*
X184582655Y-88057809D01*
X184560558Y-88016468D01*
X184557534Y-88006500D01*
X184509037Y-87846627D01*
X184491641Y-87670000D01*
X184509037Y-87493373D01*
X184560557Y-87323534D01*
X184644222Y-87167009D01*
X184689699Y-87111595D01*
X184756814Y-87029814D01*
X184858271Y-86946552D01*
X184894009Y-86917222D01*
X185050534Y-86833557D01*
X185220373Y-86782037D01*
X185286558Y-86775518D01*
X185352740Y-86769000D01*
X185741260Y-86769000D01*
X185807442Y-86775518D01*
X185807442Y-86775518D01*
G37*
G36*
X178608999Y-87121945D02*
G01*
X178646495Y-87133320D01*
X178681054Y-87151792D01*
X178711347Y-87176653D01*
X178736208Y-87206946D01*
X178754680Y-87241505D01*
X178766055Y-87279001D01*
X178770500Y-87324138D01*
X178770500Y-88062862D01*
X178766055Y-88107999D01*
X178754680Y-88145495D01*
X178736208Y-88180054D01*
X178711347Y-88210347D01*
X178681054Y-88235208D01*
X178646495Y-88253680D01*
X178608999Y-88265055D01*
X178563862Y-88269500D01*
X177925138Y-88269500D01*
X177880001Y-88265055D01*
X177842505Y-88253680D01*
X177807946Y-88235208D01*
X177777653Y-88210347D01*
X177752792Y-88180054D01*
X177734320Y-88145495D01*
X177722945Y-88107999D01*
X177718500Y-88062862D01*
X177718500Y-87324138D01*
X177722945Y-87279001D01*
X177734320Y-87241505D01*
X177752792Y-87206946D01*
X177777653Y-87176653D01*
X177807946Y-87151792D01*
X177842505Y-87133320D01*
X177880001Y-87121945D01*
X177925138Y-87117500D01*
X178563862Y-87117500D01*
X178608999Y-87121945D01*
X178608999Y-87121945D01*
G37*
G36*
X175687999Y-87121945D02*
G01*
X175725495Y-87133320D01*
X175760054Y-87151792D01*
X175790347Y-87176653D01*
X175815208Y-87206946D01*
X175833680Y-87241505D01*
X175845055Y-87279001D01*
X175849500Y-87324138D01*
X175849500Y-88062862D01*
X175845055Y-88107999D01*
X175833680Y-88145495D01*
X175815208Y-88180054D01*
X175790347Y-88210347D01*
X175760054Y-88235208D01*
X175725495Y-88253680D01*
X175687999Y-88265055D01*
X175642862Y-88269500D01*
X175004138Y-88269500D01*
X174959001Y-88265055D01*
X174921505Y-88253680D01*
X174886946Y-88235208D01*
X174856653Y-88210347D01*
X174831792Y-88180054D01*
X174813320Y-88145495D01*
X174801945Y-88107999D01*
X174797500Y-88062862D01*
X174797500Y-87324138D01*
X174801945Y-87279001D01*
X174813320Y-87241505D01*
X174831792Y-87206946D01*
X174856653Y-87176653D01*
X174886946Y-87151792D01*
X174921505Y-87133320D01*
X174959001Y-87121945D01*
X175004138Y-87117500D01*
X175642862Y-87117500D01*
X175687999Y-87121945D01*
X175687999Y-87121945D01*
G37*
G36*
X147874999Y-86324445D02*
G01*
X147912495Y-86335820D01*
X147947054Y-86354292D01*
X147977347Y-86379153D01*
X148002208Y-86409446D01*
X148020680Y-86444005D01*
X148032055Y-86481501D01*
X148036500Y-86526638D01*
X148036500Y-87265362D01*
X148032055Y-87310499D01*
X148020680Y-87347995D01*
X148002208Y-87382554D01*
X147977347Y-87412847D01*
X147947054Y-87437708D01*
X147912495Y-87456180D01*
X147874999Y-87467555D01*
X147829862Y-87472000D01*
X147191138Y-87472000D01*
X147146001Y-87467555D01*
X147108505Y-87456180D01*
X147073946Y-87437708D01*
X147043653Y-87412847D01*
X147018792Y-87382554D01*
X147000320Y-87347995D01*
X146988945Y-87310499D01*
X146984500Y-87265362D01*
X146984500Y-86526638D01*
X146988945Y-86481501D01*
X147000320Y-86444005D01*
X147018792Y-86409446D01*
X147043653Y-86379153D01*
X147073946Y-86354292D01*
X147108505Y-86335820D01*
X147146001Y-86324445D01*
X147191138Y-86320000D01*
X147829862Y-86320000D01*
X147874999Y-86324445D01*
X147874999Y-86324445D01*
G37*
G36*
X150414999Y-86310445D02*
G01*
X150452495Y-86321820D01*
X150487054Y-86340292D01*
X150517347Y-86365153D01*
X150542208Y-86395446D01*
X150560680Y-86430005D01*
X150572055Y-86467501D01*
X150576500Y-86512638D01*
X150576500Y-87251362D01*
X150572055Y-87296499D01*
X150560680Y-87333995D01*
X150542208Y-87368554D01*
X150517347Y-87398847D01*
X150487054Y-87423708D01*
X150452495Y-87442180D01*
X150414999Y-87453555D01*
X150369862Y-87458000D01*
X149731138Y-87458000D01*
X149686001Y-87453555D01*
X149648505Y-87442180D01*
X149613946Y-87423708D01*
X149583653Y-87398847D01*
X149558792Y-87368554D01*
X149540320Y-87333995D01*
X149528945Y-87296499D01*
X149524500Y-87251362D01*
X149524500Y-86512638D01*
X149528945Y-86467501D01*
X149540320Y-86430005D01*
X149558792Y-86395446D01*
X149583653Y-86365153D01*
X149613946Y-86340292D01*
X149648505Y-86321820D01*
X149686001Y-86310445D01*
X149731138Y-86306000D01*
X150369862Y-86306000D01*
X150414999Y-86310445D01*
X150414999Y-86310445D01*
G37*
G36*
X175687999Y-85371945D02*
G01*
X175725495Y-85383320D01*
X175760054Y-85401792D01*
X175790347Y-85426653D01*
X175815208Y-85456946D01*
X175833680Y-85491505D01*
X175845055Y-85529001D01*
X175849500Y-85574138D01*
X175849500Y-86312862D01*
X175845055Y-86357999D01*
X175833680Y-86395495D01*
X175815208Y-86430054D01*
X175790347Y-86460347D01*
X175760054Y-86485208D01*
X175725495Y-86503680D01*
X175687999Y-86515055D01*
X175642862Y-86519500D01*
X175004138Y-86519500D01*
X174959001Y-86515055D01*
X174921505Y-86503680D01*
X174886946Y-86485208D01*
X174856653Y-86460347D01*
X174831792Y-86430054D01*
X174813320Y-86395495D01*
X174801945Y-86357999D01*
X174797500Y-86312862D01*
X174797500Y-85574138D01*
X174801945Y-85529001D01*
X174813320Y-85491505D01*
X174831792Y-85456946D01*
X174856653Y-85426653D01*
X174886946Y-85401792D01*
X174921505Y-85383320D01*
X174959001Y-85371945D01*
X175004138Y-85367500D01*
X175642862Y-85367500D01*
X175687999Y-85371945D01*
X175687999Y-85371945D01*
G37*
G36*
X178608999Y-85371945D02*
G01*
X178646495Y-85383320D01*
X178681054Y-85401792D01*
X178711347Y-85426653D01*
X178736208Y-85456946D01*
X178754680Y-85491505D01*
X178766055Y-85529001D01*
X178770500Y-85574138D01*
X178770500Y-86312862D01*
X178766055Y-86357999D01*
X178754680Y-86395495D01*
X178736208Y-86430054D01*
X178711347Y-86460347D01*
X178681054Y-86485208D01*
X178646495Y-86503680D01*
X178608999Y-86515055D01*
X178563862Y-86519500D01*
X177925138Y-86519500D01*
X177880001Y-86515055D01*
X177842505Y-86503680D01*
X177807946Y-86485208D01*
X177777653Y-86460347D01*
X177752792Y-86430054D01*
X177734320Y-86395495D01*
X177722945Y-86357999D01*
X177718500Y-86312862D01*
X177718500Y-85574138D01*
X177722945Y-85529001D01*
X177734320Y-85491505D01*
X177752792Y-85456946D01*
X177777653Y-85426653D01*
X177807946Y-85401792D01*
X177842505Y-85383320D01*
X177880001Y-85371945D01*
X177925138Y-85367500D01*
X178563862Y-85367500D01*
X178608999Y-85371945D01*
X178608999Y-85371945D01*
G37*
G36*
X154592499Y-84885945D02*
G01*
X154629995Y-84897320D01*
X154664554Y-84915792D01*
X154694847Y-84940653D01*
X154719708Y-84970946D01*
X154738180Y-85005505D01*
X154749555Y-85043001D01*
X154754000Y-85088138D01*
X154754000Y-85726862D01*
X154749555Y-85771999D01*
X154738180Y-85809495D01*
X154719708Y-85844054D01*
X154694847Y-85874347D01*
X154664554Y-85899208D01*
X154629995Y-85917680D01*
X154592499Y-85929055D01*
X154547362Y-85933500D01*
X153808638Y-85933500D01*
X153763501Y-85929055D01*
X153726005Y-85917680D01*
X153691446Y-85899208D01*
X153661153Y-85874347D01*
X153636292Y-85844054D01*
X153617820Y-85809495D01*
X153606445Y-85771999D01*
X153602000Y-85726862D01*
X153602000Y-85088138D01*
X153606445Y-85043001D01*
X153617820Y-85005505D01*
X153636292Y-84970946D01*
X153661153Y-84940653D01*
X153691446Y-84915792D01*
X153726005Y-84897320D01*
X153763501Y-84885945D01*
X153808638Y-84881500D01*
X154547362Y-84881500D01*
X154592499Y-84885945D01*
X154592499Y-84885945D01*
G37*
G36*
X156342499Y-84885945D02*
G01*
X156379995Y-84897320D01*
X156414554Y-84915792D01*
X156444847Y-84940653D01*
X156469708Y-84970946D01*
X156488180Y-85005505D01*
X156499555Y-85043001D01*
X156504000Y-85088138D01*
X156504000Y-85726862D01*
X156499555Y-85771999D01*
X156488180Y-85809495D01*
X156469708Y-85844054D01*
X156444847Y-85874347D01*
X156414554Y-85899208D01*
X156379995Y-85917680D01*
X156342499Y-85929055D01*
X156297362Y-85933500D01*
X155558638Y-85933500D01*
X155513501Y-85929055D01*
X155476005Y-85917680D01*
X155441446Y-85899208D01*
X155411153Y-85874347D01*
X155386292Y-85844054D01*
X155367820Y-85809495D01*
X155356445Y-85771999D01*
X155352000Y-85726862D01*
X155352000Y-85088138D01*
X155356445Y-85043001D01*
X155367820Y-85005505D01*
X155386292Y-84970946D01*
X155411153Y-84940653D01*
X155441446Y-84915792D01*
X155476005Y-84897320D01*
X155513501Y-84885945D01*
X155558638Y-84881500D01*
X156297362Y-84881500D01*
X156342499Y-84885945D01*
X156342499Y-84885945D01*
G37*
G36*
X142558425Y-83872760D02*
G01*
X142558428Y-83872761D01*
X142558429Y-83872761D01*
X142737693Y-83927140D01*
X142737696Y-83927142D01*
X142737697Y-83927142D01*
X142902903Y-84015446D01*
X143047712Y-84134288D01*
X143166554Y-84279097D01*
X143254858Y-84444303D01*
X143254860Y-84444307D01*
X143309239Y-84623571D01*
X143309240Y-84623575D01*
X143327601Y-84810000D01*
X143309240Y-84996425D01*
X143309239Y-84996428D01*
X143309239Y-84996429D01*
X143254860Y-85175693D01*
X143254858Y-85175696D01*
X143254858Y-85175697D01*
X143166554Y-85340903D01*
X143047712Y-85485712D01*
X142902903Y-85604554D01*
X142737697Y-85692858D01*
X142737693Y-85692860D01*
X142558429Y-85747239D01*
X142558428Y-85747239D01*
X142558425Y-85747240D01*
X142418718Y-85761000D01*
X140125282Y-85761000D01*
X139985575Y-85747240D01*
X139985572Y-85747239D01*
X139985571Y-85747239D01*
X139806307Y-85692860D01*
X139806303Y-85692858D01*
X139641097Y-85604554D01*
X139496288Y-85485712D01*
X139377446Y-85340903D01*
X139289142Y-85175697D01*
X139289142Y-85175696D01*
X139289140Y-85175693D01*
X139234761Y-84996429D01*
X139234761Y-84996428D01*
X139234760Y-84996425D01*
X139216399Y-84810000D01*
X139234760Y-84623575D01*
X139234761Y-84623571D01*
X139289140Y-84444307D01*
X139289142Y-84444303D01*
X139377446Y-84279097D01*
X139496288Y-84134288D01*
X139641097Y-84015446D01*
X139806303Y-83927142D01*
X139806304Y-83927142D01*
X139806307Y-83927140D01*
X139985571Y-83872761D01*
X139985572Y-83872761D01*
X139985575Y-83872760D01*
X140125282Y-83859000D01*
X142418718Y-83859000D01*
X142558425Y-83872760D01*
X142558425Y-83872760D01*
G37*
G36*
X167596000Y-85071000D02*
G01*
X165994000Y-85071000D01*
X165994000Y-82569000D01*
X167596000Y-82569000D01*
X167596000Y-85071000D01*
X167596000Y-85071000D01*
G37*
G36*
X173096000Y-85071000D02*
G01*
X171494000Y-85071000D01*
X171494000Y-82569000D01*
X173096000Y-82569000D01*
X173096000Y-85071000D01*
X173096000Y-85071000D01*
G37*
G36*
X162225642Y-80815742D02*
G01*
X162373601Y-80877029D01*
X162506755Y-80965999D01*
X162620001Y-81079245D01*
X162708971Y-81212399D01*
X162770258Y-81360358D01*
X162801500Y-81517425D01*
X162801500Y-81677575D01*
X162770258Y-81834642D01*
X162708971Y-81982601D01*
X162620001Y-82115755D01*
X162506755Y-82229001D01*
X162373601Y-82317971D01*
X162225642Y-82379258D01*
X162068575Y-82410500D01*
X161908425Y-82410500D01*
X161751358Y-82379258D01*
X161603399Y-82317971D01*
X161470245Y-82229001D01*
X161356999Y-82115755D01*
X161268029Y-81982601D01*
X161206742Y-81834642D01*
X161175500Y-81677575D01*
X161175500Y-81517425D01*
X161206742Y-81360358D01*
X161268029Y-81212399D01*
X161356999Y-81079245D01*
X161470245Y-80965999D01*
X161603399Y-80877029D01*
X161751358Y-80815742D01*
X161908425Y-80784500D01*
X162068575Y-80784500D01*
X162225642Y-80815742D01*
X162225642Y-80815742D01*
G37*
G36*
X145223000Y-82261000D02*
G01*
X143321000Y-82261000D01*
X143321000Y-77759000D01*
X145223000Y-77759000D01*
X145223000Y-82261000D01*
X145223000Y-82261000D01*
G37*
G36*
X138658425Y-77972760D02*
G01*
X138658428Y-77972761D01*
X138658429Y-77972761D01*
X138837693Y-78027140D01*
X138837696Y-78027142D01*
X138837697Y-78027142D01*
X139002903Y-78115446D01*
X139147712Y-78234288D01*
X139266554Y-78379097D01*
X139352153Y-78539243D01*
X139354860Y-78544307D01*
X139393716Y-78672399D01*
X139409240Y-78723575D01*
X139423000Y-78863282D01*
X139423000Y-81156718D01*
X139409240Y-81296425D01*
X139409239Y-81296428D01*
X139409239Y-81296429D01*
X139354860Y-81475693D01*
X139354858Y-81475696D01*
X139354858Y-81475697D01*
X139266554Y-81640903D01*
X139147712Y-81785712D01*
X139002903Y-81904554D01*
X138837696Y-81992858D01*
X138837692Y-81992860D01*
X138658428Y-82047239D01*
X138658427Y-82047239D01*
X138658424Y-82047240D01*
X138472000Y-82065601D01*
X138285575Y-82047240D01*
X138285572Y-82047239D01*
X138285571Y-82047239D01*
X138106307Y-81992860D01*
X138106303Y-81992858D01*
X137941097Y-81904554D01*
X137796288Y-81785712D01*
X137677446Y-81640903D01*
X137589142Y-81475696D01*
X137589141Y-81475693D01*
X137589140Y-81475692D01*
X137534761Y-81296428D01*
X137534761Y-81296427D01*
X137534760Y-81296424D01*
X137521000Y-81156717D01*
X137521001Y-78863282D01*
X137534761Y-78723575D01*
X137550285Y-78672399D01*
X137589141Y-78544307D01*
X137591848Y-78539243D01*
X137677447Y-78379097D01*
X137796289Y-78234288D01*
X137941098Y-78115446D01*
X138106304Y-78027142D01*
X138106305Y-78027142D01*
X138106308Y-78027140D01*
X138285572Y-77972761D01*
X138285573Y-77972761D01*
X138285576Y-77972760D01*
X138472000Y-77954399D01*
X138658425Y-77972760D01*
X138658425Y-77972760D01*
G37*
G36*
X162225642Y-78275742D02*
G01*
X162373601Y-78337029D01*
X162506755Y-78425999D01*
X162620001Y-78539245D01*
X162708971Y-78672399D01*
X162770258Y-78820358D01*
X162801500Y-78977425D01*
X162801500Y-79137575D01*
X162770258Y-79294642D01*
X162708971Y-79442601D01*
X162620001Y-79575755D01*
X162506755Y-79689001D01*
X162373601Y-79777971D01*
X162225642Y-79839258D01*
X162068575Y-79870500D01*
X161908425Y-79870500D01*
X161751358Y-79839258D01*
X161603399Y-79777971D01*
X161470245Y-79689001D01*
X161356999Y-79575755D01*
X161268029Y-79442601D01*
X161206742Y-79294642D01*
X161175500Y-79137575D01*
X161175500Y-78977425D01*
X161206742Y-78820358D01*
X161268029Y-78672399D01*
X161356999Y-78539245D01*
X161470245Y-78425999D01*
X161603399Y-78337029D01*
X161751358Y-78275742D01*
X161908425Y-78244500D01*
X162068575Y-78244500D01*
X162225642Y-78275742D01*
X162225642Y-78275742D01*
G37*
G36*
X165224999Y-78662945D02*
G01*
X165262495Y-78674320D01*
X165297054Y-78692792D01*
X165327347Y-78717653D01*
X165352208Y-78747946D01*
X165370680Y-78782505D01*
X165382055Y-78820001D01*
X165386500Y-78865138D01*
X165386500Y-79503862D01*
X165382055Y-79548999D01*
X165370680Y-79586495D01*
X165352208Y-79621054D01*
X165327347Y-79651347D01*
X165297054Y-79676208D01*
X165262495Y-79694680D01*
X165224999Y-79706055D01*
X165179862Y-79710500D01*
X164441138Y-79710500D01*
X164396001Y-79706055D01*
X164358505Y-79694680D01*
X164323946Y-79676208D01*
X164293653Y-79651347D01*
X164268792Y-79621054D01*
X164250320Y-79586495D01*
X164238945Y-79548999D01*
X164234500Y-79503862D01*
X164234500Y-78865138D01*
X164238945Y-78820001D01*
X164250320Y-78782505D01*
X164268792Y-78747946D01*
X164293653Y-78717653D01*
X164323946Y-78692792D01*
X164358505Y-78674320D01*
X164396001Y-78662945D01*
X164441138Y-78658500D01*
X165179862Y-78658500D01*
X165224999Y-78662945D01*
X165224999Y-78662945D01*
G37*
G36*
X166974999Y-78662945D02*
G01*
X167012495Y-78674320D01*
X167047054Y-78692792D01*
X167077347Y-78717653D01*
X167102208Y-78747946D01*
X167120680Y-78782505D01*
X167132055Y-78820001D01*
X167136500Y-78865138D01*
X167136500Y-79503862D01*
X167132055Y-79548999D01*
X167120680Y-79586495D01*
X167102208Y-79621054D01*
X167077347Y-79651347D01*
X167047054Y-79676208D01*
X167012495Y-79694680D01*
X166974999Y-79706055D01*
X166929862Y-79710500D01*
X166191138Y-79710500D01*
X166146001Y-79706055D01*
X166108505Y-79694680D01*
X166073946Y-79676208D01*
X166043653Y-79651347D01*
X166018792Y-79621054D01*
X166000320Y-79586495D01*
X165988945Y-79548999D01*
X165984500Y-79503862D01*
X165984500Y-78865138D01*
X165988945Y-78820001D01*
X166000320Y-78782505D01*
X166018792Y-78747946D01*
X166043653Y-78717653D01*
X166073946Y-78692792D01*
X166108505Y-78674320D01*
X166146001Y-78662945D01*
X166191138Y-78658500D01*
X166929862Y-78658500D01*
X166974999Y-78662945D01*
X166974999Y-78662945D01*
G37*
G36*
X165196999Y-76821445D02*
G01*
X165234495Y-76832820D01*
X165269054Y-76851292D01*
X165299347Y-76876153D01*
X165324208Y-76906446D01*
X165342680Y-76941005D01*
X165354055Y-76978501D01*
X165358500Y-77023638D01*
X165358500Y-77662362D01*
X165354055Y-77707499D01*
X165342680Y-77744995D01*
X165324208Y-77779554D01*
X165299347Y-77809847D01*
X165269054Y-77834708D01*
X165234495Y-77853180D01*
X165196999Y-77864555D01*
X165151862Y-77869000D01*
X164413138Y-77869000D01*
X164368001Y-77864555D01*
X164330505Y-77853180D01*
X164295946Y-77834708D01*
X164265653Y-77809847D01*
X164240792Y-77779554D01*
X164222320Y-77744995D01*
X164210945Y-77707499D01*
X164206500Y-77662362D01*
X164206500Y-77023638D01*
X164210945Y-76978501D01*
X164222320Y-76941005D01*
X164240792Y-76906446D01*
X164265653Y-76876153D01*
X164295946Y-76851292D01*
X164330505Y-76832820D01*
X164368001Y-76821445D01*
X164413138Y-76817000D01*
X165151862Y-76817000D01*
X165196999Y-76821445D01*
X165196999Y-76821445D01*
G37*
G36*
X166946999Y-76821445D02*
G01*
X166984495Y-76832820D01*
X167019054Y-76851292D01*
X167049347Y-76876153D01*
X167074208Y-76906446D01*
X167092680Y-76941005D01*
X167104055Y-76978501D01*
X167108500Y-77023638D01*
X167108500Y-77662362D01*
X167104055Y-77707499D01*
X167092680Y-77744995D01*
X167074208Y-77779554D01*
X167049347Y-77809847D01*
X167019054Y-77834708D01*
X166984495Y-77853180D01*
X166946999Y-77864555D01*
X166901862Y-77869000D01*
X166163138Y-77869000D01*
X166118001Y-77864555D01*
X166080505Y-77853180D01*
X166045946Y-77834708D01*
X166015653Y-77809847D01*
X165990792Y-77779554D01*
X165972320Y-77744995D01*
X165960945Y-77707499D01*
X165956500Y-77662362D01*
X165956500Y-77023638D01*
X165960945Y-76978501D01*
X165972320Y-76941005D01*
X165990792Y-76906446D01*
X166015653Y-76876153D01*
X166045946Y-76851292D01*
X166080505Y-76832820D01*
X166118001Y-76821445D01*
X166163138Y-76817000D01*
X166901862Y-76817000D01*
X166946999Y-76821445D01*
X166946999Y-76821445D01*
G37*
G36*
X162225642Y-75735742D02*
G01*
X162373601Y-75797029D01*
X162506755Y-75885999D01*
X162620001Y-75999245D01*
X162708971Y-76132399D01*
X162770258Y-76280358D01*
X162801500Y-76437425D01*
X162801500Y-76597575D01*
X162770258Y-76754642D01*
X162708971Y-76902601D01*
X162620001Y-77035755D01*
X162506755Y-77149001D01*
X162373601Y-77237971D01*
X162225642Y-77299258D01*
X162068575Y-77330500D01*
X161908425Y-77330500D01*
X161751358Y-77299258D01*
X161603399Y-77237971D01*
X161470245Y-77149001D01*
X161356999Y-77035755D01*
X161268029Y-76902601D01*
X161206742Y-76754642D01*
X161175500Y-76597575D01*
X161175500Y-76437425D01*
X161206742Y-76280358D01*
X161268029Y-76132399D01*
X161356999Y-75999245D01*
X161470245Y-75885999D01*
X161603399Y-75797029D01*
X161751358Y-75735742D01*
X161908425Y-75704500D01*
X162068575Y-75704500D01*
X162225642Y-75735742D01*
X162225642Y-75735742D01*
G37*
M02*
