G04 #@! TF.GenerationSoftware,KiCad,Pcbnew,(5.1.4)-1*
G04 #@! TF.CreationDate,2020-10-30T07:47:56-05:00*
G04 #@! TF.ProjectId,TAS5806M_Breakout_Hardware,54415335-3830-4364-9d5f-427265616b6f,rev?*
G04 #@! TF.SameCoordinates,Original*
G04 #@! TF.FileFunction,Paste,Top*
G04 #@! TF.FilePolarity,Positive*
%FSLAX46Y46*%
G04 Gerber Fmt 4.6, Leading zero omitted, Abs format (unit mm)*
G04 Created by KiCad (PCBNEW (5.1.4)-1) date 2020-10-30 07:47:56*
%MOMM*%
%LPD*%
G04 APERTURE LIST*
%ADD10C,0.100000*%
%ADD11C,1.425000*%
%ADD12C,0.950000*%
%ADD13R,4.700000X2.900000*%
%ADD14R,0.285000X1.100000*%
%ADD15R,1.500000X2.400000*%
G04 APERTURE END LIST*
D10*
G36*
X153429904Y-86895904D02*
G01*
X153454173Y-86899504D01*
X153477971Y-86905465D01*
X153501071Y-86913730D01*
X153523249Y-86924220D01*
X153544293Y-86936833D01*
X153563998Y-86951447D01*
X153582177Y-86967923D01*
X153598653Y-86986102D01*
X153613267Y-87005807D01*
X153625880Y-87026851D01*
X153636370Y-87049029D01*
X153644635Y-87072129D01*
X153650596Y-87095927D01*
X153654196Y-87120196D01*
X153655400Y-87144700D01*
X153655400Y-88394700D01*
X153654196Y-88419204D01*
X153650596Y-88443473D01*
X153644635Y-88467271D01*
X153636370Y-88490371D01*
X153625880Y-88512549D01*
X153613267Y-88533593D01*
X153598653Y-88553298D01*
X153582177Y-88571477D01*
X153563998Y-88587953D01*
X153544293Y-88602567D01*
X153523249Y-88615180D01*
X153501071Y-88625670D01*
X153477971Y-88633935D01*
X153454173Y-88639896D01*
X153429904Y-88643496D01*
X153405400Y-88644700D01*
X152480400Y-88644700D01*
X152455896Y-88643496D01*
X152431627Y-88639896D01*
X152407829Y-88633935D01*
X152384729Y-88625670D01*
X152362551Y-88615180D01*
X152341507Y-88602567D01*
X152321802Y-88587953D01*
X152303623Y-88571477D01*
X152287147Y-88553298D01*
X152272533Y-88533593D01*
X152259920Y-88512549D01*
X152249430Y-88490371D01*
X152241165Y-88467271D01*
X152235204Y-88443473D01*
X152231604Y-88419204D01*
X152230400Y-88394700D01*
X152230400Y-87144700D01*
X152231604Y-87120196D01*
X152235204Y-87095927D01*
X152241165Y-87072129D01*
X152249430Y-87049029D01*
X152259920Y-87026851D01*
X152272533Y-87005807D01*
X152287147Y-86986102D01*
X152303623Y-86967923D01*
X152321802Y-86951447D01*
X152341507Y-86936833D01*
X152362551Y-86924220D01*
X152384729Y-86913730D01*
X152407829Y-86905465D01*
X152431627Y-86899504D01*
X152455896Y-86895904D01*
X152480400Y-86894700D01*
X153405400Y-86894700D01*
X153429904Y-86895904D01*
X153429904Y-86895904D01*
G37*
D11*
X152942900Y-87769700D03*
D10*
G36*
X156404904Y-86895904D02*
G01*
X156429173Y-86899504D01*
X156452971Y-86905465D01*
X156476071Y-86913730D01*
X156498249Y-86924220D01*
X156519293Y-86936833D01*
X156538998Y-86951447D01*
X156557177Y-86967923D01*
X156573653Y-86986102D01*
X156588267Y-87005807D01*
X156600880Y-87026851D01*
X156611370Y-87049029D01*
X156619635Y-87072129D01*
X156625596Y-87095927D01*
X156629196Y-87120196D01*
X156630400Y-87144700D01*
X156630400Y-88394700D01*
X156629196Y-88419204D01*
X156625596Y-88443473D01*
X156619635Y-88467271D01*
X156611370Y-88490371D01*
X156600880Y-88512549D01*
X156588267Y-88533593D01*
X156573653Y-88553298D01*
X156557177Y-88571477D01*
X156538998Y-88587953D01*
X156519293Y-88602567D01*
X156498249Y-88615180D01*
X156476071Y-88625670D01*
X156452971Y-88633935D01*
X156429173Y-88639896D01*
X156404904Y-88643496D01*
X156380400Y-88644700D01*
X155455400Y-88644700D01*
X155430896Y-88643496D01*
X155406627Y-88639896D01*
X155382829Y-88633935D01*
X155359729Y-88625670D01*
X155337551Y-88615180D01*
X155316507Y-88602567D01*
X155296802Y-88587953D01*
X155278623Y-88571477D01*
X155262147Y-88553298D01*
X155247533Y-88533593D01*
X155234920Y-88512549D01*
X155224430Y-88490371D01*
X155216165Y-88467271D01*
X155210204Y-88443473D01*
X155206604Y-88419204D01*
X155205400Y-88394700D01*
X155205400Y-87144700D01*
X155206604Y-87120196D01*
X155210204Y-87095927D01*
X155216165Y-87072129D01*
X155224430Y-87049029D01*
X155234920Y-87026851D01*
X155247533Y-87005807D01*
X155262147Y-86986102D01*
X155278623Y-86967923D01*
X155296802Y-86951447D01*
X155316507Y-86936833D01*
X155337551Y-86924220D01*
X155359729Y-86913730D01*
X155382829Y-86905465D01*
X155406627Y-86899504D01*
X155430896Y-86895904D01*
X155455400Y-86894700D01*
X156380400Y-86894700D01*
X156404904Y-86895904D01*
X156404904Y-86895904D01*
G37*
D11*
X155917900Y-87769700D03*
D10*
G36*
X153442604Y-108079504D02*
G01*
X153466873Y-108083104D01*
X153490671Y-108089065D01*
X153513771Y-108097330D01*
X153535949Y-108107820D01*
X153556993Y-108120433D01*
X153576698Y-108135047D01*
X153594877Y-108151523D01*
X153611353Y-108169702D01*
X153625967Y-108189407D01*
X153638580Y-108210451D01*
X153649070Y-108232629D01*
X153657335Y-108255729D01*
X153663296Y-108279527D01*
X153666896Y-108303796D01*
X153668100Y-108328300D01*
X153668100Y-109578300D01*
X153666896Y-109602804D01*
X153663296Y-109627073D01*
X153657335Y-109650871D01*
X153649070Y-109673971D01*
X153638580Y-109696149D01*
X153625967Y-109717193D01*
X153611353Y-109736898D01*
X153594877Y-109755077D01*
X153576698Y-109771553D01*
X153556993Y-109786167D01*
X153535949Y-109798780D01*
X153513771Y-109809270D01*
X153490671Y-109817535D01*
X153466873Y-109823496D01*
X153442604Y-109827096D01*
X153418100Y-109828300D01*
X152493100Y-109828300D01*
X152468596Y-109827096D01*
X152444327Y-109823496D01*
X152420529Y-109817535D01*
X152397429Y-109809270D01*
X152375251Y-109798780D01*
X152354207Y-109786167D01*
X152334502Y-109771553D01*
X152316323Y-109755077D01*
X152299847Y-109736898D01*
X152285233Y-109717193D01*
X152272620Y-109696149D01*
X152262130Y-109673971D01*
X152253865Y-109650871D01*
X152247904Y-109627073D01*
X152244304Y-109602804D01*
X152243100Y-109578300D01*
X152243100Y-108328300D01*
X152244304Y-108303796D01*
X152247904Y-108279527D01*
X152253865Y-108255729D01*
X152262130Y-108232629D01*
X152272620Y-108210451D01*
X152285233Y-108189407D01*
X152299847Y-108169702D01*
X152316323Y-108151523D01*
X152334502Y-108135047D01*
X152354207Y-108120433D01*
X152375251Y-108107820D01*
X152397429Y-108097330D01*
X152420529Y-108089065D01*
X152444327Y-108083104D01*
X152468596Y-108079504D01*
X152493100Y-108078300D01*
X153418100Y-108078300D01*
X153442604Y-108079504D01*
X153442604Y-108079504D01*
G37*
D11*
X152955600Y-108953300D03*
D10*
G36*
X156417604Y-108079504D02*
G01*
X156441873Y-108083104D01*
X156465671Y-108089065D01*
X156488771Y-108097330D01*
X156510949Y-108107820D01*
X156531993Y-108120433D01*
X156551698Y-108135047D01*
X156569877Y-108151523D01*
X156586353Y-108169702D01*
X156600967Y-108189407D01*
X156613580Y-108210451D01*
X156624070Y-108232629D01*
X156632335Y-108255729D01*
X156638296Y-108279527D01*
X156641896Y-108303796D01*
X156643100Y-108328300D01*
X156643100Y-109578300D01*
X156641896Y-109602804D01*
X156638296Y-109627073D01*
X156632335Y-109650871D01*
X156624070Y-109673971D01*
X156613580Y-109696149D01*
X156600967Y-109717193D01*
X156586353Y-109736898D01*
X156569877Y-109755077D01*
X156551698Y-109771553D01*
X156531993Y-109786167D01*
X156510949Y-109798780D01*
X156488771Y-109809270D01*
X156465671Y-109817535D01*
X156441873Y-109823496D01*
X156417604Y-109827096D01*
X156393100Y-109828300D01*
X155468100Y-109828300D01*
X155443596Y-109827096D01*
X155419327Y-109823496D01*
X155395529Y-109817535D01*
X155372429Y-109809270D01*
X155350251Y-109798780D01*
X155329207Y-109786167D01*
X155309502Y-109771553D01*
X155291323Y-109755077D01*
X155274847Y-109736898D01*
X155260233Y-109717193D01*
X155247620Y-109696149D01*
X155237130Y-109673971D01*
X155228865Y-109650871D01*
X155222904Y-109627073D01*
X155219304Y-109602804D01*
X155218100Y-109578300D01*
X155218100Y-108328300D01*
X155219304Y-108303796D01*
X155222904Y-108279527D01*
X155228865Y-108255729D01*
X155237130Y-108232629D01*
X155247620Y-108210451D01*
X155260233Y-108189407D01*
X155274847Y-108169702D01*
X155291323Y-108151523D01*
X155309502Y-108135047D01*
X155329207Y-108120433D01*
X155350251Y-108107820D01*
X155372429Y-108097330D01*
X155395529Y-108089065D01*
X155419327Y-108083104D01*
X155443596Y-108079504D01*
X155468100Y-108078300D01*
X156393100Y-108078300D01*
X156417604Y-108079504D01*
X156417604Y-108079504D01*
G37*
D11*
X155930600Y-108953300D03*
D10*
G36*
X166871279Y-78710644D02*
G01*
X166894334Y-78714063D01*
X166916943Y-78719727D01*
X166938887Y-78727579D01*
X166959957Y-78737544D01*
X166979948Y-78749526D01*
X166998668Y-78763410D01*
X167015938Y-78779062D01*
X167031590Y-78796332D01*
X167045474Y-78815052D01*
X167057456Y-78835043D01*
X167067421Y-78856113D01*
X167075273Y-78878057D01*
X167080937Y-78900666D01*
X167084356Y-78923721D01*
X167085500Y-78947000D01*
X167085500Y-79422000D01*
X167084356Y-79445279D01*
X167080937Y-79468334D01*
X167075273Y-79490943D01*
X167067421Y-79512887D01*
X167057456Y-79533957D01*
X167045474Y-79553948D01*
X167031590Y-79572668D01*
X167015938Y-79589938D01*
X166998668Y-79605590D01*
X166979948Y-79619474D01*
X166959957Y-79631456D01*
X166938887Y-79641421D01*
X166916943Y-79649273D01*
X166894334Y-79654937D01*
X166871279Y-79658356D01*
X166848000Y-79659500D01*
X166273000Y-79659500D01*
X166249721Y-79658356D01*
X166226666Y-79654937D01*
X166204057Y-79649273D01*
X166182113Y-79641421D01*
X166161043Y-79631456D01*
X166141052Y-79619474D01*
X166122332Y-79605590D01*
X166105062Y-79589938D01*
X166089410Y-79572668D01*
X166075526Y-79553948D01*
X166063544Y-79533957D01*
X166053579Y-79512887D01*
X166045727Y-79490943D01*
X166040063Y-79468334D01*
X166036644Y-79445279D01*
X166035500Y-79422000D01*
X166035500Y-78947000D01*
X166036644Y-78923721D01*
X166040063Y-78900666D01*
X166045727Y-78878057D01*
X166053579Y-78856113D01*
X166063544Y-78835043D01*
X166075526Y-78815052D01*
X166089410Y-78796332D01*
X166105062Y-78779062D01*
X166122332Y-78763410D01*
X166141052Y-78749526D01*
X166161043Y-78737544D01*
X166182113Y-78727579D01*
X166204057Y-78719727D01*
X166226666Y-78714063D01*
X166249721Y-78710644D01*
X166273000Y-78709500D01*
X166848000Y-78709500D01*
X166871279Y-78710644D01*
X166871279Y-78710644D01*
G37*
D12*
X166560500Y-79184500D03*
D10*
G36*
X165121279Y-78710644D02*
G01*
X165144334Y-78714063D01*
X165166943Y-78719727D01*
X165188887Y-78727579D01*
X165209957Y-78737544D01*
X165229948Y-78749526D01*
X165248668Y-78763410D01*
X165265938Y-78779062D01*
X165281590Y-78796332D01*
X165295474Y-78815052D01*
X165307456Y-78835043D01*
X165317421Y-78856113D01*
X165325273Y-78878057D01*
X165330937Y-78900666D01*
X165334356Y-78923721D01*
X165335500Y-78947000D01*
X165335500Y-79422000D01*
X165334356Y-79445279D01*
X165330937Y-79468334D01*
X165325273Y-79490943D01*
X165317421Y-79512887D01*
X165307456Y-79533957D01*
X165295474Y-79553948D01*
X165281590Y-79572668D01*
X165265938Y-79589938D01*
X165248668Y-79605590D01*
X165229948Y-79619474D01*
X165209957Y-79631456D01*
X165188887Y-79641421D01*
X165166943Y-79649273D01*
X165144334Y-79654937D01*
X165121279Y-79658356D01*
X165098000Y-79659500D01*
X164523000Y-79659500D01*
X164499721Y-79658356D01*
X164476666Y-79654937D01*
X164454057Y-79649273D01*
X164432113Y-79641421D01*
X164411043Y-79631456D01*
X164391052Y-79619474D01*
X164372332Y-79605590D01*
X164355062Y-79589938D01*
X164339410Y-79572668D01*
X164325526Y-79553948D01*
X164313544Y-79533957D01*
X164303579Y-79512887D01*
X164295727Y-79490943D01*
X164290063Y-79468334D01*
X164286644Y-79445279D01*
X164285500Y-79422000D01*
X164285500Y-78947000D01*
X164286644Y-78923721D01*
X164290063Y-78900666D01*
X164295727Y-78878057D01*
X164303579Y-78856113D01*
X164313544Y-78835043D01*
X164325526Y-78815052D01*
X164339410Y-78796332D01*
X164355062Y-78779062D01*
X164372332Y-78763410D01*
X164391052Y-78749526D01*
X164411043Y-78737544D01*
X164432113Y-78727579D01*
X164454057Y-78719727D01*
X164476666Y-78714063D01*
X164499721Y-78710644D01*
X164523000Y-78709500D01*
X165098000Y-78709500D01*
X165121279Y-78710644D01*
X165121279Y-78710644D01*
G37*
D12*
X164810500Y-79184500D03*
D10*
G36*
X166843279Y-76869144D02*
G01*
X166866334Y-76872563D01*
X166888943Y-76878227D01*
X166910887Y-76886079D01*
X166931957Y-76896044D01*
X166951948Y-76908026D01*
X166970668Y-76921910D01*
X166987938Y-76937562D01*
X167003590Y-76954832D01*
X167017474Y-76973552D01*
X167029456Y-76993543D01*
X167039421Y-77014613D01*
X167047273Y-77036557D01*
X167052937Y-77059166D01*
X167056356Y-77082221D01*
X167057500Y-77105500D01*
X167057500Y-77580500D01*
X167056356Y-77603779D01*
X167052937Y-77626834D01*
X167047273Y-77649443D01*
X167039421Y-77671387D01*
X167029456Y-77692457D01*
X167017474Y-77712448D01*
X167003590Y-77731168D01*
X166987938Y-77748438D01*
X166970668Y-77764090D01*
X166951948Y-77777974D01*
X166931957Y-77789956D01*
X166910887Y-77799921D01*
X166888943Y-77807773D01*
X166866334Y-77813437D01*
X166843279Y-77816856D01*
X166820000Y-77818000D01*
X166245000Y-77818000D01*
X166221721Y-77816856D01*
X166198666Y-77813437D01*
X166176057Y-77807773D01*
X166154113Y-77799921D01*
X166133043Y-77789956D01*
X166113052Y-77777974D01*
X166094332Y-77764090D01*
X166077062Y-77748438D01*
X166061410Y-77731168D01*
X166047526Y-77712448D01*
X166035544Y-77692457D01*
X166025579Y-77671387D01*
X166017727Y-77649443D01*
X166012063Y-77626834D01*
X166008644Y-77603779D01*
X166007500Y-77580500D01*
X166007500Y-77105500D01*
X166008644Y-77082221D01*
X166012063Y-77059166D01*
X166017727Y-77036557D01*
X166025579Y-77014613D01*
X166035544Y-76993543D01*
X166047526Y-76973552D01*
X166061410Y-76954832D01*
X166077062Y-76937562D01*
X166094332Y-76921910D01*
X166113052Y-76908026D01*
X166133043Y-76896044D01*
X166154113Y-76886079D01*
X166176057Y-76878227D01*
X166198666Y-76872563D01*
X166221721Y-76869144D01*
X166245000Y-76868000D01*
X166820000Y-76868000D01*
X166843279Y-76869144D01*
X166843279Y-76869144D01*
G37*
D12*
X166532500Y-77343000D03*
D10*
G36*
X165093279Y-76869144D02*
G01*
X165116334Y-76872563D01*
X165138943Y-76878227D01*
X165160887Y-76886079D01*
X165181957Y-76896044D01*
X165201948Y-76908026D01*
X165220668Y-76921910D01*
X165237938Y-76937562D01*
X165253590Y-76954832D01*
X165267474Y-76973552D01*
X165279456Y-76993543D01*
X165289421Y-77014613D01*
X165297273Y-77036557D01*
X165302937Y-77059166D01*
X165306356Y-77082221D01*
X165307500Y-77105500D01*
X165307500Y-77580500D01*
X165306356Y-77603779D01*
X165302937Y-77626834D01*
X165297273Y-77649443D01*
X165289421Y-77671387D01*
X165279456Y-77692457D01*
X165267474Y-77712448D01*
X165253590Y-77731168D01*
X165237938Y-77748438D01*
X165220668Y-77764090D01*
X165201948Y-77777974D01*
X165181957Y-77789956D01*
X165160887Y-77799921D01*
X165138943Y-77807773D01*
X165116334Y-77813437D01*
X165093279Y-77816856D01*
X165070000Y-77818000D01*
X164495000Y-77818000D01*
X164471721Y-77816856D01*
X164448666Y-77813437D01*
X164426057Y-77807773D01*
X164404113Y-77799921D01*
X164383043Y-77789956D01*
X164363052Y-77777974D01*
X164344332Y-77764090D01*
X164327062Y-77748438D01*
X164311410Y-77731168D01*
X164297526Y-77712448D01*
X164285544Y-77692457D01*
X164275579Y-77671387D01*
X164267727Y-77649443D01*
X164262063Y-77626834D01*
X164258644Y-77603779D01*
X164257500Y-77580500D01*
X164257500Y-77105500D01*
X164258644Y-77082221D01*
X164262063Y-77059166D01*
X164267727Y-77036557D01*
X164275579Y-77014613D01*
X164285544Y-76993543D01*
X164297526Y-76973552D01*
X164311410Y-76954832D01*
X164327062Y-76937562D01*
X164344332Y-76921910D01*
X164363052Y-76908026D01*
X164383043Y-76896044D01*
X164404113Y-76886079D01*
X164426057Y-76878227D01*
X164448666Y-76872563D01*
X164471721Y-76869144D01*
X164495000Y-76868000D01*
X165070000Y-76868000D01*
X165093279Y-76869144D01*
X165093279Y-76869144D01*
G37*
D12*
X164782500Y-77343000D03*
D13*
X154178000Y-98425000D03*
D14*
X158678000Y-101275000D03*
X158178000Y-101275000D03*
X157678000Y-101275000D03*
X157178000Y-101275000D03*
X156678000Y-101275000D03*
X156178000Y-101275000D03*
X155678000Y-101275000D03*
X155178000Y-101275000D03*
X154678000Y-101275000D03*
X154178000Y-101275000D03*
X153678000Y-101275000D03*
X153178000Y-101275000D03*
X152678000Y-101275000D03*
X152178000Y-101275000D03*
X151678000Y-101275000D03*
X151178000Y-101275000D03*
X150678000Y-101275000D03*
X150178000Y-101275000D03*
X149678000Y-101275000D03*
X149678000Y-95575000D03*
X150178000Y-95575000D03*
X150678000Y-95575000D03*
X151178000Y-95575000D03*
X151678000Y-95575000D03*
X152178000Y-95575000D03*
X152678000Y-95575000D03*
X153178000Y-95575000D03*
X153678000Y-95575000D03*
X154178000Y-95575000D03*
X154678000Y-95575000D03*
X155178000Y-95575000D03*
X155678000Y-95575000D03*
X156178000Y-95575000D03*
X156678000Y-95575000D03*
X157178000Y-95575000D03*
X157678000Y-95575000D03*
X158178000Y-95575000D03*
X158678000Y-95575000D03*
D10*
G36*
X147771279Y-86372144D02*
G01*
X147794334Y-86375563D01*
X147816943Y-86381227D01*
X147838887Y-86389079D01*
X147859957Y-86399044D01*
X147879948Y-86411026D01*
X147898668Y-86424910D01*
X147915938Y-86440562D01*
X147931590Y-86457832D01*
X147945474Y-86476552D01*
X147957456Y-86496543D01*
X147967421Y-86517613D01*
X147975273Y-86539557D01*
X147980937Y-86562166D01*
X147984356Y-86585221D01*
X147985500Y-86608500D01*
X147985500Y-87183500D01*
X147984356Y-87206779D01*
X147980937Y-87229834D01*
X147975273Y-87252443D01*
X147967421Y-87274387D01*
X147957456Y-87295457D01*
X147945474Y-87315448D01*
X147931590Y-87334168D01*
X147915938Y-87351438D01*
X147898668Y-87367090D01*
X147879948Y-87380974D01*
X147859957Y-87392956D01*
X147838887Y-87402921D01*
X147816943Y-87410773D01*
X147794334Y-87416437D01*
X147771279Y-87419856D01*
X147748000Y-87421000D01*
X147273000Y-87421000D01*
X147249721Y-87419856D01*
X147226666Y-87416437D01*
X147204057Y-87410773D01*
X147182113Y-87402921D01*
X147161043Y-87392956D01*
X147141052Y-87380974D01*
X147122332Y-87367090D01*
X147105062Y-87351438D01*
X147089410Y-87334168D01*
X147075526Y-87315448D01*
X147063544Y-87295457D01*
X147053579Y-87274387D01*
X147045727Y-87252443D01*
X147040063Y-87229834D01*
X147036644Y-87206779D01*
X147035500Y-87183500D01*
X147035500Y-86608500D01*
X147036644Y-86585221D01*
X147040063Y-86562166D01*
X147045727Y-86539557D01*
X147053579Y-86517613D01*
X147063544Y-86496543D01*
X147075526Y-86476552D01*
X147089410Y-86457832D01*
X147105062Y-86440562D01*
X147122332Y-86424910D01*
X147141052Y-86411026D01*
X147161043Y-86399044D01*
X147182113Y-86389079D01*
X147204057Y-86381227D01*
X147226666Y-86375563D01*
X147249721Y-86372144D01*
X147273000Y-86371000D01*
X147748000Y-86371000D01*
X147771279Y-86372144D01*
X147771279Y-86372144D01*
G37*
D12*
X147510500Y-86896000D03*
D10*
G36*
X147771279Y-88122144D02*
G01*
X147794334Y-88125563D01*
X147816943Y-88131227D01*
X147838887Y-88139079D01*
X147859957Y-88149044D01*
X147879948Y-88161026D01*
X147898668Y-88174910D01*
X147915938Y-88190562D01*
X147931590Y-88207832D01*
X147945474Y-88226552D01*
X147957456Y-88246543D01*
X147967421Y-88267613D01*
X147975273Y-88289557D01*
X147980937Y-88312166D01*
X147984356Y-88335221D01*
X147985500Y-88358500D01*
X147985500Y-88933500D01*
X147984356Y-88956779D01*
X147980937Y-88979834D01*
X147975273Y-89002443D01*
X147967421Y-89024387D01*
X147957456Y-89045457D01*
X147945474Y-89065448D01*
X147931590Y-89084168D01*
X147915938Y-89101438D01*
X147898668Y-89117090D01*
X147879948Y-89130974D01*
X147859957Y-89142956D01*
X147838887Y-89152921D01*
X147816943Y-89160773D01*
X147794334Y-89166437D01*
X147771279Y-89169856D01*
X147748000Y-89171000D01*
X147273000Y-89171000D01*
X147249721Y-89169856D01*
X147226666Y-89166437D01*
X147204057Y-89160773D01*
X147182113Y-89152921D01*
X147161043Y-89142956D01*
X147141052Y-89130974D01*
X147122332Y-89117090D01*
X147105062Y-89101438D01*
X147089410Y-89084168D01*
X147075526Y-89065448D01*
X147063544Y-89045457D01*
X147053579Y-89024387D01*
X147045727Y-89002443D01*
X147040063Y-88979834D01*
X147036644Y-88956779D01*
X147035500Y-88933500D01*
X147035500Y-88358500D01*
X147036644Y-88335221D01*
X147040063Y-88312166D01*
X147045727Y-88289557D01*
X147053579Y-88267613D01*
X147063544Y-88246543D01*
X147075526Y-88226552D01*
X147089410Y-88207832D01*
X147105062Y-88190562D01*
X147122332Y-88174910D01*
X147141052Y-88161026D01*
X147161043Y-88149044D01*
X147182113Y-88139079D01*
X147204057Y-88131227D01*
X147226666Y-88125563D01*
X147249721Y-88122144D01*
X147273000Y-88121000D01*
X147748000Y-88121000D01*
X147771279Y-88122144D01*
X147771279Y-88122144D01*
G37*
D12*
X147510500Y-88646000D03*
D10*
G36*
X144455779Y-89442144D02*
G01*
X144478834Y-89445563D01*
X144501443Y-89451227D01*
X144523387Y-89459079D01*
X144544457Y-89469044D01*
X144564448Y-89481026D01*
X144583168Y-89494910D01*
X144600438Y-89510562D01*
X144616090Y-89527832D01*
X144629974Y-89546552D01*
X144641956Y-89566543D01*
X144651921Y-89587613D01*
X144659773Y-89609557D01*
X144665437Y-89632166D01*
X144668856Y-89655221D01*
X144670000Y-89678500D01*
X144670000Y-90153500D01*
X144668856Y-90176779D01*
X144665437Y-90199834D01*
X144659773Y-90222443D01*
X144651921Y-90244387D01*
X144641956Y-90265457D01*
X144629974Y-90285448D01*
X144616090Y-90304168D01*
X144600438Y-90321438D01*
X144583168Y-90337090D01*
X144564448Y-90350974D01*
X144544457Y-90362956D01*
X144523387Y-90372921D01*
X144501443Y-90380773D01*
X144478834Y-90386437D01*
X144455779Y-90389856D01*
X144432500Y-90391000D01*
X143857500Y-90391000D01*
X143834221Y-90389856D01*
X143811166Y-90386437D01*
X143788557Y-90380773D01*
X143766613Y-90372921D01*
X143745543Y-90362956D01*
X143725552Y-90350974D01*
X143706832Y-90337090D01*
X143689562Y-90321438D01*
X143673910Y-90304168D01*
X143660026Y-90285448D01*
X143648044Y-90265457D01*
X143638079Y-90244387D01*
X143630227Y-90222443D01*
X143624563Y-90199834D01*
X143621144Y-90176779D01*
X143620000Y-90153500D01*
X143620000Y-89678500D01*
X143621144Y-89655221D01*
X143624563Y-89632166D01*
X143630227Y-89609557D01*
X143638079Y-89587613D01*
X143648044Y-89566543D01*
X143660026Y-89546552D01*
X143673910Y-89527832D01*
X143689562Y-89510562D01*
X143706832Y-89494910D01*
X143725552Y-89481026D01*
X143745543Y-89469044D01*
X143766613Y-89459079D01*
X143788557Y-89451227D01*
X143811166Y-89445563D01*
X143834221Y-89442144D01*
X143857500Y-89441000D01*
X144432500Y-89441000D01*
X144455779Y-89442144D01*
X144455779Y-89442144D01*
G37*
D12*
X144145000Y-89916000D03*
D10*
G36*
X142705779Y-89442144D02*
G01*
X142728834Y-89445563D01*
X142751443Y-89451227D01*
X142773387Y-89459079D01*
X142794457Y-89469044D01*
X142814448Y-89481026D01*
X142833168Y-89494910D01*
X142850438Y-89510562D01*
X142866090Y-89527832D01*
X142879974Y-89546552D01*
X142891956Y-89566543D01*
X142901921Y-89587613D01*
X142909773Y-89609557D01*
X142915437Y-89632166D01*
X142918856Y-89655221D01*
X142920000Y-89678500D01*
X142920000Y-90153500D01*
X142918856Y-90176779D01*
X142915437Y-90199834D01*
X142909773Y-90222443D01*
X142901921Y-90244387D01*
X142891956Y-90265457D01*
X142879974Y-90285448D01*
X142866090Y-90304168D01*
X142850438Y-90321438D01*
X142833168Y-90337090D01*
X142814448Y-90350974D01*
X142794457Y-90362956D01*
X142773387Y-90372921D01*
X142751443Y-90380773D01*
X142728834Y-90386437D01*
X142705779Y-90389856D01*
X142682500Y-90391000D01*
X142107500Y-90391000D01*
X142084221Y-90389856D01*
X142061166Y-90386437D01*
X142038557Y-90380773D01*
X142016613Y-90372921D01*
X141995543Y-90362956D01*
X141975552Y-90350974D01*
X141956832Y-90337090D01*
X141939562Y-90321438D01*
X141923910Y-90304168D01*
X141910026Y-90285448D01*
X141898044Y-90265457D01*
X141888079Y-90244387D01*
X141880227Y-90222443D01*
X141874563Y-90199834D01*
X141871144Y-90176779D01*
X141870000Y-90153500D01*
X141870000Y-89678500D01*
X141871144Y-89655221D01*
X141874563Y-89632166D01*
X141880227Y-89609557D01*
X141888079Y-89587613D01*
X141898044Y-89566543D01*
X141910026Y-89546552D01*
X141923910Y-89527832D01*
X141939562Y-89510562D01*
X141956832Y-89494910D01*
X141975552Y-89481026D01*
X141995543Y-89469044D01*
X142016613Y-89459079D01*
X142038557Y-89451227D01*
X142061166Y-89445563D01*
X142084221Y-89442144D01*
X142107500Y-89441000D01*
X142682500Y-89441000D01*
X142705779Y-89442144D01*
X142705779Y-89442144D01*
G37*
D12*
X142395000Y-89916000D03*
D10*
G36*
X134309279Y-105761144D02*
G01*
X134332334Y-105764563D01*
X134354943Y-105770227D01*
X134376887Y-105778079D01*
X134397957Y-105788044D01*
X134417948Y-105800026D01*
X134436668Y-105813910D01*
X134453938Y-105829562D01*
X134469590Y-105846832D01*
X134483474Y-105865552D01*
X134495456Y-105885543D01*
X134505421Y-105906613D01*
X134513273Y-105928557D01*
X134518937Y-105951166D01*
X134522356Y-105974221D01*
X134523500Y-105997500D01*
X134523500Y-106572500D01*
X134522356Y-106595779D01*
X134518937Y-106618834D01*
X134513273Y-106641443D01*
X134505421Y-106663387D01*
X134495456Y-106684457D01*
X134483474Y-106704448D01*
X134469590Y-106723168D01*
X134453938Y-106740438D01*
X134436668Y-106756090D01*
X134417948Y-106769974D01*
X134397957Y-106781956D01*
X134376887Y-106791921D01*
X134354943Y-106799773D01*
X134332334Y-106805437D01*
X134309279Y-106808856D01*
X134286000Y-106810000D01*
X133811000Y-106810000D01*
X133787721Y-106808856D01*
X133764666Y-106805437D01*
X133742057Y-106799773D01*
X133720113Y-106791921D01*
X133699043Y-106781956D01*
X133679052Y-106769974D01*
X133660332Y-106756090D01*
X133643062Y-106740438D01*
X133627410Y-106723168D01*
X133613526Y-106704448D01*
X133601544Y-106684457D01*
X133591579Y-106663387D01*
X133583727Y-106641443D01*
X133578063Y-106618834D01*
X133574644Y-106595779D01*
X133573500Y-106572500D01*
X133573500Y-105997500D01*
X133574644Y-105974221D01*
X133578063Y-105951166D01*
X133583727Y-105928557D01*
X133591579Y-105906613D01*
X133601544Y-105885543D01*
X133613526Y-105865552D01*
X133627410Y-105846832D01*
X133643062Y-105829562D01*
X133660332Y-105813910D01*
X133679052Y-105800026D01*
X133699043Y-105788044D01*
X133720113Y-105778079D01*
X133742057Y-105770227D01*
X133764666Y-105764563D01*
X133787721Y-105761144D01*
X133811000Y-105760000D01*
X134286000Y-105760000D01*
X134309279Y-105761144D01*
X134309279Y-105761144D01*
G37*
D12*
X134048500Y-106285000D03*
D10*
G36*
X134309279Y-104011144D02*
G01*
X134332334Y-104014563D01*
X134354943Y-104020227D01*
X134376887Y-104028079D01*
X134397957Y-104038044D01*
X134417948Y-104050026D01*
X134436668Y-104063910D01*
X134453938Y-104079562D01*
X134469590Y-104096832D01*
X134483474Y-104115552D01*
X134495456Y-104135543D01*
X134505421Y-104156613D01*
X134513273Y-104178557D01*
X134518937Y-104201166D01*
X134522356Y-104224221D01*
X134523500Y-104247500D01*
X134523500Y-104822500D01*
X134522356Y-104845779D01*
X134518937Y-104868834D01*
X134513273Y-104891443D01*
X134505421Y-104913387D01*
X134495456Y-104934457D01*
X134483474Y-104954448D01*
X134469590Y-104973168D01*
X134453938Y-104990438D01*
X134436668Y-105006090D01*
X134417948Y-105019974D01*
X134397957Y-105031956D01*
X134376887Y-105041921D01*
X134354943Y-105049773D01*
X134332334Y-105055437D01*
X134309279Y-105058856D01*
X134286000Y-105060000D01*
X133811000Y-105060000D01*
X133787721Y-105058856D01*
X133764666Y-105055437D01*
X133742057Y-105049773D01*
X133720113Y-105041921D01*
X133699043Y-105031956D01*
X133679052Y-105019974D01*
X133660332Y-105006090D01*
X133643062Y-104990438D01*
X133627410Y-104973168D01*
X133613526Y-104954448D01*
X133601544Y-104934457D01*
X133591579Y-104913387D01*
X133583727Y-104891443D01*
X133578063Y-104868834D01*
X133574644Y-104845779D01*
X133573500Y-104822500D01*
X133573500Y-104247500D01*
X133574644Y-104224221D01*
X133578063Y-104201166D01*
X133583727Y-104178557D01*
X133591579Y-104156613D01*
X133601544Y-104135543D01*
X133613526Y-104115552D01*
X133627410Y-104096832D01*
X133643062Y-104079562D01*
X133660332Y-104063910D01*
X133679052Y-104050026D01*
X133699043Y-104038044D01*
X133720113Y-104028079D01*
X133742057Y-104020227D01*
X133764666Y-104014563D01*
X133787721Y-104011144D01*
X133811000Y-104010000D01*
X134286000Y-104010000D01*
X134309279Y-104011144D01*
X134309279Y-104011144D01*
G37*
D12*
X134048500Y-104535000D03*
D10*
G36*
X132404279Y-105747144D02*
G01*
X132427334Y-105750563D01*
X132449943Y-105756227D01*
X132471887Y-105764079D01*
X132492957Y-105774044D01*
X132512948Y-105786026D01*
X132531668Y-105799910D01*
X132548938Y-105815562D01*
X132564590Y-105832832D01*
X132578474Y-105851552D01*
X132590456Y-105871543D01*
X132600421Y-105892613D01*
X132608273Y-105914557D01*
X132613937Y-105937166D01*
X132617356Y-105960221D01*
X132618500Y-105983500D01*
X132618500Y-106558500D01*
X132617356Y-106581779D01*
X132613937Y-106604834D01*
X132608273Y-106627443D01*
X132600421Y-106649387D01*
X132590456Y-106670457D01*
X132578474Y-106690448D01*
X132564590Y-106709168D01*
X132548938Y-106726438D01*
X132531668Y-106742090D01*
X132512948Y-106755974D01*
X132492957Y-106767956D01*
X132471887Y-106777921D01*
X132449943Y-106785773D01*
X132427334Y-106791437D01*
X132404279Y-106794856D01*
X132381000Y-106796000D01*
X131906000Y-106796000D01*
X131882721Y-106794856D01*
X131859666Y-106791437D01*
X131837057Y-106785773D01*
X131815113Y-106777921D01*
X131794043Y-106767956D01*
X131774052Y-106755974D01*
X131755332Y-106742090D01*
X131738062Y-106726438D01*
X131722410Y-106709168D01*
X131708526Y-106690448D01*
X131696544Y-106670457D01*
X131686579Y-106649387D01*
X131678727Y-106627443D01*
X131673063Y-106604834D01*
X131669644Y-106581779D01*
X131668500Y-106558500D01*
X131668500Y-105983500D01*
X131669644Y-105960221D01*
X131673063Y-105937166D01*
X131678727Y-105914557D01*
X131686579Y-105892613D01*
X131696544Y-105871543D01*
X131708526Y-105851552D01*
X131722410Y-105832832D01*
X131738062Y-105815562D01*
X131755332Y-105799910D01*
X131774052Y-105786026D01*
X131794043Y-105774044D01*
X131815113Y-105764079D01*
X131837057Y-105756227D01*
X131859666Y-105750563D01*
X131882721Y-105747144D01*
X131906000Y-105746000D01*
X132381000Y-105746000D01*
X132404279Y-105747144D01*
X132404279Y-105747144D01*
G37*
D12*
X132143500Y-106271000D03*
D10*
G36*
X132404279Y-103997144D02*
G01*
X132427334Y-104000563D01*
X132449943Y-104006227D01*
X132471887Y-104014079D01*
X132492957Y-104024044D01*
X132512948Y-104036026D01*
X132531668Y-104049910D01*
X132548938Y-104065562D01*
X132564590Y-104082832D01*
X132578474Y-104101552D01*
X132590456Y-104121543D01*
X132600421Y-104142613D01*
X132608273Y-104164557D01*
X132613937Y-104187166D01*
X132617356Y-104210221D01*
X132618500Y-104233500D01*
X132618500Y-104808500D01*
X132617356Y-104831779D01*
X132613937Y-104854834D01*
X132608273Y-104877443D01*
X132600421Y-104899387D01*
X132590456Y-104920457D01*
X132578474Y-104940448D01*
X132564590Y-104959168D01*
X132548938Y-104976438D01*
X132531668Y-104992090D01*
X132512948Y-105005974D01*
X132492957Y-105017956D01*
X132471887Y-105027921D01*
X132449943Y-105035773D01*
X132427334Y-105041437D01*
X132404279Y-105044856D01*
X132381000Y-105046000D01*
X131906000Y-105046000D01*
X131882721Y-105044856D01*
X131859666Y-105041437D01*
X131837057Y-105035773D01*
X131815113Y-105027921D01*
X131794043Y-105017956D01*
X131774052Y-105005974D01*
X131755332Y-104992090D01*
X131738062Y-104976438D01*
X131722410Y-104959168D01*
X131708526Y-104940448D01*
X131696544Y-104920457D01*
X131686579Y-104899387D01*
X131678727Y-104877443D01*
X131673063Y-104854834D01*
X131669644Y-104831779D01*
X131668500Y-104808500D01*
X131668500Y-104233500D01*
X131669644Y-104210221D01*
X131673063Y-104187166D01*
X131678727Y-104164557D01*
X131686579Y-104142613D01*
X131696544Y-104121543D01*
X131708526Y-104101552D01*
X131722410Y-104082832D01*
X131738062Y-104065562D01*
X131755332Y-104049910D01*
X131774052Y-104036026D01*
X131794043Y-104024044D01*
X131815113Y-104014079D01*
X131837057Y-104006227D01*
X131859666Y-104000563D01*
X131882721Y-103997144D01*
X131906000Y-103996000D01*
X132381000Y-103996000D01*
X132404279Y-103997144D01*
X132404279Y-103997144D01*
G37*
D12*
X132143500Y-104521000D03*
D15*
X172295000Y-102870000D03*
X166795000Y-102870000D03*
X172295000Y-113030000D03*
X166795000Y-113030000D03*
X172295000Y-93980000D03*
X166795000Y-93980000D03*
X172295000Y-83820000D03*
X166795000Y-83820000D03*
D10*
G36*
X175584279Y-106142144D02*
G01*
X175607334Y-106145563D01*
X175629943Y-106151227D01*
X175651887Y-106159079D01*
X175672957Y-106169044D01*
X175692948Y-106181026D01*
X175711668Y-106194910D01*
X175728938Y-106210562D01*
X175744590Y-106227832D01*
X175758474Y-106246552D01*
X175770456Y-106266543D01*
X175780421Y-106287613D01*
X175788273Y-106309557D01*
X175793937Y-106332166D01*
X175797356Y-106355221D01*
X175798500Y-106378500D01*
X175798500Y-106953500D01*
X175797356Y-106976779D01*
X175793937Y-106999834D01*
X175788273Y-107022443D01*
X175780421Y-107044387D01*
X175770456Y-107065457D01*
X175758474Y-107085448D01*
X175744590Y-107104168D01*
X175728938Y-107121438D01*
X175711668Y-107137090D01*
X175692948Y-107150974D01*
X175672957Y-107162956D01*
X175651887Y-107172921D01*
X175629943Y-107180773D01*
X175607334Y-107186437D01*
X175584279Y-107189856D01*
X175561000Y-107191000D01*
X175086000Y-107191000D01*
X175062721Y-107189856D01*
X175039666Y-107186437D01*
X175017057Y-107180773D01*
X174995113Y-107172921D01*
X174974043Y-107162956D01*
X174954052Y-107150974D01*
X174935332Y-107137090D01*
X174918062Y-107121438D01*
X174902410Y-107104168D01*
X174888526Y-107085448D01*
X174876544Y-107065457D01*
X174866579Y-107044387D01*
X174858727Y-107022443D01*
X174853063Y-106999834D01*
X174849644Y-106976779D01*
X174848500Y-106953500D01*
X174848500Y-106378500D01*
X174849644Y-106355221D01*
X174853063Y-106332166D01*
X174858727Y-106309557D01*
X174866579Y-106287613D01*
X174876544Y-106266543D01*
X174888526Y-106246552D01*
X174902410Y-106227832D01*
X174918062Y-106210562D01*
X174935332Y-106194910D01*
X174954052Y-106181026D01*
X174974043Y-106169044D01*
X174995113Y-106159079D01*
X175017057Y-106151227D01*
X175039666Y-106145563D01*
X175062721Y-106142144D01*
X175086000Y-106141000D01*
X175561000Y-106141000D01*
X175584279Y-106142144D01*
X175584279Y-106142144D01*
G37*
D12*
X175323500Y-106666000D03*
D10*
G36*
X175584279Y-104392144D02*
G01*
X175607334Y-104395563D01*
X175629943Y-104401227D01*
X175651887Y-104409079D01*
X175672957Y-104419044D01*
X175692948Y-104431026D01*
X175711668Y-104444910D01*
X175728938Y-104460562D01*
X175744590Y-104477832D01*
X175758474Y-104496552D01*
X175770456Y-104516543D01*
X175780421Y-104537613D01*
X175788273Y-104559557D01*
X175793937Y-104582166D01*
X175797356Y-104605221D01*
X175798500Y-104628500D01*
X175798500Y-105203500D01*
X175797356Y-105226779D01*
X175793937Y-105249834D01*
X175788273Y-105272443D01*
X175780421Y-105294387D01*
X175770456Y-105315457D01*
X175758474Y-105335448D01*
X175744590Y-105354168D01*
X175728938Y-105371438D01*
X175711668Y-105387090D01*
X175692948Y-105400974D01*
X175672957Y-105412956D01*
X175651887Y-105422921D01*
X175629943Y-105430773D01*
X175607334Y-105436437D01*
X175584279Y-105439856D01*
X175561000Y-105441000D01*
X175086000Y-105441000D01*
X175062721Y-105439856D01*
X175039666Y-105436437D01*
X175017057Y-105430773D01*
X174995113Y-105422921D01*
X174974043Y-105412956D01*
X174954052Y-105400974D01*
X174935332Y-105387090D01*
X174918062Y-105371438D01*
X174902410Y-105354168D01*
X174888526Y-105335448D01*
X174876544Y-105315457D01*
X174866579Y-105294387D01*
X174858727Y-105272443D01*
X174853063Y-105249834D01*
X174849644Y-105226779D01*
X174848500Y-105203500D01*
X174848500Y-104628500D01*
X174849644Y-104605221D01*
X174853063Y-104582166D01*
X174858727Y-104559557D01*
X174866579Y-104537613D01*
X174876544Y-104516543D01*
X174888526Y-104496552D01*
X174902410Y-104477832D01*
X174918062Y-104460562D01*
X174935332Y-104444910D01*
X174954052Y-104431026D01*
X174974043Y-104419044D01*
X174995113Y-104409079D01*
X175017057Y-104401227D01*
X175039666Y-104395563D01*
X175062721Y-104392144D01*
X175086000Y-104391000D01*
X175561000Y-104391000D01*
X175584279Y-104392144D01*
X175584279Y-104392144D01*
G37*
D12*
X175323500Y-104916000D03*
D10*
G36*
X175584279Y-89646144D02*
G01*
X175607334Y-89649563D01*
X175629943Y-89655227D01*
X175651887Y-89663079D01*
X175672957Y-89673044D01*
X175692948Y-89685026D01*
X175711668Y-89698910D01*
X175728938Y-89714562D01*
X175744590Y-89731832D01*
X175758474Y-89750552D01*
X175770456Y-89770543D01*
X175780421Y-89791613D01*
X175788273Y-89813557D01*
X175793937Y-89836166D01*
X175797356Y-89859221D01*
X175798500Y-89882500D01*
X175798500Y-90457500D01*
X175797356Y-90480779D01*
X175793937Y-90503834D01*
X175788273Y-90526443D01*
X175780421Y-90548387D01*
X175770456Y-90569457D01*
X175758474Y-90589448D01*
X175744590Y-90608168D01*
X175728938Y-90625438D01*
X175711668Y-90641090D01*
X175692948Y-90654974D01*
X175672957Y-90666956D01*
X175651887Y-90676921D01*
X175629943Y-90684773D01*
X175607334Y-90690437D01*
X175584279Y-90693856D01*
X175561000Y-90695000D01*
X175086000Y-90695000D01*
X175062721Y-90693856D01*
X175039666Y-90690437D01*
X175017057Y-90684773D01*
X174995113Y-90676921D01*
X174974043Y-90666956D01*
X174954052Y-90654974D01*
X174935332Y-90641090D01*
X174918062Y-90625438D01*
X174902410Y-90608168D01*
X174888526Y-90589448D01*
X174876544Y-90569457D01*
X174866579Y-90548387D01*
X174858727Y-90526443D01*
X174853063Y-90503834D01*
X174849644Y-90480779D01*
X174848500Y-90457500D01*
X174848500Y-89882500D01*
X174849644Y-89859221D01*
X174853063Y-89836166D01*
X174858727Y-89813557D01*
X174866579Y-89791613D01*
X174876544Y-89770543D01*
X174888526Y-89750552D01*
X174902410Y-89731832D01*
X174918062Y-89714562D01*
X174935332Y-89698910D01*
X174954052Y-89685026D01*
X174974043Y-89673044D01*
X174995113Y-89663079D01*
X175017057Y-89655227D01*
X175039666Y-89649563D01*
X175062721Y-89646144D01*
X175086000Y-89645000D01*
X175561000Y-89645000D01*
X175584279Y-89646144D01*
X175584279Y-89646144D01*
G37*
D12*
X175323500Y-90170000D03*
D10*
G36*
X175584279Y-91396144D02*
G01*
X175607334Y-91399563D01*
X175629943Y-91405227D01*
X175651887Y-91413079D01*
X175672957Y-91423044D01*
X175692948Y-91435026D01*
X175711668Y-91448910D01*
X175728938Y-91464562D01*
X175744590Y-91481832D01*
X175758474Y-91500552D01*
X175770456Y-91520543D01*
X175780421Y-91541613D01*
X175788273Y-91563557D01*
X175793937Y-91586166D01*
X175797356Y-91609221D01*
X175798500Y-91632500D01*
X175798500Y-92207500D01*
X175797356Y-92230779D01*
X175793937Y-92253834D01*
X175788273Y-92276443D01*
X175780421Y-92298387D01*
X175770456Y-92319457D01*
X175758474Y-92339448D01*
X175744590Y-92358168D01*
X175728938Y-92375438D01*
X175711668Y-92391090D01*
X175692948Y-92404974D01*
X175672957Y-92416956D01*
X175651887Y-92426921D01*
X175629943Y-92434773D01*
X175607334Y-92440437D01*
X175584279Y-92443856D01*
X175561000Y-92445000D01*
X175086000Y-92445000D01*
X175062721Y-92443856D01*
X175039666Y-92440437D01*
X175017057Y-92434773D01*
X174995113Y-92426921D01*
X174974043Y-92416956D01*
X174954052Y-92404974D01*
X174935332Y-92391090D01*
X174918062Y-92375438D01*
X174902410Y-92358168D01*
X174888526Y-92339448D01*
X174876544Y-92319457D01*
X174866579Y-92298387D01*
X174858727Y-92276443D01*
X174853063Y-92253834D01*
X174849644Y-92230779D01*
X174848500Y-92207500D01*
X174848500Y-91632500D01*
X174849644Y-91609221D01*
X174853063Y-91586166D01*
X174858727Y-91563557D01*
X174866579Y-91541613D01*
X174876544Y-91520543D01*
X174888526Y-91500552D01*
X174902410Y-91481832D01*
X174918062Y-91464562D01*
X174935332Y-91448910D01*
X174954052Y-91435026D01*
X174974043Y-91423044D01*
X174995113Y-91413079D01*
X175017057Y-91405227D01*
X175039666Y-91399563D01*
X175062721Y-91396144D01*
X175086000Y-91395000D01*
X175561000Y-91395000D01*
X175584279Y-91396144D01*
X175584279Y-91396144D01*
G37*
D12*
X175323500Y-91920000D03*
D10*
G36*
X175584279Y-108597144D02*
G01*
X175607334Y-108600563D01*
X175629943Y-108606227D01*
X175651887Y-108614079D01*
X175672957Y-108624044D01*
X175692948Y-108636026D01*
X175711668Y-108649910D01*
X175728938Y-108665562D01*
X175744590Y-108682832D01*
X175758474Y-108701552D01*
X175770456Y-108721543D01*
X175780421Y-108742613D01*
X175788273Y-108764557D01*
X175793937Y-108787166D01*
X175797356Y-108810221D01*
X175798500Y-108833500D01*
X175798500Y-109408500D01*
X175797356Y-109431779D01*
X175793937Y-109454834D01*
X175788273Y-109477443D01*
X175780421Y-109499387D01*
X175770456Y-109520457D01*
X175758474Y-109540448D01*
X175744590Y-109559168D01*
X175728938Y-109576438D01*
X175711668Y-109592090D01*
X175692948Y-109605974D01*
X175672957Y-109617956D01*
X175651887Y-109627921D01*
X175629943Y-109635773D01*
X175607334Y-109641437D01*
X175584279Y-109644856D01*
X175561000Y-109646000D01*
X175086000Y-109646000D01*
X175062721Y-109644856D01*
X175039666Y-109641437D01*
X175017057Y-109635773D01*
X174995113Y-109627921D01*
X174974043Y-109617956D01*
X174954052Y-109605974D01*
X174935332Y-109592090D01*
X174918062Y-109576438D01*
X174902410Y-109559168D01*
X174888526Y-109540448D01*
X174876544Y-109520457D01*
X174866579Y-109499387D01*
X174858727Y-109477443D01*
X174853063Y-109454834D01*
X174849644Y-109431779D01*
X174848500Y-109408500D01*
X174848500Y-108833500D01*
X174849644Y-108810221D01*
X174853063Y-108787166D01*
X174858727Y-108764557D01*
X174866579Y-108742613D01*
X174876544Y-108721543D01*
X174888526Y-108701552D01*
X174902410Y-108682832D01*
X174918062Y-108665562D01*
X174935332Y-108649910D01*
X174954052Y-108636026D01*
X174974043Y-108624044D01*
X174995113Y-108614079D01*
X175017057Y-108606227D01*
X175039666Y-108600563D01*
X175062721Y-108597144D01*
X175086000Y-108596000D01*
X175561000Y-108596000D01*
X175584279Y-108597144D01*
X175584279Y-108597144D01*
G37*
D12*
X175323500Y-109121000D03*
D10*
G36*
X175584279Y-110347144D02*
G01*
X175607334Y-110350563D01*
X175629943Y-110356227D01*
X175651887Y-110364079D01*
X175672957Y-110374044D01*
X175692948Y-110386026D01*
X175711668Y-110399910D01*
X175728938Y-110415562D01*
X175744590Y-110432832D01*
X175758474Y-110451552D01*
X175770456Y-110471543D01*
X175780421Y-110492613D01*
X175788273Y-110514557D01*
X175793937Y-110537166D01*
X175797356Y-110560221D01*
X175798500Y-110583500D01*
X175798500Y-111158500D01*
X175797356Y-111181779D01*
X175793937Y-111204834D01*
X175788273Y-111227443D01*
X175780421Y-111249387D01*
X175770456Y-111270457D01*
X175758474Y-111290448D01*
X175744590Y-111309168D01*
X175728938Y-111326438D01*
X175711668Y-111342090D01*
X175692948Y-111355974D01*
X175672957Y-111367956D01*
X175651887Y-111377921D01*
X175629943Y-111385773D01*
X175607334Y-111391437D01*
X175584279Y-111394856D01*
X175561000Y-111396000D01*
X175086000Y-111396000D01*
X175062721Y-111394856D01*
X175039666Y-111391437D01*
X175017057Y-111385773D01*
X174995113Y-111377921D01*
X174974043Y-111367956D01*
X174954052Y-111355974D01*
X174935332Y-111342090D01*
X174918062Y-111326438D01*
X174902410Y-111309168D01*
X174888526Y-111290448D01*
X174876544Y-111270457D01*
X174866579Y-111249387D01*
X174858727Y-111227443D01*
X174853063Y-111204834D01*
X174849644Y-111181779D01*
X174848500Y-111158500D01*
X174848500Y-110583500D01*
X174849644Y-110560221D01*
X174853063Y-110537166D01*
X174858727Y-110514557D01*
X174866579Y-110492613D01*
X174876544Y-110471543D01*
X174888526Y-110451552D01*
X174902410Y-110432832D01*
X174918062Y-110415562D01*
X174935332Y-110399910D01*
X174954052Y-110386026D01*
X174974043Y-110374044D01*
X174995113Y-110364079D01*
X175017057Y-110356227D01*
X175039666Y-110350563D01*
X175062721Y-110347144D01*
X175086000Y-110346000D01*
X175561000Y-110346000D01*
X175584279Y-110347144D01*
X175584279Y-110347144D01*
G37*
D12*
X175323500Y-110871000D03*
D10*
G36*
X175584279Y-87169644D02*
G01*
X175607334Y-87173063D01*
X175629943Y-87178727D01*
X175651887Y-87186579D01*
X175672957Y-87196544D01*
X175692948Y-87208526D01*
X175711668Y-87222410D01*
X175728938Y-87238062D01*
X175744590Y-87255332D01*
X175758474Y-87274052D01*
X175770456Y-87294043D01*
X175780421Y-87315113D01*
X175788273Y-87337057D01*
X175793937Y-87359666D01*
X175797356Y-87382721D01*
X175798500Y-87406000D01*
X175798500Y-87981000D01*
X175797356Y-88004279D01*
X175793937Y-88027334D01*
X175788273Y-88049943D01*
X175780421Y-88071887D01*
X175770456Y-88092957D01*
X175758474Y-88112948D01*
X175744590Y-88131668D01*
X175728938Y-88148938D01*
X175711668Y-88164590D01*
X175692948Y-88178474D01*
X175672957Y-88190456D01*
X175651887Y-88200421D01*
X175629943Y-88208273D01*
X175607334Y-88213937D01*
X175584279Y-88217356D01*
X175561000Y-88218500D01*
X175086000Y-88218500D01*
X175062721Y-88217356D01*
X175039666Y-88213937D01*
X175017057Y-88208273D01*
X174995113Y-88200421D01*
X174974043Y-88190456D01*
X174954052Y-88178474D01*
X174935332Y-88164590D01*
X174918062Y-88148938D01*
X174902410Y-88131668D01*
X174888526Y-88112948D01*
X174876544Y-88092957D01*
X174866579Y-88071887D01*
X174858727Y-88049943D01*
X174853063Y-88027334D01*
X174849644Y-88004279D01*
X174848500Y-87981000D01*
X174848500Y-87406000D01*
X174849644Y-87382721D01*
X174853063Y-87359666D01*
X174858727Y-87337057D01*
X174866579Y-87315113D01*
X174876544Y-87294043D01*
X174888526Y-87274052D01*
X174902410Y-87255332D01*
X174918062Y-87238062D01*
X174935332Y-87222410D01*
X174954052Y-87208526D01*
X174974043Y-87196544D01*
X174995113Y-87186579D01*
X175017057Y-87178727D01*
X175039666Y-87173063D01*
X175062721Y-87169644D01*
X175086000Y-87168500D01*
X175561000Y-87168500D01*
X175584279Y-87169644D01*
X175584279Y-87169644D01*
G37*
D12*
X175323500Y-87693500D03*
D10*
G36*
X175584279Y-85419644D02*
G01*
X175607334Y-85423063D01*
X175629943Y-85428727D01*
X175651887Y-85436579D01*
X175672957Y-85446544D01*
X175692948Y-85458526D01*
X175711668Y-85472410D01*
X175728938Y-85488062D01*
X175744590Y-85505332D01*
X175758474Y-85524052D01*
X175770456Y-85544043D01*
X175780421Y-85565113D01*
X175788273Y-85587057D01*
X175793937Y-85609666D01*
X175797356Y-85632721D01*
X175798500Y-85656000D01*
X175798500Y-86231000D01*
X175797356Y-86254279D01*
X175793937Y-86277334D01*
X175788273Y-86299943D01*
X175780421Y-86321887D01*
X175770456Y-86342957D01*
X175758474Y-86362948D01*
X175744590Y-86381668D01*
X175728938Y-86398938D01*
X175711668Y-86414590D01*
X175692948Y-86428474D01*
X175672957Y-86440456D01*
X175651887Y-86450421D01*
X175629943Y-86458273D01*
X175607334Y-86463937D01*
X175584279Y-86467356D01*
X175561000Y-86468500D01*
X175086000Y-86468500D01*
X175062721Y-86467356D01*
X175039666Y-86463937D01*
X175017057Y-86458273D01*
X174995113Y-86450421D01*
X174974043Y-86440456D01*
X174954052Y-86428474D01*
X174935332Y-86414590D01*
X174918062Y-86398938D01*
X174902410Y-86381668D01*
X174888526Y-86362948D01*
X174876544Y-86342957D01*
X174866579Y-86321887D01*
X174858727Y-86299943D01*
X174853063Y-86277334D01*
X174849644Y-86254279D01*
X174848500Y-86231000D01*
X174848500Y-85656000D01*
X174849644Y-85632721D01*
X174853063Y-85609666D01*
X174858727Y-85587057D01*
X174866579Y-85565113D01*
X174876544Y-85544043D01*
X174888526Y-85524052D01*
X174902410Y-85505332D01*
X174918062Y-85488062D01*
X174935332Y-85472410D01*
X174954052Y-85458526D01*
X174974043Y-85446544D01*
X174995113Y-85436579D01*
X175017057Y-85428727D01*
X175039666Y-85423063D01*
X175062721Y-85419644D01*
X175086000Y-85418500D01*
X175561000Y-85418500D01*
X175584279Y-85419644D01*
X175584279Y-85419644D01*
G37*
D12*
X175323500Y-85943500D03*
D10*
G36*
X178505279Y-106156144D02*
G01*
X178528334Y-106159563D01*
X178550943Y-106165227D01*
X178572887Y-106173079D01*
X178593957Y-106183044D01*
X178613948Y-106195026D01*
X178632668Y-106208910D01*
X178649938Y-106224562D01*
X178665590Y-106241832D01*
X178679474Y-106260552D01*
X178691456Y-106280543D01*
X178701421Y-106301613D01*
X178709273Y-106323557D01*
X178714937Y-106346166D01*
X178718356Y-106369221D01*
X178719500Y-106392500D01*
X178719500Y-106967500D01*
X178718356Y-106990779D01*
X178714937Y-107013834D01*
X178709273Y-107036443D01*
X178701421Y-107058387D01*
X178691456Y-107079457D01*
X178679474Y-107099448D01*
X178665590Y-107118168D01*
X178649938Y-107135438D01*
X178632668Y-107151090D01*
X178613948Y-107164974D01*
X178593957Y-107176956D01*
X178572887Y-107186921D01*
X178550943Y-107194773D01*
X178528334Y-107200437D01*
X178505279Y-107203856D01*
X178482000Y-107205000D01*
X178007000Y-107205000D01*
X177983721Y-107203856D01*
X177960666Y-107200437D01*
X177938057Y-107194773D01*
X177916113Y-107186921D01*
X177895043Y-107176956D01*
X177875052Y-107164974D01*
X177856332Y-107151090D01*
X177839062Y-107135438D01*
X177823410Y-107118168D01*
X177809526Y-107099448D01*
X177797544Y-107079457D01*
X177787579Y-107058387D01*
X177779727Y-107036443D01*
X177774063Y-107013834D01*
X177770644Y-106990779D01*
X177769500Y-106967500D01*
X177769500Y-106392500D01*
X177770644Y-106369221D01*
X177774063Y-106346166D01*
X177779727Y-106323557D01*
X177787579Y-106301613D01*
X177797544Y-106280543D01*
X177809526Y-106260552D01*
X177823410Y-106241832D01*
X177839062Y-106224562D01*
X177856332Y-106208910D01*
X177875052Y-106195026D01*
X177895043Y-106183044D01*
X177916113Y-106173079D01*
X177938057Y-106165227D01*
X177960666Y-106159563D01*
X177983721Y-106156144D01*
X178007000Y-106155000D01*
X178482000Y-106155000D01*
X178505279Y-106156144D01*
X178505279Y-106156144D01*
G37*
D12*
X178244500Y-106680000D03*
D10*
G36*
X178505279Y-104406144D02*
G01*
X178528334Y-104409563D01*
X178550943Y-104415227D01*
X178572887Y-104423079D01*
X178593957Y-104433044D01*
X178613948Y-104445026D01*
X178632668Y-104458910D01*
X178649938Y-104474562D01*
X178665590Y-104491832D01*
X178679474Y-104510552D01*
X178691456Y-104530543D01*
X178701421Y-104551613D01*
X178709273Y-104573557D01*
X178714937Y-104596166D01*
X178718356Y-104619221D01*
X178719500Y-104642500D01*
X178719500Y-105217500D01*
X178718356Y-105240779D01*
X178714937Y-105263834D01*
X178709273Y-105286443D01*
X178701421Y-105308387D01*
X178691456Y-105329457D01*
X178679474Y-105349448D01*
X178665590Y-105368168D01*
X178649938Y-105385438D01*
X178632668Y-105401090D01*
X178613948Y-105414974D01*
X178593957Y-105426956D01*
X178572887Y-105436921D01*
X178550943Y-105444773D01*
X178528334Y-105450437D01*
X178505279Y-105453856D01*
X178482000Y-105455000D01*
X178007000Y-105455000D01*
X177983721Y-105453856D01*
X177960666Y-105450437D01*
X177938057Y-105444773D01*
X177916113Y-105436921D01*
X177895043Y-105426956D01*
X177875052Y-105414974D01*
X177856332Y-105401090D01*
X177839062Y-105385438D01*
X177823410Y-105368168D01*
X177809526Y-105349448D01*
X177797544Y-105329457D01*
X177787579Y-105308387D01*
X177779727Y-105286443D01*
X177774063Y-105263834D01*
X177770644Y-105240779D01*
X177769500Y-105217500D01*
X177769500Y-104642500D01*
X177770644Y-104619221D01*
X177774063Y-104596166D01*
X177779727Y-104573557D01*
X177787579Y-104551613D01*
X177797544Y-104530543D01*
X177809526Y-104510552D01*
X177823410Y-104491832D01*
X177839062Y-104474562D01*
X177856332Y-104458910D01*
X177875052Y-104445026D01*
X177895043Y-104433044D01*
X177916113Y-104423079D01*
X177938057Y-104415227D01*
X177960666Y-104409563D01*
X177983721Y-104406144D01*
X178007000Y-104405000D01*
X178482000Y-104405000D01*
X178505279Y-104406144D01*
X178505279Y-104406144D01*
G37*
D12*
X178244500Y-104930000D03*
D10*
G36*
X178505279Y-89646144D02*
G01*
X178528334Y-89649563D01*
X178550943Y-89655227D01*
X178572887Y-89663079D01*
X178593957Y-89673044D01*
X178613948Y-89685026D01*
X178632668Y-89698910D01*
X178649938Y-89714562D01*
X178665590Y-89731832D01*
X178679474Y-89750552D01*
X178691456Y-89770543D01*
X178701421Y-89791613D01*
X178709273Y-89813557D01*
X178714937Y-89836166D01*
X178718356Y-89859221D01*
X178719500Y-89882500D01*
X178719500Y-90457500D01*
X178718356Y-90480779D01*
X178714937Y-90503834D01*
X178709273Y-90526443D01*
X178701421Y-90548387D01*
X178691456Y-90569457D01*
X178679474Y-90589448D01*
X178665590Y-90608168D01*
X178649938Y-90625438D01*
X178632668Y-90641090D01*
X178613948Y-90654974D01*
X178593957Y-90666956D01*
X178572887Y-90676921D01*
X178550943Y-90684773D01*
X178528334Y-90690437D01*
X178505279Y-90693856D01*
X178482000Y-90695000D01*
X178007000Y-90695000D01*
X177983721Y-90693856D01*
X177960666Y-90690437D01*
X177938057Y-90684773D01*
X177916113Y-90676921D01*
X177895043Y-90666956D01*
X177875052Y-90654974D01*
X177856332Y-90641090D01*
X177839062Y-90625438D01*
X177823410Y-90608168D01*
X177809526Y-90589448D01*
X177797544Y-90569457D01*
X177787579Y-90548387D01*
X177779727Y-90526443D01*
X177774063Y-90503834D01*
X177770644Y-90480779D01*
X177769500Y-90457500D01*
X177769500Y-89882500D01*
X177770644Y-89859221D01*
X177774063Y-89836166D01*
X177779727Y-89813557D01*
X177787579Y-89791613D01*
X177797544Y-89770543D01*
X177809526Y-89750552D01*
X177823410Y-89731832D01*
X177839062Y-89714562D01*
X177856332Y-89698910D01*
X177875052Y-89685026D01*
X177895043Y-89673044D01*
X177916113Y-89663079D01*
X177938057Y-89655227D01*
X177960666Y-89649563D01*
X177983721Y-89646144D01*
X178007000Y-89645000D01*
X178482000Y-89645000D01*
X178505279Y-89646144D01*
X178505279Y-89646144D01*
G37*
D12*
X178244500Y-90170000D03*
D10*
G36*
X178505279Y-91396144D02*
G01*
X178528334Y-91399563D01*
X178550943Y-91405227D01*
X178572887Y-91413079D01*
X178593957Y-91423044D01*
X178613948Y-91435026D01*
X178632668Y-91448910D01*
X178649938Y-91464562D01*
X178665590Y-91481832D01*
X178679474Y-91500552D01*
X178691456Y-91520543D01*
X178701421Y-91541613D01*
X178709273Y-91563557D01*
X178714937Y-91586166D01*
X178718356Y-91609221D01*
X178719500Y-91632500D01*
X178719500Y-92207500D01*
X178718356Y-92230779D01*
X178714937Y-92253834D01*
X178709273Y-92276443D01*
X178701421Y-92298387D01*
X178691456Y-92319457D01*
X178679474Y-92339448D01*
X178665590Y-92358168D01*
X178649938Y-92375438D01*
X178632668Y-92391090D01*
X178613948Y-92404974D01*
X178593957Y-92416956D01*
X178572887Y-92426921D01*
X178550943Y-92434773D01*
X178528334Y-92440437D01*
X178505279Y-92443856D01*
X178482000Y-92445000D01*
X178007000Y-92445000D01*
X177983721Y-92443856D01*
X177960666Y-92440437D01*
X177938057Y-92434773D01*
X177916113Y-92426921D01*
X177895043Y-92416956D01*
X177875052Y-92404974D01*
X177856332Y-92391090D01*
X177839062Y-92375438D01*
X177823410Y-92358168D01*
X177809526Y-92339448D01*
X177797544Y-92319457D01*
X177787579Y-92298387D01*
X177779727Y-92276443D01*
X177774063Y-92253834D01*
X177770644Y-92230779D01*
X177769500Y-92207500D01*
X177769500Y-91632500D01*
X177770644Y-91609221D01*
X177774063Y-91586166D01*
X177779727Y-91563557D01*
X177787579Y-91541613D01*
X177797544Y-91520543D01*
X177809526Y-91500552D01*
X177823410Y-91481832D01*
X177839062Y-91464562D01*
X177856332Y-91448910D01*
X177875052Y-91435026D01*
X177895043Y-91423044D01*
X177916113Y-91413079D01*
X177938057Y-91405227D01*
X177960666Y-91399563D01*
X177983721Y-91396144D01*
X178007000Y-91395000D01*
X178482000Y-91395000D01*
X178505279Y-91396144D01*
X178505279Y-91396144D01*
G37*
D12*
X178244500Y-91920000D03*
D10*
G36*
X178505279Y-108597144D02*
G01*
X178528334Y-108600563D01*
X178550943Y-108606227D01*
X178572887Y-108614079D01*
X178593957Y-108624044D01*
X178613948Y-108636026D01*
X178632668Y-108649910D01*
X178649938Y-108665562D01*
X178665590Y-108682832D01*
X178679474Y-108701552D01*
X178691456Y-108721543D01*
X178701421Y-108742613D01*
X178709273Y-108764557D01*
X178714937Y-108787166D01*
X178718356Y-108810221D01*
X178719500Y-108833500D01*
X178719500Y-109408500D01*
X178718356Y-109431779D01*
X178714937Y-109454834D01*
X178709273Y-109477443D01*
X178701421Y-109499387D01*
X178691456Y-109520457D01*
X178679474Y-109540448D01*
X178665590Y-109559168D01*
X178649938Y-109576438D01*
X178632668Y-109592090D01*
X178613948Y-109605974D01*
X178593957Y-109617956D01*
X178572887Y-109627921D01*
X178550943Y-109635773D01*
X178528334Y-109641437D01*
X178505279Y-109644856D01*
X178482000Y-109646000D01*
X178007000Y-109646000D01*
X177983721Y-109644856D01*
X177960666Y-109641437D01*
X177938057Y-109635773D01*
X177916113Y-109627921D01*
X177895043Y-109617956D01*
X177875052Y-109605974D01*
X177856332Y-109592090D01*
X177839062Y-109576438D01*
X177823410Y-109559168D01*
X177809526Y-109540448D01*
X177797544Y-109520457D01*
X177787579Y-109499387D01*
X177779727Y-109477443D01*
X177774063Y-109454834D01*
X177770644Y-109431779D01*
X177769500Y-109408500D01*
X177769500Y-108833500D01*
X177770644Y-108810221D01*
X177774063Y-108787166D01*
X177779727Y-108764557D01*
X177787579Y-108742613D01*
X177797544Y-108721543D01*
X177809526Y-108701552D01*
X177823410Y-108682832D01*
X177839062Y-108665562D01*
X177856332Y-108649910D01*
X177875052Y-108636026D01*
X177895043Y-108624044D01*
X177916113Y-108614079D01*
X177938057Y-108606227D01*
X177960666Y-108600563D01*
X177983721Y-108597144D01*
X178007000Y-108596000D01*
X178482000Y-108596000D01*
X178505279Y-108597144D01*
X178505279Y-108597144D01*
G37*
D12*
X178244500Y-109121000D03*
D10*
G36*
X178505279Y-110347144D02*
G01*
X178528334Y-110350563D01*
X178550943Y-110356227D01*
X178572887Y-110364079D01*
X178593957Y-110374044D01*
X178613948Y-110386026D01*
X178632668Y-110399910D01*
X178649938Y-110415562D01*
X178665590Y-110432832D01*
X178679474Y-110451552D01*
X178691456Y-110471543D01*
X178701421Y-110492613D01*
X178709273Y-110514557D01*
X178714937Y-110537166D01*
X178718356Y-110560221D01*
X178719500Y-110583500D01*
X178719500Y-111158500D01*
X178718356Y-111181779D01*
X178714937Y-111204834D01*
X178709273Y-111227443D01*
X178701421Y-111249387D01*
X178691456Y-111270457D01*
X178679474Y-111290448D01*
X178665590Y-111309168D01*
X178649938Y-111326438D01*
X178632668Y-111342090D01*
X178613948Y-111355974D01*
X178593957Y-111367956D01*
X178572887Y-111377921D01*
X178550943Y-111385773D01*
X178528334Y-111391437D01*
X178505279Y-111394856D01*
X178482000Y-111396000D01*
X178007000Y-111396000D01*
X177983721Y-111394856D01*
X177960666Y-111391437D01*
X177938057Y-111385773D01*
X177916113Y-111377921D01*
X177895043Y-111367956D01*
X177875052Y-111355974D01*
X177856332Y-111342090D01*
X177839062Y-111326438D01*
X177823410Y-111309168D01*
X177809526Y-111290448D01*
X177797544Y-111270457D01*
X177787579Y-111249387D01*
X177779727Y-111227443D01*
X177774063Y-111204834D01*
X177770644Y-111181779D01*
X177769500Y-111158500D01*
X177769500Y-110583500D01*
X177770644Y-110560221D01*
X177774063Y-110537166D01*
X177779727Y-110514557D01*
X177787579Y-110492613D01*
X177797544Y-110471543D01*
X177809526Y-110451552D01*
X177823410Y-110432832D01*
X177839062Y-110415562D01*
X177856332Y-110399910D01*
X177875052Y-110386026D01*
X177895043Y-110374044D01*
X177916113Y-110364079D01*
X177938057Y-110356227D01*
X177960666Y-110350563D01*
X177983721Y-110347144D01*
X178007000Y-110346000D01*
X178482000Y-110346000D01*
X178505279Y-110347144D01*
X178505279Y-110347144D01*
G37*
D12*
X178244500Y-110871000D03*
D10*
G36*
X178505279Y-87169644D02*
G01*
X178528334Y-87173063D01*
X178550943Y-87178727D01*
X178572887Y-87186579D01*
X178593957Y-87196544D01*
X178613948Y-87208526D01*
X178632668Y-87222410D01*
X178649938Y-87238062D01*
X178665590Y-87255332D01*
X178679474Y-87274052D01*
X178691456Y-87294043D01*
X178701421Y-87315113D01*
X178709273Y-87337057D01*
X178714937Y-87359666D01*
X178718356Y-87382721D01*
X178719500Y-87406000D01*
X178719500Y-87981000D01*
X178718356Y-88004279D01*
X178714937Y-88027334D01*
X178709273Y-88049943D01*
X178701421Y-88071887D01*
X178691456Y-88092957D01*
X178679474Y-88112948D01*
X178665590Y-88131668D01*
X178649938Y-88148938D01*
X178632668Y-88164590D01*
X178613948Y-88178474D01*
X178593957Y-88190456D01*
X178572887Y-88200421D01*
X178550943Y-88208273D01*
X178528334Y-88213937D01*
X178505279Y-88217356D01*
X178482000Y-88218500D01*
X178007000Y-88218500D01*
X177983721Y-88217356D01*
X177960666Y-88213937D01*
X177938057Y-88208273D01*
X177916113Y-88200421D01*
X177895043Y-88190456D01*
X177875052Y-88178474D01*
X177856332Y-88164590D01*
X177839062Y-88148938D01*
X177823410Y-88131668D01*
X177809526Y-88112948D01*
X177797544Y-88092957D01*
X177787579Y-88071887D01*
X177779727Y-88049943D01*
X177774063Y-88027334D01*
X177770644Y-88004279D01*
X177769500Y-87981000D01*
X177769500Y-87406000D01*
X177770644Y-87382721D01*
X177774063Y-87359666D01*
X177779727Y-87337057D01*
X177787579Y-87315113D01*
X177797544Y-87294043D01*
X177809526Y-87274052D01*
X177823410Y-87255332D01*
X177839062Y-87238062D01*
X177856332Y-87222410D01*
X177875052Y-87208526D01*
X177895043Y-87196544D01*
X177916113Y-87186579D01*
X177938057Y-87178727D01*
X177960666Y-87173063D01*
X177983721Y-87169644D01*
X178007000Y-87168500D01*
X178482000Y-87168500D01*
X178505279Y-87169644D01*
X178505279Y-87169644D01*
G37*
D12*
X178244500Y-87693500D03*
D10*
G36*
X178505279Y-85419644D02*
G01*
X178528334Y-85423063D01*
X178550943Y-85428727D01*
X178572887Y-85436579D01*
X178593957Y-85446544D01*
X178613948Y-85458526D01*
X178632668Y-85472410D01*
X178649938Y-85488062D01*
X178665590Y-85505332D01*
X178679474Y-85524052D01*
X178691456Y-85544043D01*
X178701421Y-85565113D01*
X178709273Y-85587057D01*
X178714937Y-85609666D01*
X178718356Y-85632721D01*
X178719500Y-85656000D01*
X178719500Y-86231000D01*
X178718356Y-86254279D01*
X178714937Y-86277334D01*
X178709273Y-86299943D01*
X178701421Y-86321887D01*
X178691456Y-86342957D01*
X178679474Y-86362948D01*
X178665590Y-86381668D01*
X178649938Y-86398938D01*
X178632668Y-86414590D01*
X178613948Y-86428474D01*
X178593957Y-86440456D01*
X178572887Y-86450421D01*
X178550943Y-86458273D01*
X178528334Y-86463937D01*
X178505279Y-86467356D01*
X178482000Y-86468500D01*
X178007000Y-86468500D01*
X177983721Y-86467356D01*
X177960666Y-86463937D01*
X177938057Y-86458273D01*
X177916113Y-86450421D01*
X177895043Y-86440456D01*
X177875052Y-86428474D01*
X177856332Y-86414590D01*
X177839062Y-86398938D01*
X177823410Y-86381668D01*
X177809526Y-86362948D01*
X177797544Y-86342957D01*
X177787579Y-86321887D01*
X177779727Y-86299943D01*
X177774063Y-86277334D01*
X177770644Y-86254279D01*
X177769500Y-86231000D01*
X177769500Y-85656000D01*
X177770644Y-85632721D01*
X177774063Y-85609666D01*
X177779727Y-85587057D01*
X177787579Y-85565113D01*
X177797544Y-85544043D01*
X177809526Y-85524052D01*
X177823410Y-85505332D01*
X177839062Y-85488062D01*
X177856332Y-85472410D01*
X177875052Y-85458526D01*
X177895043Y-85446544D01*
X177916113Y-85436579D01*
X177938057Y-85428727D01*
X177960666Y-85423063D01*
X177983721Y-85419644D01*
X178007000Y-85418500D01*
X178482000Y-85418500D01*
X178505279Y-85419644D01*
X178505279Y-85419644D01*
G37*
D12*
X178244500Y-85943500D03*
D10*
G36*
X161360279Y-100659644D02*
G01*
X161383334Y-100663063D01*
X161405943Y-100668727D01*
X161427887Y-100676579D01*
X161448957Y-100686544D01*
X161468948Y-100698526D01*
X161487668Y-100712410D01*
X161504938Y-100728062D01*
X161520590Y-100745332D01*
X161534474Y-100764052D01*
X161546456Y-100784043D01*
X161556421Y-100805113D01*
X161564273Y-100827057D01*
X161569937Y-100849666D01*
X161573356Y-100872721D01*
X161574500Y-100896000D01*
X161574500Y-101471000D01*
X161573356Y-101494279D01*
X161569937Y-101517334D01*
X161564273Y-101539943D01*
X161556421Y-101561887D01*
X161546456Y-101582957D01*
X161534474Y-101602948D01*
X161520590Y-101621668D01*
X161504938Y-101638938D01*
X161487668Y-101654590D01*
X161468948Y-101668474D01*
X161448957Y-101680456D01*
X161427887Y-101690421D01*
X161405943Y-101698273D01*
X161383334Y-101703937D01*
X161360279Y-101707356D01*
X161337000Y-101708500D01*
X160862000Y-101708500D01*
X160838721Y-101707356D01*
X160815666Y-101703937D01*
X160793057Y-101698273D01*
X160771113Y-101690421D01*
X160750043Y-101680456D01*
X160730052Y-101668474D01*
X160711332Y-101654590D01*
X160694062Y-101638938D01*
X160678410Y-101621668D01*
X160664526Y-101602948D01*
X160652544Y-101582957D01*
X160642579Y-101561887D01*
X160634727Y-101539943D01*
X160629063Y-101517334D01*
X160625644Y-101494279D01*
X160624500Y-101471000D01*
X160624500Y-100896000D01*
X160625644Y-100872721D01*
X160629063Y-100849666D01*
X160634727Y-100827057D01*
X160642579Y-100805113D01*
X160652544Y-100784043D01*
X160664526Y-100764052D01*
X160678410Y-100745332D01*
X160694062Y-100728062D01*
X160711332Y-100712410D01*
X160730052Y-100698526D01*
X160750043Y-100686544D01*
X160771113Y-100676579D01*
X160793057Y-100668727D01*
X160815666Y-100663063D01*
X160838721Y-100659644D01*
X160862000Y-100658500D01*
X161337000Y-100658500D01*
X161360279Y-100659644D01*
X161360279Y-100659644D01*
G37*
D12*
X161099500Y-101183500D03*
D10*
G36*
X161360279Y-102409644D02*
G01*
X161383334Y-102413063D01*
X161405943Y-102418727D01*
X161427887Y-102426579D01*
X161448957Y-102436544D01*
X161468948Y-102448526D01*
X161487668Y-102462410D01*
X161504938Y-102478062D01*
X161520590Y-102495332D01*
X161534474Y-102514052D01*
X161546456Y-102534043D01*
X161556421Y-102555113D01*
X161564273Y-102577057D01*
X161569937Y-102599666D01*
X161573356Y-102622721D01*
X161574500Y-102646000D01*
X161574500Y-103221000D01*
X161573356Y-103244279D01*
X161569937Y-103267334D01*
X161564273Y-103289943D01*
X161556421Y-103311887D01*
X161546456Y-103332957D01*
X161534474Y-103352948D01*
X161520590Y-103371668D01*
X161504938Y-103388938D01*
X161487668Y-103404590D01*
X161468948Y-103418474D01*
X161448957Y-103430456D01*
X161427887Y-103440421D01*
X161405943Y-103448273D01*
X161383334Y-103453937D01*
X161360279Y-103457356D01*
X161337000Y-103458500D01*
X160862000Y-103458500D01*
X160838721Y-103457356D01*
X160815666Y-103453937D01*
X160793057Y-103448273D01*
X160771113Y-103440421D01*
X160750043Y-103430456D01*
X160730052Y-103418474D01*
X160711332Y-103404590D01*
X160694062Y-103388938D01*
X160678410Y-103371668D01*
X160664526Y-103352948D01*
X160652544Y-103332957D01*
X160642579Y-103311887D01*
X160634727Y-103289943D01*
X160629063Y-103267334D01*
X160625644Y-103244279D01*
X160624500Y-103221000D01*
X160624500Y-102646000D01*
X160625644Y-102622721D01*
X160629063Y-102599666D01*
X160634727Y-102577057D01*
X160642579Y-102555113D01*
X160652544Y-102534043D01*
X160664526Y-102514052D01*
X160678410Y-102495332D01*
X160694062Y-102478062D01*
X160711332Y-102462410D01*
X160730052Y-102448526D01*
X160750043Y-102436544D01*
X160771113Y-102426579D01*
X160793057Y-102418727D01*
X160815666Y-102413063D01*
X160838721Y-102409644D01*
X160862000Y-102408500D01*
X161337000Y-102408500D01*
X161360279Y-102409644D01*
X161360279Y-102409644D01*
G37*
D12*
X161099500Y-102933500D03*
D10*
G36*
X160697779Y-104999644D02*
G01*
X160720834Y-105003063D01*
X160743443Y-105008727D01*
X160765387Y-105016579D01*
X160786457Y-105026544D01*
X160806448Y-105038526D01*
X160825168Y-105052410D01*
X160842438Y-105068062D01*
X160858090Y-105085332D01*
X160871974Y-105104052D01*
X160883956Y-105124043D01*
X160893921Y-105145113D01*
X160901773Y-105167057D01*
X160907437Y-105189666D01*
X160910856Y-105212721D01*
X160912000Y-105236000D01*
X160912000Y-105711000D01*
X160910856Y-105734279D01*
X160907437Y-105757334D01*
X160901773Y-105779943D01*
X160893921Y-105801887D01*
X160883956Y-105822957D01*
X160871974Y-105842948D01*
X160858090Y-105861668D01*
X160842438Y-105878938D01*
X160825168Y-105894590D01*
X160806448Y-105908474D01*
X160786457Y-105920456D01*
X160765387Y-105930421D01*
X160743443Y-105938273D01*
X160720834Y-105943937D01*
X160697779Y-105947356D01*
X160674500Y-105948500D01*
X160099500Y-105948500D01*
X160076221Y-105947356D01*
X160053166Y-105943937D01*
X160030557Y-105938273D01*
X160008613Y-105930421D01*
X159987543Y-105920456D01*
X159967552Y-105908474D01*
X159948832Y-105894590D01*
X159931562Y-105878938D01*
X159915910Y-105861668D01*
X159902026Y-105842948D01*
X159890044Y-105822957D01*
X159880079Y-105801887D01*
X159872227Y-105779943D01*
X159866563Y-105757334D01*
X159863144Y-105734279D01*
X159862000Y-105711000D01*
X159862000Y-105236000D01*
X159863144Y-105212721D01*
X159866563Y-105189666D01*
X159872227Y-105167057D01*
X159880079Y-105145113D01*
X159890044Y-105124043D01*
X159902026Y-105104052D01*
X159915910Y-105085332D01*
X159931562Y-105068062D01*
X159948832Y-105052410D01*
X159967552Y-105038526D01*
X159987543Y-105026544D01*
X160008613Y-105016579D01*
X160030557Y-105008727D01*
X160053166Y-105003063D01*
X160076221Y-104999644D01*
X160099500Y-104998500D01*
X160674500Y-104998500D01*
X160697779Y-104999644D01*
X160697779Y-104999644D01*
G37*
D12*
X160387000Y-105473500D03*
D10*
G36*
X158947779Y-104999644D02*
G01*
X158970834Y-105003063D01*
X158993443Y-105008727D01*
X159015387Y-105016579D01*
X159036457Y-105026544D01*
X159056448Y-105038526D01*
X159075168Y-105052410D01*
X159092438Y-105068062D01*
X159108090Y-105085332D01*
X159121974Y-105104052D01*
X159133956Y-105124043D01*
X159143921Y-105145113D01*
X159151773Y-105167057D01*
X159157437Y-105189666D01*
X159160856Y-105212721D01*
X159162000Y-105236000D01*
X159162000Y-105711000D01*
X159160856Y-105734279D01*
X159157437Y-105757334D01*
X159151773Y-105779943D01*
X159143921Y-105801887D01*
X159133956Y-105822957D01*
X159121974Y-105842948D01*
X159108090Y-105861668D01*
X159092438Y-105878938D01*
X159075168Y-105894590D01*
X159056448Y-105908474D01*
X159036457Y-105920456D01*
X159015387Y-105930421D01*
X158993443Y-105938273D01*
X158970834Y-105943937D01*
X158947779Y-105947356D01*
X158924500Y-105948500D01*
X158349500Y-105948500D01*
X158326221Y-105947356D01*
X158303166Y-105943937D01*
X158280557Y-105938273D01*
X158258613Y-105930421D01*
X158237543Y-105920456D01*
X158217552Y-105908474D01*
X158198832Y-105894590D01*
X158181562Y-105878938D01*
X158165910Y-105861668D01*
X158152026Y-105842948D01*
X158140044Y-105822957D01*
X158130079Y-105801887D01*
X158122227Y-105779943D01*
X158116563Y-105757334D01*
X158113144Y-105734279D01*
X158112000Y-105711000D01*
X158112000Y-105236000D01*
X158113144Y-105212721D01*
X158116563Y-105189666D01*
X158122227Y-105167057D01*
X158130079Y-105145113D01*
X158140044Y-105124043D01*
X158152026Y-105104052D01*
X158165910Y-105085332D01*
X158181562Y-105068062D01*
X158198832Y-105052410D01*
X158217552Y-105038526D01*
X158237543Y-105026544D01*
X158258613Y-105016579D01*
X158280557Y-105008727D01*
X158303166Y-105003063D01*
X158326221Y-104999644D01*
X158349500Y-104998500D01*
X158924500Y-104998500D01*
X158947779Y-104999644D01*
X158947779Y-104999644D01*
G37*
D12*
X158637000Y-105473500D03*
D10*
G36*
X161360279Y-95142644D02*
G01*
X161383334Y-95146063D01*
X161405943Y-95151727D01*
X161427887Y-95159579D01*
X161448957Y-95169544D01*
X161468948Y-95181526D01*
X161487668Y-95195410D01*
X161504938Y-95211062D01*
X161520590Y-95228332D01*
X161534474Y-95247052D01*
X161546456Y-95267043D01*
X161556421Y-95288113D01*
X161564273Y-95310057D01*
X161569937Y-95332666D01*
X161573356Y-95355721D01*
X161574500Y-95379000D01*
X161574500Y-95954000D01*
X161573356Y-95977279D01*
X161569937Y-96000334D01*
X161564273Y-96022943D01*
X161556421Y-96044887D01*
X161546456Y-96065957D01*
X161534474Y-96085948D01*
X161520590Y-96104668D01*
X161504938Y-96121938D01*
X161487668Y-96137590D01*
X161468948Y-96151474D01*
X161448957Y-96163456D01*
X161427887Y-96173421D01*
X161405943Y-96181273D01*
X161383334Y-96186937D01*
X161360279Y-96190356D01*
X161337000Y-96191500D01*
X160862000Y-96191500D01*
X160838721Y-96190356D01*
X160815666Y-96186937D01*
X160793057Y-96181273D01*
X160771113Y-96173421D01*
X160750043Y-96163456D01*
X160730052Y-96151474D01*
X160711332Y-96137590D01*
X160694062Y-96121938D01*
X160678410Y-96104668D01*
X160664526Y-96085948D01*
X160652544Y-96065957D01*
X160642579Y-96044887D01*
X160634727Y-96022943D01*
X160629063Y-96000334D01*
X160625644Y-95977279D01*
X160624500Y-95954000D01*
X160624500Y-95379000D01*
X160625644Y-95355721D01*
X160629063Y-95332666D01*
X160634727Y-95310057D01*
X160642579Y-95288113D01*
X160652544Y-95267043D01*
X160664526Y-95247052D01*
X160678410Y-95228332D01*
X160694062Y-95211062D01*
X160711332Y-95195410D01*
X160730052Y-95181526D01*
X160750043Y-95169544D01*
X160771113Y-95159579D01*
X160793057Y-95151727D01*
X160815666Y-95146063D01*
X160838721Y-95142644D01*
X160862000Y-95141500D01*
X161337000Y-95141500D01*
X161360279Y-95142644D01*
X161360279Y-95142644D01*
G37*
D12*
X161099500Y-95666500D03*
D10*
G36*
X161360279Y-93392644D02*
G01*
X161383334Y-93396063D01*
X161405943Y-93401727D01*
X161427887Y-93409579D01*
X161448957Y-93419544D01*
X161468948Y-93431526D01*
X161487668Y-93445410D01*
X161504938Y-93461062D01*
X161520590Y-93478332D01*
X161534474Y-93497052D01*
X161546456Y-93517043D01*
X161556421Y-93538113D01*
X161564273Y-93560057D01*
X161569937Y-93582666D01*
X161573356Y-93605721D01*
X161574500Y-93629000D01*
X161574500Y-94204000D01*
X161573356Y-94227279D01*
X161569937Y-94250334D01*
X161564273Y-94272943D01*
X161556421Y-94294887D01*
X161546456Y-94315957D01*
X161534474Y-94335948D01*
X161520590Y-94354668D01*
X161504938Y-94371938D01*
X161487668Y-94387590D01*
X161468948Y-94401474D01*
X161448957Y-94413456D01*
X161427887Y-94423421D01*
X161405943Y-94431273D01*
X161383334Y-94436937D01*
X161360279Y-94440356D01*
X161337000Y-94441500D01*
X160862000Y-94441500D01*
X160838721Y-94440356D01*
X160815666Y-94436937D01*
X160793057Y-94431273D01*
X160771113Y-94423421D01*
X160750043Y-94413456D01*
X160730052Y-94401474D01*
X160711332Y-94387590D01*
X160694062Y-94371938D01*
X160678410Y-94354668D01*
X160664526Y-94335948D01*
X160652544Y-94315957D01*
X160642579Y-94294887D01*
X160634727Y-94272943D01*
X160629063Y-94250334D01*
X160625644Y-94227279D01*
X160624500Y-94204000D01*
X160624500Y-93629000D01*
X160625644Y-93605721D01*
X160629063Y-93582666D01*
X160634727Y-93560057D01*
X160642579Y-93538113D01*
X160652544Y-93517043D01*
X160664526Y-93497052D01*
X160678410Y-93478332D01*
X160694062Y-93461062D01*
X160711332Y-93445410D01*
X160730052Y-93431526D01*
X160750043Y-93419544D01*
X160771113Y-93409579D01*
X160793057Y-93401727D01*
X160815666Y-93396063D01*
X160838721Y-93392644D01*
X160862000Y-93391500D01*
X161337000Y-93391500D01*
X161360279Y-93392644D01*
X161360279Y-93392644D01*
G37*
D12*
X161099500Y-93916500D03*
D10*
G36*
X160902279Y-90902644D02*
G01*
X160925334Y-90906063D01*
X160947943Y-90911727D01*
X160969887Y-90919579D01*
X160990957Y-90929544D01*
X161010948Y-90941526D01*
X161029668Y-90955410D01*
X161046938Y-90971062D01*
X161062590Y-90988332D01*
X161076474Y-91007052D01*
X161088456Y-91027043D01*
X161098421Y-91048113D01*
X161106273Y-91070057D01*
X161111937Y-91092666D01*
X161115356Y-91115721D01*
X161116500Y-91139000D01*
X161116500Y-91614000D01*
X161115356Y-91637279D01*
X161111937Y-91660334D01*
X161106273Y-91682943D01*
X161098421Y-91704887D01*
X161088456Y-91725957D01*
X161076474Y-91745948D01*
X161062590Y-91764668D01*
X161046938Y-91781938D01*
X161029668Y-91797590D01*
X161010948Y-91811474D01*
X160990957Y-91823456D01*
X160969887Y-91833421D01*
X160947943Y-91841273D01*
X160925334Y-91846937D01*
X160902279Y-91850356D01*
X160879000Y-91851500D01*
X160304000Y-91851500D01*
X160280721Y-91850356D01*
X160257666Y-91846937D01*
X160235057Y-91841273D01*
X160213113Y-91833421D01*
X160192043Y-91823456D01*
X160172052Y-91811474D01*
X160153332Y-91797590D01*
X160136062Y-91781938D01*
X160120410Y-91764668D01*
X160106526Y-91745948D01*
X160094544Y-91725957D01*
X160084579Y-91704887D01*
X160076727Y-91682943D01*
X160071063Y-91660334D01*
X160067644Y-91637279D01*
X160066500Y-91614000D01*
X160066500Y-91139000D01*
X160067644Y-91115721D01*
X160071063Y-91092666D01*
X160076727Y-91070057D01*
X160084579Y-91048113D01*
X160094544Y-91027043D01*
X160106526Y-91007052D01*
X160120410Y-90988332D01*
X160136062Y-90971062D01*
X160153332Y-90955410D01*
X160172052Y-90941526D01*
X160192043Y-90929544D01*
X160213113Y-90919579D01*
X160235057Y-90911727D01*
X160257666Y-90906063D01*
X160280721Y-90902644D01*
X160304000Y-90901500D01*
X160879000Y-90901500D01*
X160902279Y-90902644D01*
X160902279Y-90902644D01*
G37*
D12*
X160591500Y-91376500D03*
D10*
G36*
X159152279Y-90902644D02*
G01*
X159175334Y-90906063D01*
X159197943Y-90911727D01*
X159219887Y-90919579D01*
X159240957Y-90929544D01*
X159260948Y-90941526D01*
X159279668Y-90955410D01*
X159296938Y-90971062D01*
X159312590Y-90988332D01*
X159326474Y-91007052D01*
X159338456Y-91027043D01*
X159348421Y-91048113D01*
X159356273Y-91070057D01*
X159361937Y-91092666D01*
X159365356Y-91115721D01*
X159366500Y-91139000D01*
X159366500Y-91614000D01*
X159365356Y-91637279D01*
X159361937Y-91660334D01*
X159356273Y-91682943D01*
X159348421Y-91704887D01*
X159338456Y-91725957D01*
X159326474Y-91745948D01*
X159312590Y-91764668D01*
X159296938Y-91781938D01*
X159279668Y-91797590D01*
X159260948Y-91811474D01*
X159240957Y-91823456D01*
X159219887Y-91833421D01*
X159197943Y-91841273D01*
X159175334Y-91846937D01*
X159152279Y-91850356D01*
X159129000Y-91851500D01*
X158554000Y-91851500D01*
X158530721Y-91850356D01*
X158507666Y-91846937D01*
X158485057Y-91841273D01*
X158463113Y-91833421D01*
X158442043Y-91823456D01*
X158422052Y-91811474D01*
X158403332Y-91797590D01*
X158386062Y-91781938D01*
X158370410Y-91764668D01*
X158356526Y-91745948D01*
X158344544Y-91725957D01*
X158334579Y-91704887D01*
X158326727Y-91682943D01*
X158321063Y-91660334D01*
X158317644Y-91637279D01*
X158316500Y-91614000D01*
X158316500Y-91139000D01*
X158317644Y-91115721D01*
X158321063Y-91092666D01*
X158326727Y-91070057D01*
X158334579Y-91048113D01*
X158344544Y-91027043D01*
X158356526Y-91007052D01*
X158370410Y-90988332D01*
X158386062Y-90971062D01*
X158403332Y-90955410D01*
X158422052Y-90941526D01*
X158442043Y-90929544D01*
X158463113Y-90919579D01*
X158485057Y-90911727D01*
X158507666Y-90906063D01*
X158530721Y-90902644D01*
X158554000Y-90901500D01*
X159129000Y-90901500D01*
X159152279Y-90902644D01*
X159152279Y-90902644D01*
G37*
D12*
X158841500Y-91376500D03*
D10*
G36*
X151531488Y-90547477D02*
G01*
X151554543Y-90550896D01*
X151577152Y-90556560D01*
X151599096Y-90564412D01*
X151620166Y-90574377D01*
X151640157Y-90586359D01*
X151658877Y-90600243D01*
X151676147Y-90615895D01*
X152082733Y-91022481D01*
X152098385Y-91039751D01*
X152112269Y-91058471D01*
X152124251Y-91078462D01*
X152134216Y-91099532D01*
X152142068Y-91121476D01*
X152147732Y-91144085D01*
X152151151Y-91167140D01*
X152152295Y-91190419D01*
X152151151Y-91213698D01*
X152147732Y-91236753D01*
X152142068Y-91259362D01*
X152134216Y-91281306D01*
X152124251Y-91302376D01*
X152112269Y-91322367D01*
X152098385Y-91341087D01*
X152082733Y-91358357D01*
X151746857Y-91694233D01*
X151729587Y-91709885D01*
X151710867Y-91723769D01*
X151690876Y-91735751D01*
X151669806Y-91745716D01*
X151647862Y-91753568D01*
X151625253Y-91759232D01*
X151602198Y-91762651D01*
X151578919Y-91763795D01*
X151555640Y-91762651D01*
X151532585Y-91759232D01*
X151509976Y-91753568D01*
X151488032Y-91745716D01*
X151466962Y-91735751D01*
X151446971Y-91723769D01*
X151428251Y-91709885D01*
X151410981Y-91694233D01*
X151004395Y-91287647D01*
X150988743Y-91270377D01*
X150974859Y-91251657D01*
X150962877Y-91231666D01*
X150952912Y-91210596D01*
X150945060Y-91188652D01*
X150939396Y-91166043D01*
X150935977Y-91142988D01*
X150934833Y-91119709D01*
X150935977Y-91096430D01*
X150939396Y-91073375D01*
X150945060Y-91050766D01*
X150952912Y-91028822D01*
X150962877Y-91007752D01*
X150974859Y-90987761D01*
X150988743Y-90969041D01*
X151004395Y-90951771D01*
X151340271Y-90615895D01*
X151357541Y-90600243D01*
X151376261Y-90586359D01*
X151396252Y-90574377D01*
X151417322Y-90564412D01*
X151439266Y-90556560D01*
X151461875Y-90550896D01*
X151484930Y-90547477D01*
X151508209Y-90546333D01*
X151531488Y-90547477D01*
X151531488Y-90547477D01*
G37*
D12*
X151543564Y-91155064D03*
D10*
G36*
X152768924Y-91784913D02*
G01*
X152791979Y-91788332D01*
X152814588Y-91793996D01*
X152836532Y-91801848D01*
X152857602Y-91811813D01*
X152877593Y-91823795D01*
X152896313Y-91837679D01*
X152913583Y-91853331D01*
X153320169Y-92259917D01*
X153335821Y-92277187D01*
X153349705Y-92295907D01*
X153361687Y-92315898D01*
X153371652Y-92336968D01*
X153379504Y-92358912D01*
X153385168Y-92381521D01*
X153388587Y-92404576D01*
X153389731Y-92427855D01*
X153388587Y-92451134D01*
X153385168Y-92474189D01*
X153379504Y-92496798D01*
X153371652Y-92518742D01*
X153361687Y-92539812D01*
X153349705Y-92559803D01*
X153335821Y-92578523D01*
X153320169Y-92595793D01*
X152984293Y-92931669D01*
X152967023Y-92947321D01*
X152948303Y-92961205D01*
X152928312Y-92973187D01*
X152907242Y-92983152D01*
X152885298Y-92991004D01*
X152862689Y-92996668D01*
X152839634Y-93000087D01*
X152816355Y-93001231D01*
X152793076Y-93000087D01*
X152770021Y-92996668D01*
X152747412Y-92991004D01*
X152725468Y-92983152D01*
X152704398Y-92973187D01*
X152684407Y-92961205D01*
X152665687Y-92947321D01*
X152648417Y-92931669D01*
X152241831Y-92525083D01*
X152226179Y-92507813D01*
X152212295Y-92489093D01*
X152200313Y-92469102D01*
X152190348Y-92448032D01*
X152182496Y-92426088D01*
X152176832Y-92403479D01*
X152173413Y-92380424D01*
X152172269Y-92357145D01*
X152173413Y-92333866D01*
X152176832Y-92310811D01*
X152182496Y-92288202D01*
X152190348Y-92266258D01*
X152200313Y-92245188D01*
X152212295Y-92225197D01*
X152226179Y-92206477D01*
X152241831Y-92189207D01*
X152577707Y-91853331D01*
X152594977Y-91837679D01*
X152613697Y-91823795D01*
X152633688Y-91811813D01*
X152654758Y-91801848D01*
X152676702Y-91793996D01*
X152699311Y-91788332D01*
X152722366Y-91784913D01*
X152745645Y-91783769D01*
X152768924Y-91784913D01*
X152768924Y-91784913D01*
G37*
D12*
X152781000Y-92392500D03*
D10*
G36*
X154478679Y-110689244D02*
G01*
X154501734Y-110692663D01*
X154524343Y-110698327D01*
X154546287Y-110706179D01*
X154567357Y-110716144D01*
X154587348Y-110728126D01*
X154606068Y-110742010D01*
X154623338Y-110757662D01*
X154638990Y-110774932D01*
X154652874Y-110793652D01*
X154664856Y-110813643D01*
X154674821Y-110834713D01*
X154682673Y-110856657D01*
X154688337Y-110879266D01*
X154691756Y-110902321D01*
X154692900Y-110925600D01*
X154692900Y-111400600D01*
X154691756Y-111423879D01*
X154688337Y-111446934D01*
X154682673Y-111469543D01*
X154674821Y-111491487D01*
X154664856Y-111512557D01*
X154652874Y-111532548D01*
X154638990Y-111551268D01*
X154623338Y-111568538D01*
X154606068Y-111584190D01*
X154587348Y-111598074D01*
X154567357Y-111610056D01*
X154546287Y-111620021D01*
X154524343Y-111627873D01*
X154501734Y-111633537D01*
X154478679Y-111636956D01*
X154455400Y-111638100D01*
X153880400Y-111638100D01*
X153857121Y-111636956D01*
X153834066Y-111633537D01*
X153811457Y-111627873D01*
X153789513Y-111620021D01*
X153768443Y-111610056D01*
X153748452Y-111598074D01*
X153729732Y-111584190D01*
X153712462Y-111568538D01*
X153696810Y-111551268D01*
X153682926Y-111532548D01*
X153670944Y-111512557D01*
X153660979Y-111491487D01*
X153653127Y-111469543D01*
X153647463Y-111446934D01*
X153644044Y-111423879D01*
X153642900Y-111400600D01*
X153642900Y-110925600D01*
X153644044Y-110902321D01*
X153647463Y-110879266D01*
X153653127Y-110856657D01*
X153660979Y-110834713D01*
X153670944Y-110813643D01*
X153682926Y-110793652D01*
X153696810Y-110774932D01*
X153712462Y-110757662D01*
X153729732Y-110742010D01*
X153748452Y-110728126D01*
X153768443Y-110716144D01*
X153789513Y-110706179D01*
X153811457Y-110698327D01*
X153834066Y-110692663D01*
X153857121Y-110689244D01*
X153880400Y-110688100D01*
X154455400Y-110688100D01*
X154478679Y-110689244D01*
X154478679Y-110689244D01*
G37*
D12*
X154167900Y-111163100D03*
D10*
G36*
X156228679Y-110689244D02*
G01*
X156251734Y-110692663D01*
X156274343Y-110698327D01*
X156296287Y-110706179D01*
X156317357Y-110716144D01*
X156337348Y-110728126D01*
X156356068Y-110742010D01*
X156373338Y-110757662D01*
X156388990Y-110774932D01*
X156402874Y-110793652D01*
X156414856Y-110813643D01*
X156424821Y-110834713D01*
X156432673Y-110856657D01*
X156438337Y-110879266D01*
X156441756Y-110902321D01*
X156442900Y-110925600D01*
X156442900Y-111400600D01*
X156441756Y-111423879D01*
X156438337Y-111446934D01*
X156432673Y-111469543D01*
X156424821Y-111491487D01*
X156414856Y-111512557D01*
X156402874Y-111532548D01*
X156388990Y-111551268D01*
X156373338Y-111568538D01*
X156356068Y-111584190D01*
X156337348Y-111598074D01*
X156317357Y-111610056D01*
X156296287Y-111620021D01*
X156274343Y-111627873D01*
X156251734Y-111633537D01*
X156228679Y-111636956D01*
X156205400Y-111638100D01*
X155630400Y-111638100D01*
X155607121Y-111636956D01*
X155584066Y-111633537D01*
X155561457Y-111627873D01*
X155539513Y-111620021D01*
X155518443Y-111610056D01*
X155498452Y-111598074D01*
X155479732Y-111584190D01*
X155462462Y-111568538D01*
X155446810Y-111551268D01*
X155432926Y-111532548D01*
X155420944Y-111512557D01*
X155410979Y-111491487D01*
X155403127Y-111469543D01*
X155397463Y-111446934D01*
X155394044Y-111423879D01*
X155392900Y-111400600D01*
X155392900Y-110925600D01*
X155394044Y-110902321D01*
X155397463Y-110879266D01*
X155403127Y-110856657D01*
X155410979Y-110834713D01*
X155420944Y-110813643D01*
X155432926Y-110793652D01*
X155446810Y-110774932D01*
X155462462Y-110757662D01*
X155479732Y-110742010D01*
X155498452Y-110728126D01*
X155518443Y-110716144D01*
X155539513Y-110706179D01*
X155561457Y-110698327D01*
X155584066Y-110692663D01*
X155607121Y-110689244D01*
X155630400Y-110688100D01*
X156205400Y-110688100D01*
X156228679Y-110689244D01*
X156228679Y-110689244D01*
G37*
D12*
X155917900Y-111163100D03*
D10*
G36*
X154093352Y-104691695D02*
G01*
X154116407Y-104695114D01*
X154139016Y-104700778D01*
X154160960Y-104708630D01*
X154182030Y-104718595D01*
X154202021Y-104730577D01*
X154220741Y-104744461D01*
X154238011Y-104760113D01*
X154573887Y-105095989D01*
X154589539Y-105113259D01*
X154603423Y-105131979D01*
X154615405Y-105151970D01*
X154625370Y-105173040D01*
X154633222Y-105194984D01*
X154638886Y-105217593D01*
X154642305Y-105240648D01*
X154643449Y-105263927D01*
X154642305Y-105287206D01*
X154638886Y-105310261D01*
X154633222Y-105332870D01*
X154625370Y-105354814D01*
X154615405Y-105375884D01*
X154603423Y-105395875D01*
X154589539Y-105414595D01*
X154573887Y-105431865D01*
X154167301Y-105838451D01*
X154150031Y-105854103D01*
X154131311Y-105867987D01*
X154111320Y-105879969D01*
X154090250Y-105889934D01*
X154068306Y-105897786D01*
X154045697Y-105903450D01*
X154022642Y-105906869D01*
X153999363Y-105908013D01*
X153976084Y-105906869D01*
X153953029Y-105903450D01*
X153930420Y-105897786D01*
X153908476Y-105889934D01*
X153887406Y-105879969D01*
X153867415Y-105867987D01*
X153848695Y-105854103D01*
X153831425Y-105838451D01*
X153495549Y-105502575D01*
X153479897Y-105485305D01*
X153466013Y-105466585D01*
X153454031Y-105446594D01*
X153444066Y-105425524D01*
X153436214Y-105403580D01*
X153430550Y-105380971D01*
X153427131Y-105357916D01*
X153425987Y-105334637D01*
X153427131Y-105311358D01*
X153430550Y-105288303D01*
X153436214Y-105265694D01*
X153444066Y-105243750D01*
X153454031Y-105222680D01*
X153466013Y-105202689D01*
X153479897Y-105183969D01*
X153495549Y-105166699D01*
X153902135Y-104760113D01*
X153919405Y-104744461D01*
X153938125Y-104730577D01*
X153958116Y-104718595D01*
X153979186Y-104708630D01*
X154001130Y-104700778D01*
X154023739Y-104695114D01*
X154046794Y-104691695D01*
X154070073Y-104690551D01*
X154093352Y-104691695D01*
X154093352Y-104691695D01*
G37*
D12*
X154034718Y-105299282D03*
D10*
G36*
X152855916Y-105929131D02*
G01*
X152878971Y-105932550D01*
X152901580Y-105938214D01*
X152923524Y-105946066D01*
X152944594Y-105956031D01*
X152964585Y-105968013D01*
X152983305Y-105981897D01*
X153000575Y-105997549D01*
X153336451Y-106333425D01*
X153352103Y-106350695D01*
X153365987Y-106369415D01*
X153377969Y-106389406D01*
X153387934Y-106410476D01*
X153395786Y-106432420D01*
X153401450Y-106455029D01*
X153404869Y-106478084D01*
X153406013Y-106501363D01*
X153404869Y-106524642D01*
X153401450Y-106547697D01*
X153395786Y-106570306D01*
X153387934Y-106592250D01*
X153377969Y-106613320D01*
X153365987Y-106633311D01*
X153352103Y-106652031D01*
X153336451Y-106669301D01*
X152929865Y-107075887D01*
X152912595Y-107091539D01*
X152893875Y-107105423D01*
X152873884Y-107117405D01*
X152852814Y-107127370D01*
X152830870Y-107135222D01*
X152808261Y-107140886D01*
X152785206Y-107144305D01*
X152761927Y-107145449D01*
X152738648Y-107144305D01*
X152715593Y-107140886D01*
X152692984Y-107135222D01*
X152671040Y-107127370D01*
X152649970Y-107117405D01*
X152629979Y-107105423D01*
X152611259Y-107091539D01*
X152593989Y-107075887D01*
X152258113Y-106740011D01*
X152242461Y-106722741D01*
X152228577Y-106704021D01*
X152216595Y-106684030D01*
X152206630Y-106662960D01*
X152198778Y-106641016D01*
X152193114Y-106618407D01*
X152189695Y-106595352D01*
X152188551Y-106572073D01*
X152189695Y-106548794D01*
X152193114Y-106525739D01*
X152198778Y-106503130D01*
X152206630Y-106481186D01*
X152216595Y-106460116D01*
X152228577Y-106440125D01*
X152242461Y-106421405D01*
X152258113Y-106404135D01*
X152664699Y-105997549D01*
X152681969Y-105981897D01*
X152700689Y-105968013D01*
X152720680Y-105956031D01*
X152741750Y-105946066D01*
X152763694Y-105938214D01*
X152786303Y-105932550D01*
X152809358Y-105929131D01*
X152832637Y-105927987D01*
X152855916Y-105929131D01*
X152855916Y-105929131D01*
G37*
D12*
X152797282Y-106536718D03*
D10*
G36*
X154488779Y-84933644D02*
G01*
X154511834Y-84937063D01*
X154534443Y-84942727D01*
X154556387Y-84950579D01*
X154577457Y-84960544D01*
X154597448Y-84972526D01*
X154616168Y-84986410D01*
X154633438Y-85002062D01*
X154649090Y-85019332D01*
X154662974Y-85038052D01*
X154674956Y-85058043D01*
X154684921Y-85079113D01*
X154692773Y-85101057D01*
X154698437Y-85123666D01*
X154701856Y-85146721D01*
X154703000Y-85170000D01*
X154703000Y-85645000D01*
X154701856Y-85668279D01*
X154698437Y-85691334D01*
X154692773Y-85713943D01*
X154684921Y-85735887D01*
X154674956Y-85756957D01*
X154662974Y-85776948D01*
X154649090Y-85795668D01*
X154633438Y-85812938D01*
X154616168Y-85828590D01*
X154597448Y-85842474D01*
X154577457Y-85854456D01*
X154556387Y-85864421D01*
X154534443Y-85872273D01*
X154511834Y-85877937D01*
X154488779Y-85881356D01*
X154465500Y-85882500D01*
X153890500Y-85882500D01*
X153867221Y-85881356D01*
X153844166Y-85877937D01*
X153821557Y-85872273D01*
X153799613Y-85864421D01*
X153778543Y-85854456D01*
X153758552Y-85842474D01*
X153739832Y-85828590D01*
X153722562Y-85812938D01*
X153706910Y-85795668D01*
X153693026Y-85776948D01*
X153681044Y-85756957D01*
X153671079Y-85735887D01*
X153663227Y-85713943D01*
X153657563Y-85691334D01*
X153654144Y-85668279D01*
X153653000Y-85645000D01*
X153653000Y-85170000D01*
X153654144Y-85146721D01*
X153657563Y-85123666D01*
X153663227Y-85101057D01*
X153671079Y-85079113D01*
X153681044Y-85058043D01*
X153693026Y-85038052D01*
X153706910Y-85019332D01*
X153722562Y-85002062D01*
X153739832Y-84986410D01*
X153758552Y-84972526D01*
X153778543Y-84960544D01*
X153799613Y-84950579D01*
X153821557Y-84942727D01*
X153844166Y-84937063D01*
X153867221Y-84933644D01*
X153890500Y-84932500D01*
X154465500Y-84932500D01*
X154488779Y-84933644D01*
X154488779Y-84933644D01*
G37*
D12*
X154178000Y-85407500D03*
D10*
G36*
X156238779Y-84933644D02*
G01*
X156261834Y-84937063D01*
X156284443Y-84942727D01*
X156306387Y-84950579D01*
X156327457Y-84960544D01*
X156347448Y-84972526D01*
X156366168Y-84986410D01*
X156383438Y-85002062D01*
X156399090Y-85019332D01*
X156412974Y-85038052D01*
X156424956Y-85058043D01*
X156434921Y-85079113D01*
X156442773Y-85101057D01*
X156448437Y-85123666D01*
X156451856Y-85146721D01*
X156453000Y-85170000D01*
X156453000Y-85645000D01*
X156451856Y-85668279D01*
X156448437Y-85691334D01*
X156442773Y-85713943D01*
X156434921Y-85735887D01*
X156424956Y-85756957D01*
X156412974Y-85776948D01*
X156399090Y-85795668D01*
X156383438Y-85812938D01*
X156366168Y-85828590D01*
X156347448Y-85842474D01*
X156327457Y-85854456D01*
X156306387Y-85864421D01*
X156284443Y-85872273D01*
X156261834Y-85877937D01*
X156238779Y-85881356D01*
X156215500Y-85882500D01*
X155640500Y-85882500D01*
X155617221Y-85881356D01*
X155594166Y-85877937D01*
X155571557Y-85872273D01*
X155549613Y-85864421D01*
X155528543Y-85854456D01*
X155508552Y-85842474D01*
X155489832Y-85828590D01*
X155472562Y-85812938D01*
X155456910Y-85795668D01*
X155443026Y-85776948D01*
X155431044Y-85756957D01*
X155421079Y-85735887D01*
X155413227Y-85713943D01*
X155407563Y-85691334D01*
X155404144Y-85668279D01*
X155403000Y-85645000D01*
X155403000Y-85170000D01*
X155404144Y-85146721D01*
X155407563Y-85123666D01*
X155413227Y-85101057D01*
X155421079Y-85079113D01*
X155431044Y-85058043D01*
X155443026Y-85038052D01*
X155456910Y-85019332D01*
X155472562Y-85002062D01*
X155489832Y-84986410D01*
X155508552Y-84972526D01*
X155528543Y-84960544D01*
X155549613Y-84950579D01*
X155571557Y-84942727D01*
X155594166Y-84937063D01*
X155617221Y-84933644D01*
X155640500Y-84932500D01*
X156215500Y-84932500D01*
X156238779Y-84933644D01*
X156238779Y-84933644D01*
G37*
D12*
X155928000Y-85407500D03*
D10*
G36*
X150311279Y-86358144D02*
G01*
X150334334Y-86361563D01*
X150356943Y-86367227D01*
X150378887Y-86375079D01*
X150399957Y-86385044D01*
X150419948Y-86397026D01*
X150438668Y-86410910D01*
X150455938Y-86426562D01*
X150471590Y-86443832D01*
X150485474Y-86462552D01*
X150497456Y-86482543D01*
X150507421Y-86503613D01*
X150515273Y-86525557D01*
X150520937Y-86548166D01*
X150524356Y-86571221D01*
X150525500Y-86594500D01*
X150525500Y-87169500D01*
X150524356Y-87192779D01*
X150520937Y-87215834D01*
X150515273Y-87238443D01*
X150507421Y-87260387D01*
X150497456Y-87281457D01*
X150485474Y-87301448D01*
X150471590Y-87320168D01*
X150455938Y-87337438D01*
X150438668Y-87353090D01*
X150419948Y-87366974D01*
X150399957Y-87378956D01*
X150378887Y-87388921D01*
X150356943Y-87396773D01*
X150334334Y-87402437D01*
X150311279Y-87405856D01*
X150288000Y-87407000D01*
X149813000Y-87407000D01*
X149789721Y-87405856D01*
X149766666Y-87402437D01*
X149744057Y-87396773D01*
X149722113Y-87388921D01*
X149701043Y-87378956D01*
X149681052Y-87366974D01*
X149662332Y-87353090D01*
X149645062Y-87337438D01*
X149629410Y-87320168D01*
X149615526Y-87301448D01*
X149603544Y-87281457D01*
X149593579Y-87260387D01*
X149585727Y-87238443D01*
X149580063Y-87215834D01*
X149576644Y-87192779D01*
X149575500Y-87169500D01*
X149575500Y-86594500D01*
X149576644Y-86571221D01*
X149580063Y-86548166D01*
X149585727Y-86525557D01*
X149593579Y-86503613D01*
X149603544Y-86482543D01*
X149615526Y-86462552D01*
X149629410Y-86443832D01*
X149645062Y-86426562D01*
X149662332Y-86410910D01*
X149681052Y-86397026D01*
X149701043Y-86385044D01*
X149722113Y-86375079D01*
X149744057Y-86367227D01*
X149766666Y-86361563D01*
X149789721Y-86358144D01*
X149813000Y-86357000D01*
X150288000Y-86357000D01*
X150311279Y-86358144D01*
X150311279Y-86358144D01*
G37*
D12*
X150050500Y-86882000D03*
D10*
G36*
X150311279Y-88108144D02*
G01*
X150334334Y-88111563D01*
X150356943Y-88117227D01*
X150378887Y-88125079D01*
X150399957Y-88135044D01*
X150419948Y-88147026D01*
X150438668Y-88160910D01*
X150455938Y-88176562D01*
X150471590Y-88193832D01*
X150485474Y-88212552D01*
X150497456Y-88232543D01*
X150507421Y-88253613D01*
X150515273Y-88275557D01*
X150520937Y-88298166D01*
X150524356Y-88321221D01*
X150525500Y-88344500D01*
X150525500Y-88919500D01*
X150524356Y-88942779D01*
X150520937Y-88965834D01*
X150515273Y-88988443D01*
X150507421Y-89010387D01*
X150497456Y-89031457D01*
X150485474Y-89051448D01*
X150471590Y-89070168D01*
X150455938Y-89087438D01*
X150438668Y-89103090D01*
X150419948Y-89116974D01*
X150399957Y-89128956D01*
X150378887Y-89138921D01*
X150356943Y-89146773D01*
X150334334Y-89152437D01*
X150311279Y-89155856D01*
X150288000Y-89157000D01*
X149813000Y-89157000D01*
X149789721Y-89155856D01*
X149766666Y-89152437D01*
X149744057Y-89146773D01*
X149722113Y-89138921D01*
X149701043Y-89128956D01*
X149681052Y-89116974D01*
X149662332Y-89103090D01*
X149645062Y-89087438D01*
X149629410Y-89070168D01*
X149615526Y-89051448D01*
X149603544Y-89031457D01*
X149593579Y-89010387D01*
X149585727Y-88988443D01*
X149580063Y-88965834D01*
X149576644Y-88942779D01*
X149575500Y-88919500D01*
X149575500Y-88344500D01*
X149576644Y-88321221D01*
X149580063Y-88298166D01*
X149585727Y-88275557D01*
X149593579Y-88253613D01*
X149603544Y-88232543D01*
X149615526Y-88212552D01*
X149629410Y-88193832D01*
X149645062Y-88176562D01*
X149662332Y-88160910D01*
X149681052Y-88147026D01*
X149701043Y-88135044D01*
X149722113Y-88125079D01*
X149744057Y-88117227D01*
X149766666Y-88111563D01*
X149789721Y-88108144D01*
X149813000Y-88107000D01*
X150288000Y-88107000D01*
X150311279Y-88108144D01*
X150311279Y-88108144D01*
G37*
D12*
X150050500Y-88632000D03*
M02*
