M48
; DRILL file {KiCad (5.1.4)-1} date 10/30/2020 7:47:54 AM
; FORMAT={-:-/ absolute / inch / decimal}
; #@! TF.CreationDate,2020-10-30T07:47:54-05:00
; #@! TF.GenerationSoftware,Kicad,Pcbnew,(5.1.4)-1
; #@! TF.FileFunction,Plated,1,2,PTH
FMAT,2
INCH
T1C0.0157
T2C0.0315
T3C0.0350
T4C0.0394
%
G90
G05
T1
X5.3Y-3.46
X5.3Y-3.8
X5.3Y-3.9
X5.3Y-4.0
X5.47Y-3.79
X5.47Y-3.8925
X5.47Y-3.9975
X5.47Y-4.1
X5.47Y-4.2
X5.47Y-4.2925
X5.47Y-4.4
X5.51Y-3.615
X5.645Y-4.275
X5.65Y-3.775
X5.65Y-3.875
X5.65Y-3.975
X5.65Y-4.075
X5.725Y-3.775
X5.725Y-3.875
X5.725Y-3.975
X5.725Y-4.075
X5.745Y-3.5875
X5.8Y-3.775
X5.8Y-3.875
X5.8Y-3.975
X5.8Y-4.075
X5.8125Y-3.5875
X5.9025Y-3.82
X5.9025Y-3.875
X5.9025Y-3.93
X5.955Y-3.82
X5.955Y-3.875
X5.955Y-3.93
X6.0Y-3.1
X6.01Y-3.82
X6.01Y-3.875
X6.01Y-3.93
X6.0675Y-3.82
X6.0675Y-3.875
X6.0675Y-3.93
X6.13Y-3.82
X6.13Y-3.875
X6.13Y-3.93
X6.1385Y-4.4865
X6.185Y-3.82
X6.185Y-3.875
X6.185Y-3.93
X6.23Y-3.3575
X6.2375Y-3.82
X6.2375Y-3.875
X6.2375Y-3.93
X6.255Y-4.45
X6.3Y-3.85
X6.3Y-3.9125
X6.35Y-3.825
X6.35Y-3.9275
X6.4Y-3.825
X6.4Y-3.925
X6.4Y-4.275
X6.405Y-4.595
X6.41Y-3.465
X6.45Y-3.825
X6.45Y-3.925
X6.475Y-3.4
X6.475Y-3.55
X6.475Y-4.2
X6.475Y-4.325
X6.49Y-3.2
X6.5Y-3.8
X6.5Y-3.85
X6.5Y-3.9
X6.5Y-3.95
X6.55Y-3.8775
X6.6Y-3.5
X6.6Y-3.875
X6.6Y-4.25
X6.7Y-3.5
X6.7Y-4.25
X6.75Y-3.075
X6.75Y-3.875
X6.8Y-3.5
X6.8Y-4.25
X6.9Y-3.875
X7.05Y-3.875
X7.1Y-4.2
X7.1Y-4.2925
X7.2Y-3.75
X7.2Y-3.875
X7.2Y-4.0
X7.3Y-3.25
X7.3Y-4.5
X7.35Y-3.75
X7.35Y-3.875
X7.35Y-4.0
X7.45Y-3.25
X7.45Y-4.5
X7.495Y-3.75
X7.5Y-3.875
X7.5Y-4.0
T3
X6.3775Y-3.0125
X6.3775Y-3.1125
X6.3775Y-3.2125
T4
X5.4Y-3.65
X5.4Y-3.75
X5.4Y-3.85
X5.4Y-3.95
X5.4Y-4.05
X5.4Y-4.15
X5.4Y-4.25
X5.4Y-4.35
X5.4Y-4.45
X5.4Y-4.55
X7.305Y-3.4516
X7.305Y-3.55
X7.305Y-4.2016
X7.305Y-4.3
T2
G00X5.4517Y-3.1067
M15
G01X5.4517Y-3.1933
M16
G05
G00X5.5186Y-3.339
M15
G01X5.6052Y-3.339
M16
G05
G00X5.68Y-3.0988
M15
G01X5.68Y-3.2012
M16
G05
T0
M30
